<svg xmlns="http://www.w3.org/2000/svg" width="313.591" height="70.705" viewBox="0 0 313.591 70.705">
  <g >
    <path d="M4614.495,3130.894l12.829-12.963a.989.989,0,0,0,.29-.7v-48.2a.991.991,0,0,0-.987-1H4592.08a.989.989,0,0,0-.725.321l-7.273,7.989H4315.01a.993.993,0,0,0-.988,1v52.847a.993.993,0,0,0,.988,1h298.784A1,1,0,0,0,4614.495,3130.894Z" transform="translate(-4314.022 -3068.034)" fill="#c8102c"/>
    <path d="M4320.186,3098.382c0,.216,281.361,0,281.361,0l5.373-3.978-292.248-.106S4320.186,3098.164,4320.186,3098.382Z" transform="translate(-4313.462 -3027.772)" fill="#c8102c"/>
    <path d="M4516.8,3071.427l3.191-3.393H4389.929l-3.395,3.393Z" transform="translate(-4248.383 -3066.264)" fill="#c8102c"/>
    <path d="M4435.605,3071.427l3.1-3.1-109.107-.294-3.394,3.393Z" transform="translate(-4303.489 -3066.264)" fill="#c8102c"/>
    <path d="M4336.391,3068.328l-18.574-.294-3.393,3.393h18.868Z" transform="translate(-4313.677 -3066.264)" fill="#c8102c"/>
  </g>
</svg>
