<svg xmlns="http://www.w3.org/2000/svg" width="243.057" height="70.705" viewBox="0 0 243.057 70.705">
  <style>
    path {filter:drop-shadow(0 0 20px rgb(200,16,44,.8))}
  </style>
  <g transform="translate(1028.832 2423.704) rotate(180)">
    <path d="M4546.911,3130.894l9.943-12.963a1.153,1.153,0,0,0,.225-.7v-48.2a.9.9,0,0,0-.765-1h-26.776a.7.7,0,0,0-.562.321l-5.638,7.989h-208.55a.905.905,0,0,0-.766,1v52.847a.906.906,0,0,0,.766,1h231.581A.7.7,0,0,0,4546.911,3130.894Z" transform="translate(-3528.247 -715.034)" fill="#c8102c"/>
    <path d="M4318.855,3098.382c0,.216,213.454,0,213.454,0l4.076-3.978-221.713-.106S4318.855,3098.164,4318.855,3098.382Z" transform="translate(-3527.686 -674.772)" fill="#c8102c"/>
    <path d="M4450.8,3071.427l3.1-3.1-63.968-.294-3.395,3.393Z" transform="translate(-3460.142 -713.264)" fill="#c8102c"/>
    <path d="M4435.605,3071.427l3.1-3.1-109.107-.294-3.394,3.393Z" transform="translate(-3517.713 -713.264)" fill="#c8102c"/>
    <path d="M4336.391,3068.328l-18.574-.294-3.393,3.393h18.868Z" transform="translate(-3527.901 -713.264)" fill="#c8102c"/>
  </g>
</svg>
