<svg xmlns="http://www.w3.org/2000/svg" xmlns:xlink="http://www.w3.org/1999/xlink" width="1920" height="1080" viewBox="0 0 1920 1080">
  <defs>
    <clipPath id="clip-path">
      <rect id="사각형_2711" data-name="사각형 2711" width="1920" height="1080" fill="#fff" stroke="#707070" stroke-width="1"/>
    </clipPath>
  </defs>
  <g id="마스크_그룹_40" data-name="마스크 그룹 40" clip-path="url(#clip-path)">
    <g id="그룹_5599" data-name="그룹 5599" transform="translate(-7.947 132.294)">
      <g id="그룹_5597" data-name="그룹 5597">
        <path id="패스_2443" data-name="패스 2443" d="M.993,0a.994.994,0,1,0,.995.995A.994.994,0,0,0,.993,0Z" transform="translate(1917.248 407.705) rotate(180)" fill="#c8102c"/>
        <g id="그룹_5591" data-name="그룹 5591" transform="translate(0.243)">
          <g id="그룹_5546" data-name="그룹 5546" transform="translate(60.126 19.586)">
            <path id="패스_5021" data-name="패스 5021" d="M843.293,50.227V48.352H781.911L744.3,0H67.381L29.774,48.352H0v1.875Z" transform="translate(1183.08 103.477) rotate(180)" fill="#070018"/>
            <path id="패스_5022" data-name="패스 5022" d="M0,1.916,33.515,35.431H177.836L198.7,56.293h214.43L442.8,26.625H606.7L633.321,0Z" transform="translate(633.321 56.293) rotate(180)" fill="#070018"/>
            <path id="패스_5023" data-name="패스 5023" d="M633.321,1.916,599.806,35.431H455.485L434.623,56.293H220.193L190.526,26.625H26.625L0,0Z" transform="translate(1616.809 56.293) rotate(180)" fill="#070018"/>
          </g>
          <path id="패스_5050" data-name="패스 5050" d="M0,19.849H92.27l8.453-8.452h130.54L219.865,0H11.747L.279,11.467Z" transform="translate(1060.529 53.271) rotate(180)" fill="#070018"/>
          <path id="패스_5051" data-name="패스 5051" d="M0,0,11.232,11.232H35.223C34.971,11.232,24.11.119,24.11.119Z" transform="translate(832.965 53.271) rotate(180)" fill="#070018"/>
          <path id="패스_5052" data-name="패스 5052" d="M0,0,11.232,11.232H35.223C34.971,11.232,24.11.119,24.11.119Z" transform="translate(802.468 53.271) rotate(180)" fill="#070018"/>
          <path id="패스_5053" data-name="패스 5053" d="M0,0,11.232,11.232H35.223C34.971,11.232,24.11.119,24.11.119Z" transform="translate(771.971 53.271) rotate(180)" fill="#070018"/>
          <path id="패스_5054" data-name="패스 5054" d="M0,0,11.232,11.232H35.223C34.971,11.232,24.11.119,24.11.119Z" transform="translate(741.473 53.271) rotate(180)" fill="#070018"/>
          <path id="패스_5055" data-name="패스 5055" d="M0,0,11.232,11.232H35.224C34.971,11.232,24.11.119,24.11.119Z" transform="translate(710.976 53.271) rotate(180)" fill="#070018"/>
          <g id="그룹_5586" data-name="그룹 5586" transform="translate(1487.74 0)">
            <g id="그룹_5585" data-name="그룹 5585">
              <rect id="사각형_1522" data-name="사각형 1522" width="23.927" height="23.927" transform="translate(8.575 0)" fill="#070018"/>
              <rect id="사각형_1523" data-name="사각형 1523" width="23.927" height="23.927" transform="translate(48.73 0)" fill="#070018"/>
              <rect id="사각형_1524" data-name="사각형 1524" width="23.927" height="23.927" transform="translate(88.885 0)" fill="#070018"/>
              <path id="패스_5067" data-name="패스 5067" d="M1511.112-826.065h126.935s17.611-17.05,17.05-17.05h153.4l-9.6,9.595H1652.577l-14.9,14.9H1518.166Z" transform="translate(-1511.112 856.815)" fill="#070018"/>
              <path id="패스_5068" data-name="패스 5068" d="M1747.51-839.006s7.148,7.659,7.658,7.659h93.108l-19.4-19.4h-71.495Z" transform="translate(-1513.962 856.907)" fill="#070018"/>
              <g id="그룹_5583" data-name="그룹 5583" transform="translate(329.496 11.376)">
                <path id="패스_5069" data-name="패스 5069" d="M1951.51-819.488c-23.756,0-23.91-.156-24.063-.31l-24.494-24.494h-58.324v-1.176h58.811l.172.172,24.522,24.522c3.455.2,53.418.071,79.869-.028l0,1.176C1981.262-819.527,1963.42-819.488,1951.51-819.488Z" transform="translate(-1844.628 845.468)" fill="#070018"/>
              </g>
              <g id="그룹_5584" data-name="그룹 5584" transform="translate(141.106 30.158)">
                <path id="패스_5070" data-name="패스 5070" d="M1653.94-817.439l9.017-9.017h18.705l-9.017,9.017Z" transform="translate(-1653.94 826.456)" fill="#070018"/>
                <path id="패스_5071" data-name="패스 5071" d="M1686.465-817.439l9.017-9.017h18.705l-9.017,9.017Z" transform="translate(-1654.332 826.456)" fill="#070018"/>
                <path id="패스_5072" data-name="패스 5072" d="M1718.99-817.439l9.017-9.017h18.705l-9.017,9.017Z" transform="translate(-1654.724 826.456)" fill="#070018"/>
                <path id="패스_5073" data-name="패스 5073" d="M1751.516-817.439l9.017-9.017h18.705l-9.017,9.017Z" transform="translate(-1655.116 826.456)" fill="#070018"/>
                <path id="패스_5074" data-name="패스 5074" d="M1784.041-817.439l9.017-9.017h18.705l-9.017,9.017Z" transform="translate(-1655.508 826.456)" fill="#070018"/>
                <path id="패스_5075" data-name="패스 5075" d="M1816.567-817.439l9.017-9.017h18.705l-9.017,9.017Z" transform="translate(-1655.9 826.456)" fill="#070018"/>
              </g>
              <path id="패스_5076" data-name="패스 5076" d="M1900.721-845.689h26.271l21.3,21.3h58.331l4.5,4.5h-82.192l-25.374-24.432Z" transform="translate(-1515.809 856.846)" fill="#070018"/>
            </g>
          </g>
          <g id="그룹_5589" data-name="그룹 5589" transform="translate(0 10.719)">
            <g id="그룹_5587" data-name="그룹 5587" transform="translate(0 12.002)">
              <rect id="사각형_1527" data-name="사각형 1527" width="11.411" height="20.965" fill="#070018"/>
              <rect id="사각형_1528" data-name="사각형 1528" width="11.41" height="20.965" transform="translate(14.588)" fill="#070018"/>
              <rect id="사각형_1529" data-name="사각형 1529" width="11.411" height="20.965" transform="translate(29.177)" fill="#070018"/>
              <rect id="사각형_1530" data-name="사각형 1530" width="11.41" height="20.965" transform="translate(43.765)" fill="#070018"/>
              <rect id="사각형_1531" data-name="사각형 1531" width="11.411" height="20.965" transform="translate(58.353)" fill="#070018"/>
              <rect id="사각형_1532" data-name="사각형 1532" width="11.411" height="20.965" transform="translate(72.942)" fill="#070018"/>
              <rect id="사각형_1533" data-name="사각형 1533" width="11.411" height="20.965" transform="translate(87.531)" fill="#070018"/>
              <rect id="사각형_1534" data-name="사각형 1534" width="11.411" height="20.965" transform="translate(102.118)" fill="#070018"/>
              <rect id="사각형_1535" data-name="사각형 1535" width="11.411" height="20.965" transform="translate(116.707)" fill="#070018"/>
              <rect id="사각형_1536" data-name="사각형 1536" width="11.411" height="20.965" transform="translate(131.295)" fill="#070018"/>
              <rect id="사각형_1537" data-name="사각형 1537" width="11.411" height="20.965" transform="translate(145.884)" fill="#070018"/>
              <rect id="사각형_1538" data-name="사각형 1538" width="11.411" height="20.965" transform="translate(160.472)" fill="#070018"/>
              <rect id="사각형_1539" data-name="사각형 1539" width="11.411" height="20.965" transform="translate(175.06)" fill="#070018"/>
              <rect id="사각형_1540" data-name="사각형 1540" width="11.411" height="20.965" transform="translate(189.648)" fill="#070018"/>
              <rect id="사각형_1541" data-name="사각형 1541" width="11.41" height="20.965" transform="translate(204.237)" fill="#070018"/>
              <rect id="사각형_1542" data-name="사각형 1542" width="11.411" height="20.965" transform="translate(218.826)" fill="#070018"/>
              <rect id="사각형_1543" data-name="사각형 1543" width="11.411" height="20.965" transform="translate(233.413)" fill="#070018"/>
            </g>
            <g id="그룹_5588" data-name="그룹 5588" transform="translate(6.061)">
              <rect id="사각형_1557" data-name="사각형 1557" width="1.253" height="6.766" transform="translate(0 0)" fill="#070018"/>
              <rect id="사각형_1558" data-name="사각형 1558" width="1.253" height="6.766" transform="translate(12.17 0)" fill="#070018"/>
              <rect id="사각형_1559" data-name="사각형 1559" width="1.253" height="6.766" transform="translate(24.341 0)" fill="#070018"/>
              <rect id="사각형_1560" data-name="사각형 1560" width="1.253" height="6.766" transform="translate(36.511 0)" fill="#070018"/>
              <rect id="사각형_1561" data-name="사각형 1561" width="1.253" height="6.766" transform="translate(48.681 0)" fill="#070018"/>
              <rect id="사각형_1562" data-name="사각형 1562" width="1.253" height="6.766" transform="translate(60.852 0)" fill="#070018"/>
              <rect id="사각형_1563" data-name="사각형 1563" width="1.253" height="6.766" transform="translate(73.022 0)" fill="#070018"/>
              <rect id="사각형_1564" data-name="사각형 1564" width="1.253" height="6.766" transform="translate(85.193 0)" fill="#070018"/>
              <rect id="사각형_1565" data-name="사각형 1565" width="1.253" height="6.766" transform="translate(97.363 0)" fill="#070018"/>
              <rect id="사각형_1566" data-name="사각형 1566" width="1.253" height="6.766" transform="translate(109.534 0)" fill="#070018"/>
              <rect id="사각형_1567" data-name="사각형 1567" width="1.253" height="6.766" transform="translate(121.704 0)" fill="#070018"/>
              <rect id="사각형_1568" data-name="사각형 1568" width="1.253" height="6.766" transform="translate(133.875 0)" fill="#070018"/>
              <rect id="사각형_1569" data-name="사각형 1569" width="1.253" height="6.766" transform="translate(146.045 0)" fill="#070018"/>
              <rect id="사각형_1570" data-name="사각형 1570" width="1.253" height="6.766" transform="translate(158.216 0)" fill="#070018"/>
              <rect id="사각형_1571" data-name="사각형 1571" width="1.253" height="6.766" transform="translate(170.386 0)" fill="#070018"/>
              <rect id="사각형_1572" data-name="사각형 1572" width="1.253" height="6.766" transform="translate(182.556 0)" fill="#070018"/>
              <rect id="사각형_1573" data-name="사각형 1573" width="1.253" height="6.766" transform="translate(194.727 0)" fill="#070018"/>
              <rect id="사각형_1574" data-name="사각형 1574" width="1.253" height="6.766" transform="translate(206.897 0)" fill="#070018"/>
              <rect id="사각형_1575" data-name="사각형 1575" width="1.253" height="6.766" transform="translate(219.067 0)" fill="#070018"/>
              <rect id="사각형_1576" data-name="사각형 1576" width="1.253" height="6.766" transform="translate(231.238 0)" fill="#070018"/>
            </g>
          </g>
        </g>
        <rect id="사각형_2442" data-name="사각형 2442" width="1983" height="905" transform="translate(0.497 71.654)" fill="#070018"/>
      </g>
    </g>
  </g>
</svg>
