<svg xmlns="http://www.w3.org/2000/svg" width="1305.919" height="32.922" viewBox="0 0 1305.919 32.922">
  <g id="그룹_6241" data-name="그룹 6241" transform="translate(-1535.437 -81.724)">
    <g id="그룹_5203" data-name="그룹 5203" transform="translate(1535.437 81.724)">
      <path id="패스_4477" data-name="패스 4477" d="M1546.59,81.724l-11.153,11.152V88.382l6.659-6.658Z" transform="translate(-1535.437 -81.724)" fill="#c8102c"/>
      <path id="패스_4478" data-name="패스 4478" d="M1564.161,81.724l-28.724,28.722v-4.493l24.23-24.229Z" transform="translate(-1535.437 -81.724)" fill="#c8102c"/>
      <path id="패스_4479" data-name="패스 4479" d="M1590.127,81.724,1557.2,114.646h-4.494l32.924-32.922Z" transform="translate(-1543.832 -81.724)" fill="#c8102c"/>
      <path id="패스_4480" data-name="패스 4480" d="M1624.312,81.724l-32.923,32.922H1586.9l32.923-32.922Z" transform="translate(-1560.447 -81.724)" fill="#c8102c"/>
      <path id="패스_4481" data-name="패스 4481" d="M1658.5,81.724l-32.924,32.922h-4.494L1654,81.724Z" transform="translate(-1577.061 -81.724)" fill="#c8102c"/>
      <path id="패스_4482" data-name="패스 4482" d="M1692.682,81.724l-32.923,32.922h-4.494l32.923-32.922Z" transform="translate(-1593.676 -81.724)" fill="#c8102c"/>
      <path id="패스_4483" data-name="패스 4483" d="M1726.868,81.724l-32.923,32.922h-4.494l32.924-32.922Z" transform="translate(-1610.29 -81.724)" fill="#c8102c"/>
      <path id="패스_4484" data-name="패스 4484" d="M1761.052,81.724l-32.923,32.922h-4.495l32.924-32.922Z" transform="translate(-1626.905 -81.724)" fill="#c8102c"/>
      <path id="패스_4485" data-name="패스 4485" d="M1795.238,81.724l-32.923,32.922h-4.494l32.924-32.922Z" transform="translate(-1643.519 -81.724)" fill="#c8102c"/>
      <path id="패스_4486" data-name="패스 4486" d="M1829.424,81.724,1796.5,114.646h-4.493l32.922-32.922Z" transform="translate(-1660.135 -81.724)" fill="#c8102c"/>
      <path id="패스_4487" data-name="패스 4487" d="M1856.789,86.252v4.492l-26.1,26.1h-4.491Z" transform="translate(-1676.75 -83.924)" fill="#c8102c"/>
      <path id="패스_4488" data-name="패스 4488" d="M1860.379,133.461l13.025-13.024v4.491l-8.533,8.533Z" transform="translate(-1693.364 -100.539)" fill="#c8102c"/>
    </g>
    <g id="그룹_5204" data-name="그룹 5204" transform="translate(1676.172 81.724)">
      <path id="패스_4489" data-name="패스 4489" d="M1820.4,81.724,1809.25,92.876V88.382l6.659-6.658Z" transform="translate(-1809.25 -81.724)" fill="#c8102c"/>
      <path id="패스_4490" data-name="패스 4490" d="M1837.974,81.724l-28.724,28.722v-4.493l24.23-24.229Z" transform="translate(-1809.25 -81.724)" fill="#c8102c"/>
      <path id="패스_4491" data-name="패스 4491" d="M1863.94,81.724l-32.923,32.922h-4.494l32.923-32.922Z" transform="translate(-1817.645 -81.724)" fill="#c8102c"/>
      <path id="패스_4492" data-name="패스 4492" d="M1898.125,81.724,1865.2,114.646h-4.494l32.923-32.922Z" transform="translate(-1834.26 -81.724)" fill="#c8102c"/>
      <path id="패스_4493" data-name="패스 4493" d="M1932.31,81.724l-32.923,32.922h-4.494l32.923-32.922Z" transform="translate(-1850.874 -81.724)" fill="#c8102c"/>
      <path id="패스_4494" data-name="패스 4494" d="M1966.5,81.724l-32.923,32.922h-4.494L1962,81.724Z" transform="translate(-1867.489 -81.724)" fill="#c8102c"/>
      <path id="패스_4495" data-name="패스 4495" d="M2000.68,81.724l-32.923,32.922h-4.494l32.924-32.922Z" transform="translate(-1884.103 -81.724)" fill="#c8102c"/>
      <path id="패스_4496" data-name="패스 4496" d="M2034.865,81.724l-32.923,32.922h-4.494l32.923-32.922Z" transform="translate(-1900.718 -81.724)" fill="#c8102c"/>
      <path id="패스_4497" data-name="패스 4497" d="M2069.051,81.724l-32.924,32.922h-4.493l32.924-32.922Z" transform="translate(-1917.333 -81.724)" fill="#c8102c"/>
      <path id="패스_4498" data-name="패스 4498" d="M2103.237,81.724l-32.923,32.922h-4.494l32.922-32.922Z" transform="translate(-1933.948 -81.724)" fill="#c8102c"/>
      <path id="패스_4499" data-name="패스 4499" d="M2130.6,86.252v4.492l-26.1,26.1h-4.492Z" transform="translate(-1950.563 -83.924)" fill="#c8102c"/>
      <path id="패스_4500" data-name="패스 4500" d="M2134.191,133.461l13.025-13.024v4.491l-8.533,8.533Z" transform="translate(-1967.177 -100.539)" fill="#c8102c"/>
    </g>
    <g id="그룹_5205" data-name="그룹 5205" transform="translate(1816.907 81.724)">
      <path id="패스_4501" data-name="패스 4501" d="M2094.216,81.724l-11.153,11.152V88.382l6.659-6.658Z" transform="translate(-2083.063 -81.724)" fill="#c8102c"/>
      <path id="패스_4502" data-name="패스 4502" d="M2111.787,81.724l-28.724,28.722v-4.493l24.23-24.229Z" transform="translate(-2083.063 -81.724)" fill="#c8102c"/>
      <path id="패스_4503" data-name="패스 4503" d="M2137.753,81.724l-32.923,32.922h-4.494l32.924-32.922Z" transform="translate(-2091.458 -81.724)" fill="#c8102c"/>
      <path id="패스_4504" data-name="패스 4504" d="M2171.938,81.724l-32.924,32.922h-4.494l32.923-32.922Z" transform="translate(-2108.073 -81.724)" fill="#c8102c"/>
      <path id="패스_4505" data-name="패스 4505" d="M2206.123,81.724,2173.2,114.646h-4.495l32.924-32.922Z" transform="translate(-2124.687 -81.724)" fill="#c8102c"/>
      <path id="패스_4506" data-name="패스 4506" d="M2240.308,81.724l-32.923,32.922h-4.494l32.923-32.922Z" transform="translate(-2141.302 -81.724)" fill="#c8102c"/>
      <path id="패스_4507" data-name="패스 4507" d="M2274.493,81.724l-32.924,32.922h-4.494L2270,81.724Z" transform="translate(-2157.916 -81.724)" fill="#c8102c"/>
      <path id="패스_4508" data-name="패스 4508" d="M2308.678,81.724l-32.923,32.922h-4.494l32.923-32.922Z" transform="translate(-2174.531 -81.724)" fill="#c8102c"/>
      <path id="패스_4509" data-name="패스 4509" d="M2342.864,81.724l-32.924,32.922h-4.494l32.924-32.922Z" transform="translate(-2191.145 -81.724)" fill="#c8102c"/>
      <path id="패스_4510" data-name="패스 4510" d="M2377.05,81.724l-32.923,32.922h-4.493l32.922-32.922Z" transform="translate(-2207.761 -81.724)" fill="#c8102c"/>
      <path id="패스_4511" data-name="패스 4511" d="M2404.415,86.252v4.492l-26.1,26.1h-4.491Z" transform="translate(-2224.376 -83.924)" fill="#c8102c"/>
      <path id="패스_4512" data-name="패스 4512" d="M2408,133.461l13.025-13.024v4.491l-8.533,8.533Z" transform="translate(-2240.99 -100.539)" fill="#c8102c"/>
    </g>
    <g id="그룹_5206" data-name="그룹 5206" transform="translate(1957.642 81.724)">
      <path id="패스_4513" data-name="패스 4513" d="M2368.029,81.724l-11.153,11.152V88.382l6.659-6.658Z" transform="translate(-2356.876 -81.724)" fill="#c8102c"/>
      <path id="패스_4514" data-name="패스 4514" d="M2385.6,81.724l-28.724,28.722v-4.493l24.23-24.229Z" transform="translate(-2356.876 -81.724)" fill="#c8102c"/>
      <path id="패스_4515" data-name="패스 4515" d="M2411.565,81.724l-32.922,32.922h-4.495l32.923-32.922Z" transform="translate(-2365.271 -81.724)" fill="#c8102c"/>
      <path id="패스_4516" data-name="패스 4516" d="M2445.751,81.724l-32.923,32.922h-4.494l32.922-32.922Z" transform="translate(-2381.886 -81.724)" fill="#c8102c"/>
      <path id="패스_4517" data-name="패스 4517" d="M2479.937,81.724l-32.924,32.922h-4.494l32.923-32.922Z" transform="translate(-2398.5 -81.724)" fill="#c8102c"/>
      <path id="패스_4518" data-name="패스 4518" d="M2514.122,81.724,2481.2,114.646H2476.7l32.923-32.922Z" transform="translate(-2415.115 -81.724)" fill="#c8102c"/>
      <path id="패스_4519" data-name="패스 4519" d="M2548.307,81.724l-32.923,32.922h-4.494l32.924-32.922Z" transform="translate(-2431.729 -81.724)" fill="#c8102c"/>
      <path id="패스_4520" data-name="패스 4520" d="M2582.491,81.724l-32.923,32.922h-4.494L2578,81.724Z" transform="translate(-2448.344 -81.724)" fill="#c8102c"/>
      <path id="패스_4521" data-name="패스 4521" d="M2616.677,81.724l-32.924,32.922h-4.493l32.924-32.922Z" transform="translate(-2464.959 -81.724)" fill="#c8102c"/>
      <path id="패스_4522" data-name="패스 4522" d="M2650.863,81.724l-32.923,32.922h-4.493l32.922-32.922Z" transform="translate(-2481.573 -81.724)" fill="#c8102c"/>
      <path id="패스_4523" data-name="패스 4523" d="M2678.228,86.252v4.492l-26.1,26.1h-4.491Z" transform="translate(-2498.188 -83.924)" fill="#c8102c"/>
      <path id="패스_4524" data-name="패스 4524" d="M2681.818,133.461l13.025-13.024v4.491l-8.534,8.533Z" transform="translate(-2514.804 -100.539)" fill="#c8102c"/>
    </g>
    <g id="그룹_5207" data-name="그룹 5207" transform="translate(2098.377 81.724)">
      <path id="패스_4525" data-name="패스 4525" d="M2641.842,81.724l-11.153,11.152V88.382l6.659-6.658Z" transform="translate(-2630.689 -81.724)" fill="#c8102c"/>
      <path id="패스_4526" data-name="패스 4526" d="M2659.413,81.724l-28.724,28.722v-4.493l24.23-24.229Z" transform="translate(-2630.689 -81.724)" fill="#c8102c"/>
      <path id="패스_4527" data-name="패스 4527" d="M2685.379,81.724l-32.923,32.922h-4.494l32.924-32.922Z" transform="translate(-2639.083 -81.724)" fill="#c8102c"/>
      <path id="패스_4528" data-name="패스 4528" d="M2719.565,81.724l-32.924,32.922h-4.494l32.923-32.922Z" transform="translate(-2655.699 -81.724)" fill="#c8102c"/>
      <path id="패스_4529" data-name="패스 4529" d="M2753.749,81.724l-32.923,32.922h-4.494l32.923-32.922Z" transform="translate(-2672.313 -81.724)" fill="#c8102c"/>
      <path id="패스_4530" data-name="패스 4530" d="M2787.934,81.724l-32.923,32.922h-4.494l32.923-32.922Z" transform="translate(-2688.928 -81.724)" fill="#c8102c"/>
      <path id="패스_4531" data-name="패스 4531" d="M2822.119,81.724,2789.2,114.646H2784.7l32.924-32.922Z" transform="translate(-2705.542 -81.724)" fill="#c8102c"/>
      <path id="패스_4532" data-name="패스 4532" d="M2856.3,81.724l-32.922,32.922h-4.495l32.923-32.922Z" transform="translate(-2722.157 -81.724)" fill="#c8102c"/>
      <path id="패스_4533" data-name="패스 4533" d="M2890.49,81.724l-32.923,32.922h-4.494L2886,81.724Z" transform="translate(-2738.771 -81.724)" fill="#c8102c"/>
      <path id="패스_4534" data-name="패스 4534" d="M2924.676,81.724l-32.924,32.922h-4.493l32.922-32.922Z" transform="translate(-2755.386 -81.724)" fill="#c8102c"/>
      <path id="패스_4535" data-name="패스 4535" d="M2952.041,86.252v4.492l-26.1,26.1h-4.492Z" transform="translate(-2772.001 -83.924)" fill="#c8102c"/>
      <path id="패스_4536" data-name="패스 4536" d="M2955.631,133.461l13.025-13.024v4.491l-8.534,8.533Z" transform="translate(-2788.617 -100.539)" fill="#c8102c"/>
    </g>
    <g id="그룹_5208" data-name="그룹 5208" transform="translate(2239.112 81.724)">
      <path id="패스_4537" data-name="패스 4537" d="M2915.655,81.724,2904.5,92.876V88.382l6.659-6.658Z" transform="translate(-2904.502 -81.724)" fill="#c8102c"/>
      <path id="패스_4538" data-name="패스 4538" d="M2933.226,81.724,2904.5,110.446v-4.493l24.23-24.229Z" transform="translate(-2904.502 -81.724)" fill="#c8102c"/>
      <path id="패스_4539" data-name="패스 4539" d="M2959.192,81.724l-32.923,32.922h-4.494L2954.7,81.724Z" transform="translate(-2912.897 -81.724)" fill="#c8102c"/>
      <path id="패스_4540" data-name="패스 4540" d="M2993.377,81.724l-32.923,32.922h-4.494l32.922-32.922Z" transform="translate(-2929.512 -81.724)" fill="#c8102c"/>
      <path id="패스_4541" data-name="패스 4541" d="M3027.563,81.724l-32.923,32.922h-4.494l32.923-32.922Z" transform="translate(-2946.126 -81.724)" fill="#c8102c"/>
      <path id="패스_4542" data-name="패스 4542" d="M3061.748,81.724l-32.923,32.922h-4.494l32.923-32.922Z" transform="translate(-2962.741 -81.724)" fill="#c8102c"/>
      <path id="패스_4543" data-name="패스 4543" d="M3095.933,81.724l-32.923,32.922h-4.495l32.925-32.922Z" transform="translate(-2979.355 -81.724)" fill="#c8102c"/>
      <path id="패스_4544" data-name="패스 4544" d="M3130.118,81.724l-32.923,32.922H3092.7l32.924-32.922Z" transform="translate(-2995.97 -81.724)" fill="#c8102c"/>
      <path id="패스_4545" data-name="패스 4545" d="M3164.3,81.724l-32.924,32.922h-4.494l32.924-32.922Z" transform="translate(-3012.585 -81.724)" fill="#c8102c"/>
      <path id="패스_4546" data-name="패스 4546" d="M3198.489,81.724l-32.923,32.922h-4.493l32.922-32.922Z" transform="translate(-3029.2 -81.724)" fill="#c8102c"/>
      <path id="패스_4547" data-name="패스 4547" d="M3225.854,86.252v4.492l-26.1,26.1h-4.492Z" transform="translate(-3045.815 -83.924)" fill="#c8102c"/>
      <path id="패스_4548" data-name="패스 4548" d="M3229.444,133.461l13.025-13.024v4.491l-8.534,8.533Z" transform="translate(-3062.43 -100.539)" fill="#c8102c"/>
    </g>
    <g id="그룹_5209" data-name="그룹 5209" transform="translate(2379.846 81.724)">
      <path id="패스_4549" data-name="패스 4549" d="M3189.468,81.724l-11.153,11.152V88.382l6.659-6.658Z" transform="translate(-3178.315 -81.724)" fill="#c8102c"/>
      <path id="패스_4550" data-name="패스 4550" d="M3207.039,81.724l-28.724,28.722v-4.493l24.231-24.229Z" transform="translate(-3178.315 -81.724)" fill="#c8102c"/>
      <path id="패스_4551" data-name="패스 4551" d="M3233,81.724l-32.923,32.922h-4.494l32.923-32.922Z" transform="translate(-3186.71 -81.724)" fill="#c8102c"/>
      <path id="패스_4552" data-name="패스 4552" d="M3267.19,81.724l-32.923,32.922h-4.494L3262.7,81.724Z" transform="translate(-3203.325 -81.724)" fill="#c8102c"/>
      <path id="패스_4553" data-name="패스 4553" d="M3301.375,81.724l-32.923,32.922h-4.494l32.923-32.922Z" transform="translate(-3219.939 -81.724)" fill="#c8102c"/>
      <path id="패스_4554" data-name="패스 4554" d="M3335.56,81.724l-32.923,32.922h-4.494l32.923-32.922Z" transform="translate(-3236.554 -81.724)" fill="#c8102c"/>
      <path id="패스_4555" data-name="패스 4555" d="M3369.745,81.724l-32.923,32.922h-4.494l32.924-32.922Z" transform="translate(-3253.168 -81.724)" fill="#c8102c"/>
      <path id="패스_4556" data-name="패스 4556" d="M3403.93,81.724l-32.923,32.922h-4.494l32.923-32.922Z" transform="translate(-3269.783 -81.724)" fill="#c8102c"/>
      <path id="패스_4557" data-name="패스 4557" d="M3438.116,81.724l-32.923,32.922H3400.7l32.924-32.922Z" transform="translate(-3286.398 -81.724)" fill="#c8102c"/>
      <path id="패스_4558" data-name="패스 4558" d="M3472.3,81.724l-32.923,32.922h-4.493l32.922-32.922Z" transform="translate(-3303.013 -81.724)" fill="#c8102c"/>
      <path id="패스_4559" data-name="패스 4559" d="M3499.667,86.252v4.492l-26.1,26.1h-4.491Z" transform="translate(-3319.628 -83.924)" fill="#c8102c"/>
      <path id="패스_4560" data-name="패스 4560" d="M3503.257,133.461l13.025-13.024v4.491l-8.534,8.533Z" transform="translate(-3336.243 -100.539)" fill="#c8102c"/>
    </g>
    <g id="그룹_5210" data-name="그룹 5210" transform="translate(2520.582 81.724)">
      <path id="패스_4561" data-name="패스 4561" d="M3463.281,81.724l-11.153,11.152V88.382l6.659-6.658Z" transform="translate(-3452.128 -81.724)" fill="#c8102c"/>
      <path id="패스_4562" data-name="패스 4562" d="M3480.852,81.724l-28.724,28.722v-4.493l24.23-24.229Z" transform="translate(-3452.128 -81.724)" fill="#c8102c"/>
      <path id="패스_4563" data-name="패스 4563" d="M3506.818,81.724l-32.923,32.922H3469.4l32.923-32.922Z" transform="translate(-3460.523 -81.724)" fill="#c8102c"/>
      <path id="패스_4564" data-name="패스 4564" d="M3541,81.724l-32.924,32.922h-4.494l32.923-32.922Z" transform="translate(-3477.138 -81.724)" fill="#c8102c"/>
      <path id="패스_4565" data-name="패스 4565" d="M3575.189,81.724l-32.923,32.922h-4.495l32.923-32.922Z" transform="translate(-3493.752 -81.724)" fill="#c8102c"/>
      <path id="패스_4566" data-name="패스 4566" d="M3609.374,81.724l-32.923,32.922h-4.494l32.922-32.922Z" transform="translate(-3510.367 -81.724)" fill="#c8102c"/>
      <path id="패스_4567" data-name="패스 4567" d="M3643.558,81.724l-32.923,32.922h-4.494l32.924-32.922Z" transform="translate(-3526.981 -81.724)" fill="#c8102c"/>
      <path id="패스_4568" data-name="패스 4568" d="M3677.743,81.724l-32.923,32.922h-4.494l32.923-32.922Z" transform="translate(-3543.596 -81.724)" fill="#c8102c"/>
      <path id="패스_4569" data-name="패스 4569" d="M3711.929,81.724l-32.923,32.922h-4.494l32.923-32.922Z" transform="translate(-3560.211 -81.724)" fill="#c8102c"/>
      <path id="패스_4570" data-name="패스 4570" d="M3746.115,81.724l-32.923,32.922H3708.7l32.922-32.922Z" transform="translate(-3576.826 -81.724)" fill="#c8102c"/>
      <path id="패스_4571" data-name="패스 4571" d="M3773.48,86.252v4.492l-26.1,26.1h-4.492Z" transform="translate(-3593.44 -83.924)" fill="#c8102c"/>
      <path id="패스_4572" data-name="패스 4572" d="M3777.07,133.461l13.025-13.024v4.491l-8.533,8.533Z" transform="translate(-3610.056 -100.539)" fill="#c8102c"/>
    </g>
    <g id="그룹_5211" data-name="그룹 5211" transform="translate(2661.316 81.724)">
      <path id="패스_4573" data-name="패스 4573" d="M3737.094,81.724l-11.153,11.152V88.382l6.659-6.658Z" transform="translate(-3725.941 -81.724)" fill="#c8102c"/>
      <path id="패스_4574" data-name="패스 4574" d="M3754.664,81.724l-28.723,28.722v-4.493l24.23-24.229Z" transform="translate(-3725.941 -81.724)" fill="#c8102c"/>
      <path id="패스_4575" data-name="패스 4575" d="M3780.631,81.724l-32.922,32.922h-4.495l32.923-32.922Z" transform="translate(-3734.336 -81.724)" fill="#c8102c"/>
      <path id="패스_4576" data-name="패스 4576" d="M3814.816,81.724l-32.923,32.922H3777.4l32.922-32.922Z" transform="translate(-3750.951 -81.724)" fill="#c8102c"/>
      <path id="패스_4577" data-name="패스 4577" d="M3849,81.724l-32.923,32.922h-4.494l32.924-32.922Z" transform="translate(-3767.565 -81.724)" fill="#c8102c"/>
      <path id="패스_4578" data-name="패스 4578" d="M3883.186,81.724l-32.923,32.922h-4.494l32.923-32.922Z" transform="translate(-3784.18 -81.724)" fill="#c8102c"/>
      <path id="패스_4579" data-name="패스 4579" d="M3917.371,81.724l-32.923,32.922h-4.494l32.925-32.922Z" transform="translate(-3800.794 -81.724)" fill="#c8102c"/>
      <path id="패스_4580" data-name="패스 4580" d="M3951.557,81.724l-32.923,32.922h-4.495l32.924-32.922Z" transform="translate(-3817.409 -81.724)" fill="#c8102c"/>
      <path id="패스_4581" data-name="패스 4581" d="M3985.742,81.724l-32.924,32.922h-4.494l32.924-32.922Z" transform="translate(-3834.023 -81.724)" fill="#c8102c"/>
      <path id="패스_4582" data-name="패스 4582" d="M4019.928,81.724,3987,114.646h-4.493l32.922-32.922Z" transform="translate(-3850.639 -81.724)" fill="#c8102c"/>
      <path id="패스_4583" data-name="패스 4583" d="M4047.293,86.252v4.492l-26.1,26.1H4016.7Z" transform="translate(-3867.254 -83.924)" fill="#c8102c"/>
      <path id="패스_4584" data-name="패스 4584" d="M4050.883,133.461l13.025-13.024v4.491l-8.533,8.533Z" transform="translate(-3883.869 -100.539)" fill="#c8102c"/>
    </g>
  </g>
</svg>
