<svg xmlns="http://www.w3.org/2000/svg" width="920.18" height="69.976" viewBox="0 0 920.18 69.976">
  <g id="그룹_3174" data-name="그룹 3174" transform="translate(-573.413 -1088.495)">
    <rect id="사각형_762" data-name="사각형 762" width="5.41" height="5.41" transform="translate(864.055 1101.751)" fill="#dc0012"/>
    <rect id="사각형_763" data-name="사각형 763" width="5.41" height="5.41" transform="translate(975.155 1101.751)" fill="#dc0012"/>
    <rect id="사각형_764" data-name="사각형 764" width="5.41" height="5.41" transform="translate(1086.256 1101.751)" fill="#dc0012"/>
    <rect id="사각형_765" data-name="사각형 765" width="5.41" height="5.41" transform="translate(1197.356 1101.751)" fill="#dc0012"/>
    <rect id="사각형_766" data-name="사각형 766" width="5.41" height="5.41" transform="translate(1308.457 1101.751)" fill="#dc0012"/>
    <rect id="사각형_767" data-name="사각형 767" width="5.41" height="5.41" transform="translate(1406.831 1101.751)" fill="#dc0012"/>
    <rect id="사각형_768" data-name="사각형 768" width="7.371" height="25.796" transform="translate(1486.222 1088.495)" fill="#dc0012"/>
    <rect id="사각형_769" data-name="사각형 769" width="5.41" height="5.41" transform="translate(1134.325 1158.47) rotate(180)" fill="#dc0012"/>
    <rect id="사각형_770" data-name="사각형 770" width="5.41" height="5.41" transform="translate(1023.225 1158.47) rotate(180)" fill="#dc0012"/>
    <rect id="사각형_771" data-name="사각형 771" width="5.41" height="5.41" transform="translate(912.124 1158.47) rotate(180)" fill="#dc0012"/>
    <rect id="사각형_772" data-name="사각형 772" width="5.41" height="5.41" transform="translate(801.024 1158.47) rotate(180)" fill="#dc0012"/>
    <rect id="사각형_773" data-name="사각형 773" width="5.41" height="5.41" transform="translate(710.525 1158.47) rotate(180)" fill="#dc0012"/>
    <rect id="사각형_774" data-name="사각형 774" width="5.41" height="5.41" transform="translate(578.823 1158.47) rotate(180)" fill="#dc0012"/>
  </g>
</svg>
