<?xml version="1.0" encoding="utf-8"?>
<!-- Generator: Adobe Illustrator 26.5.0, SVG Export Plug-In . SVG Version: 6.00 Build 0)  -->
<svg version="1.1" id="레이어_1" xmlns="http://www.w3.org/2000/svg" xmlns:xlink="http://www.w3.org/1999/xlink" x="0px"
	 y="0px" viewBox="0 0 988.1 471.7" style="enable-background:new 0 0 988.1 471.7;" xml:space="preserve">
<style type="text/css">
	.st0{opacity:0.3;}
	.st1{fill:#FF0055;}
</style>
<g id="그룹_5226" transform="translate(1051.436 8481.549)" class="st0">
	<g id="그룹_2955" transform="translate(-178.223 653.356)">
		<g id="그룹_2950" transform="translate(0 0)">
			<g id="그룹_2949">
				<path id="패스_2448" class="st1" d="M-783.9-8665.2H-849l-24.2-24.2l0.8-156.9l205.4-205.4v-49.6l19-19h254.5l37.7,37.7v135
					l77.4,77.4v57.6l-17,17h-70.2l-105-105h-77.8L-783.9-8665.2z M-848.7-8666h64.5l235.4-235.4h78.5l105,105h69.5l16.5-16.5v-57
					l-77.4-77.4v-135l-37.2-37.2h-253.8l-18.5,18.5v49.6L-871.7-8846l-0.8,156.2L-848.7-8666z"/>
				<path id="패스_2449" class="st1" d="M-343.8-8663.2h-353.4l-17-17v-24.1l178.3-178.3h55.3l152.4,152.4v51.6L-343.8-8663.2z
					 M-696.8-8664h352.7l15.1-15.1v-50.9L-481-8881.9h-54.6l-177.8,177.8v23.5L-696.8-8664z"/>
				<path id="패스_2450" class="st1" d="M38-8664.1h-0.2l-255.5-1.5l-24.6-24.6v-187.8l30-30v-122.1l-29.5-29.5v-44.2l14-14h153.2
					l12.9,12.9v171.9l171.3,171.3v26L38-8664.1z M-217.3-8666.4l255,1.5l71.2-71.2v-25.3l-171.3-171.3v-171.9l-12.4-12.4h-152.6
					l-13.5,13.5v43.5l29.5,29.5v122.8l-30,30v187.1L-217.3-8666.4z"/>
				<path id="패스_2451" class="st1" d="M103.1-8847.4H79.5l-107.4-107.4v-148.1l14.8-14.8H31l9.3,9.3v88.3l74.6,74.6v86.3
					L103.1-8847.4z M79.9-8848.2h22.9l11.4-11.4v-85.6l-74.6-74.6v-88.3l-8.9-8.9h-43.4l-14.4,14.4v147.5L79.9-8848.2z"/>
			</g>
		</g>
	</g>
</g>
</svg>
