<svg xmlns="http://www.w3.org/2000/svg" width="245.141" height="44.366" viewBox="0 0 245.141 44.366">
  <g id="그룹_5306" data-name="그룹 5306" transform="translate(8800.209 193.589)">
    <g id="그룹_2106" data-name="그룹 2106" transform="translate(-8800.209 -193.589)">
      <path id="패스_393" data-name="패스 393" d="M548.8,229.172a23.6,23.6,0,0,0,3,1.678c10.585,4.645,26.067,7.476,29.08,6.5,8.147-2.64,17.265-19.916,20.134-27.884,0,0-8.559,3.408-17.241,7.478-7.254,3.4-11.657,5.582-13.729,6.627-.225.092-.364.147-.424.171l.371-.143c-.935.472-1.378.7-1.378.7l24.746-7.5-4.546,1.4s-5.419,12.736-12.468,14.154-19.572-3.535-19.589-3.542c1.035-.794,14.071-10.576,44.943-23.174l.123-.037c1.017-.416,2.406-2.818,2.447-4.182a63.781,63.781,0,0,0-20.559,5.941C570.718,213.563,548.8,229.172,548.8,229.172Zm30.357,4.7h0c-.207.076-.412.145-.617.2C578.747,234.016,578.953,233.947,579.16,233.871Zm16.583-26.333q2.846-1.019,5.677-1.817Q598.586,206.535,595.744,207.537Z" transform="translate(-521.574 -194.025)" fill="#fff"/>
      <path id="패스_394" data-name="패스 394" d="M591.11,246.823l-.036.014Z" transform="translate(-543.064 -217.109)" fill="#fff"/>
      <path id="패스_395" data-name="패스 395" d="M493.414,226.2s.007.017.016.042l-.016-.015a.312.312,0,0,0,.023.03c.235.628,2.431,6.408,4.68,9.306,2.208,2.85,11.128,5.07,12.384,5.371l.152.066-.062-.045.062.016C504.989,236.993,493.414,226.2,493.414,226.2Z" transform="translate(-493.414 -206.623)" fill="#fff"/>
      <path id="패스_396" data-name="패스 396" d="M529.908,222.408c-.805-1.539.193-3.578,6.778-8.45,5.952-4.407,27.389-22.429,47.894-27.268,0,0-10.751-1.753-26.112,3.078-5.478,1.721-13.544,9.388-28.3,23.836-2.008,1.119-9.212-3.016-13.351-5.007,0,0,6.883,10.883,9.29,14.143,3.737,5.071,10.464,8.006,10.464,8.006l-.058-.061C535.95,230.083,531.361,225.172,529.908,222.408Z" transform="translate(-505.315 -186.38)" fill="#fff"/>
      <path id="패스_397" data-name="패스 397" d="M797.581,202.329H793.83V213.2h-6.8V202.327h-3.77v12.747l14.324,0Z" transform="translate(-640.77 -194.487)" fill="#fff"/>
      <path id="패스_398" data-name="패스 398" d="M861.286,213.177h-9.2v-10.8h-3.78v12.679h11.263Z" transform="translate(-673.84 -194.513)" fill="#fff"/>
      <rect id="사각형_179" data-name="사각형 179" width="3.791" height="12.722" transform="translate(188.953 7.864)" fill="#fff"/>
      <path id="패스_399" data-name="패스 399" d="M967.51,204.24l8.423,0,1.728-1.862H963.728v12.675h3.782v-6.218h8.127l1.577-1.878-9.7,0Z" transform="translate(-732.52 -194.513)" fill="#fff"/>
      <path id="패스_400" data-name="패스 400" d="M755.291,210.949h10.2v-7.634a.976.976,0,0,0-.917-.986l-13.092,0v12.66h3.813Zm-.028-6.748h6.122c.091,0,.336,0,.336.556v4.307h-6.459Z" transform="translate(-624.613 -194.488)" fill="#fff"/>
      <path id="패스_401" data-name="패스 401" d="M829.767,207.187h-1.11v-3.7c0-.712-.361-1.171-.924-1.171H815.861v12.667l13.9,0Zm-3.791,5.917h-6.328v-4.053h6.328Zm0-5.933h-6.328V204.2h5.995c.327,0,.334.493.334.549Z" transform="translate(-657.345 -194.484)" fill="#fff"/>
      <path id="패스_402" data-name="패스 402" d="M722.934,213.114v-3.478h9.578v-2h-9.578V204.2h8.5l1.9-1.874H719.162V214.99h14.174l-1.9-1.876Z" transform="translate(-608.184 -194.487)" fill="#fff"/>
      <path id="패스_403" data-name="패스 403" d="M893.494,204.231h8.5l1.9-1.88H889.681l0,12.651,12.327,0,1.9-1.88H893.494Z" transform="translate(-694.875 -194.5)" fill="#fff"/>
      <path id="패스_404" data-name="패스 404" d="M863.535,244.5l1.694-1.893h-14.5v6.924h10.454l0,3.8H850.262l2.351,1.965H865v-7.671h-10.47V244.5Z" transform="translate(-674.835 -214.965)" fill="#fff"/>
      <path id="패스_405" data-name="패스 405" d="M730.309,242.62l-13.479,0v12.689h3.836v-5.4h6.768v5.4h3.791l0-11.515C731.23,243.228,730.877,242.62,730.309,242.62Zm-2.967,5.394h-6.619v-3.506H727c.316,0,.342.424.342.554Z" transform="translate(-606.998 -214.97)" fill="#fff"/>
      <path id="패스_406" data-name="패스 406" d="M789.279,253.451v-3.5h9.631V247.94h-9.631v-3.45h8.543l1.914-1.885h-14.25v12.733h14.253l-1.916-1.887Z" transform="translate(-641.902 -214.965)" fill="#fff"/>
      <path id="패스_407" data-name="패스 407" d="M695.457,244.581l2-1.98-14.981-.006v12.7H696.92v-6.921h-3.791V253.4h-6.818v-8.815Z" transform="translate(-589.533 -214.96)" fill="#fff"/>
      <path id="패스_408" data-name="패스 408" d="M750.332,242.605v12.752h3.814V248.07l3.776,2.564,3.775-2.564v7.288h3.812V242.605l-7.587,5.1Z" transform="translate(-624.031 -214.965)" fill="#fff"/>
      <path id="패스_409" data-name="패스 409" d="M831.781,249.862v-6.087c0-.558-.349-1.17-.915-1.17H817.2v12.688h3.848V244.481l6.669.005c.312,0,.339.422.339.553v2.481l-6.257,0,6.842,7.779h4.489l-4.769-5.422Z" transform="translate(-658.025 -214.965)" fill="#fff"/>
      <path id="패스_410" data-name="패스 410" d="M698.242,211.28V203.5c0-.553.029-1.183-.757-1.183H682.477v8.875l3.962,4.326V204.211h7.235c.47,0,.582.188.582.652v4.055h-6.4l10.412,10.931v-4.287l-3.951-4.281Z" transform="translate(-589.533 -194.484)" fill="#fff"/>
      <path id="패스_411" data-name="패스 411" d="M944.12,202.351h-12.8v9.176l3.09,3.515h10.618v-11.7A.949.949,0,0,0,944.12,202.351Zm-2.889,10.792H937.21l-2.1-2.427v-6.467h6.122Z" transform="translate(-716.043 -194.5)" fill="#fff"/>
    </g>
  </g>
</svg>
