<svg xmlns="http://www.w3.org/2000/svg" xmlns:xlink="http://www.w3.org/1999/xlink" width="1920" height="150.676" viewBox="0 0 1920 150.676">
  <defs>
    <clipPath id="clip-path">
      <rect id="사각형_2704" data-name="사각형 2704" width="1920" height="150.676" transform="translate(-12725 11718)" fill="#fff" stroke="#707070" stroke-width="1"/>
    </clipPath>
  </defs>
  <g id="마스크_그룹_39" data-name="마스크 그룹 39" transform="translate(12725 -11718)" clip-path="url(#clip-path)">
    <path id="합치기_17" data-name="합치기 17" d="M610.847,150.676,564.8,91.475h-18.37L73.617,92.905l32.6-32.6H306.893l36.324-36.324H605.759L631.3,49.524h176.7l39.655,39.655h431.5l39.655-39.655h176.7l25.543-25.542H1783.6l36.325,36.324H2020.6l32.6,32.6L1522.153,91.3v.176H1485.7l-46.045,59.2ZM1029.29,65.224,1015.335,51.27h159.831l10.349-10.349h112.973l-.342,10.263L1284.1,65.224Zm-38.948-.146s-13.3-13.606-13.607-13.606h29.375l13.752,13.752Zm-37.339,0S939.7,51.472,939.4,51.472h29.375l13.752,13.752Zm-37.339,0s-13.3-13.606-13.607-13.606h29.374l13.753,13.752Zm-37.341,0s-13.3-13.606-13.606-13.606h29.374l13.752,13.752Zm-37.34,0s-13.3-13.606-13.607-13.606h29.375L870.5,65.224Zm-555.2-11.59V27.818h13.972v25.67Zm-17.861,0V27.818H281.9v25.67Zm-17.862,0V27.818h13.971v25.67Zm-17.862,0V27.818h13.972v25.67Zm-17.862,0V27.818H228.31v25.67Zm-17.861,0V27.818H210.45v25.67Zm-17.862,0V27.818h13.972v25.67Zm-17.86,0V27.818h13.971v25.67Zm-17.861,0V27.818h13.971v25.67Zm-17.862,0V27.818H139v25.67Zm-17.86,0V27.818h13.971v25.67Zm-17.862,0V27.818H103.28v25.67Zm-17.862,0V27.818H85.418v25.67Zm-17.861,0V27.818h13.97v25.67Zm-17.861,0V27.818H49.694v25.67Zm-17.862,0V27.818H31.832v25.67ZM0,53.488V27.818H13.971v25.67Zm2191.037-5.523,11.04-11.04h22.9l-11.04,11.04Zm-39.344,0,11.04-11.04h22.9l-11.04,11.04Zm-39.344,0,11.041-11.04h22.9l-11.041,11.04Zm-39.343,0,11.041-11.04h22.9l-11.04,11.04Zm-39.343,0,11.04-11.04h22.9l-11.04,11.04Zm-39.344,0,11.04-11.04h22.9l-11.04,11.04Zm-164.13-1.2-8.636-9.111H1976.97s21.563-20.875,20.875-20.875h113.983l7.762-9.234h87.537l23.755,23.753h-114a18.611,18.611,0,0,1-3.048-2.771H1994.76l-18.238,18.239Zm496.192-1.4-28.611-28.612-1.432-1.379H2224.98V13.928h68.406l-.553-.267H2325l26.079,26.079h71.42l5.513,5.514h-2.994v.314c-32.745.121-54.591.169-69.172.169C2326.758,45.738,2326.568,45.545,2326.381,45.357Zm-396-16.062V0h29.3V29.3Zm-49.165,0V0h29.295V29.3Zm-49.164,0V0h29.3V29.3ZM290.543,21.407V13.123h1.535v8.285Zm-14.9,0V13.123h1.535v8.285Zm-14.9,0V13.123h1.535v8.285Zm-14.9,0V13.123h1.535v8.285Zm-14.9,0V13.123h1.535v8.285Zm-14.9,0V13.123h1.535v8.285Zm-14.9,0V13.123h1.535v8.285Zm-14.9,0V13.123h1.535v8.285Zm-14.9,0V13.123h1.535v8.285Zm-14.9,0V13.123h1.535v8.285Zm-14.9,0V13.123h1.534v8.285Zm-14.9,0V13.123h1.535v8.285Zm-14.9,0V13.123h1.535v8.285Zm-14.9,0V13.123h1.535v8.285Zm-14.9,0V13.123h1.535v8.285Zm-14.9,0V13.123H68.56v8.285Zm-14.9,0V13.123H53.66v8.285Zm-14.9,0V13.123h1.535v8.285Zm-14.9,0V13.123h1.535v8.285Zm-14.9,0V13.123H8.956v8.285Zm1990.425-4.632Z" transform="translate(-12810.554 11718)" fill="#c8102c" stroke="rgba(0,0,0,0)" stroke-miterlimit="10" stroke-width="1"/>
  </g>
</svg>
