<?xml version="1.0" encoding="UTF-8"?><svg id="_레이어_1" xmlns="http://www.w3.org/2000/svg" viewBox="0 0 1920 150.68"><defs><style>.cls-1{fill:none;}</style></defs><path class="cls-1" d="M200.23,27.82v25.67h13.97V27.82h-13.97Zm4.76-14.7v8.29h1.53V13.12h-1.53Zm-22.62,14.7v25.67h13.98V27.82h-13.98Zm7.72-14.7v8.29h1.53V13.12h-1.53Zm-14.9,0v8.29h1.53V13.12h-1.53Zm-14.9,0v8.29h1.53V13.12h-1.53Zm-14.9,0v8.29h1.53V13.12h-1.53Zm-14.9,0v8.29h1.53V13.12h-1.53Zm-14.9,0v8.29h1.53V13.12h-1.53ZM39.48,27.82v25.67h13.97V27.82h-13.97Zm-17.86,0v25.67h13.97V27.82h-13.97Z"/><path d="M1920,0h-45.87V29.3h-29.3V0h-19.87V29.3h-29.3V0h-19.86V29.3h-29.3V0H0V60.31H221.34l36.32-36.33h262.55l25.54,25.54h176.7l39.65,39.66h431.5l39.66-39.66h176.7l25.54-25.54h262.55l36.32,36.33h185.63v-12.34h-11.23l11.04-11.05h.19v-8.39h-10.79l-18.24,18.24h-146.33s-8.64-9.12-8.64-9.12h155.42s21.56-20.87,20.87-20.87h7.71V0ZM11.29,13.12h1.53v8.29h-1.53V13.12Zm6.44,40.37H3.75V27.82h13.98v25.67ZM204.99,13.12h1.53v8.29h-1.53V13.12Zm-14.9,0h1.53v8.29h-1.53V13.12Zm-14.9,0h1.53v8.29h-1.53V13.12Zm-44.7,0h1.53v8.29h-1.53V13.12Zm-14.9,0h1.53v8.29h-1.53V13.12Zm-14.9,0h1.53v8.29h-1.53V13.12Zm-14.9,0h1.53v8.29h-1.53V13.12Zm-44.7,0h1.53v8.29h-1.53V13.12Zm-14.9,0h1.53v8.29h-1.53V13.12Zm9.4,40.37h-13.97V27.82h13.97v25.67Zm17.86,0h-13.97V27.82h13.97v25.67Zm2.54-40.37h1.53v8.29h-1.53V13.12Zm15.32,40.37h-13.97V27.82h13.97v25.67Zm1.11-32.08h-1.53V13.12h1.53v8.29Zm16.75,32.08h-13.97V27.82h13.97v25.67Zm17.86,0h-13.97V27.82h13.97v25.67Zm17.87,0h-13.98V27.82h13.98v25.67Zm17.86,0h-13.98V27.82h13.98v25.67Zm2.63-40.37h1.53v8.29h-1.53V13.12Zm15.23,40.37h-13.98V27.82h13.98v25.67Zm1.2-32.08h-1.53V13.12h1.53v8.29Zm16.66,32.08h-13.97V27.82h13.97v25.67Zm17.87,0h-13.98V27.82h13.98v25.67Zm17.85,0h-13.97V27.82h13.97v25.67Zm541.23,11.59s-13.3-13.61-13.61-13.61h29.38l13.75,13.75-29.52-.14Zm37.34,0s-13.3-13.61-13.61-13.61h29.38l13.75,13.75-29.52-.14Zm37.34,0s-13.3-13.61-13.61-13.61h29.38l13.75,13.75-29.52-.14Zm37.34,0s-13.3-13.61-13.6-13.61h29.37l13.75,13.75-29.52-.14Zm37.34,0s-13.3-13.61-13.61-13.61h29.38l13.75,13.75-29.52-.14Zm307.8-13.9l-14.04,14.04h-254.81l-13.96-13.95h159.83l10.35-10.35h112.97l-.34,10.26Z"/></svg>