<svg id="그룹_5308" data-name="그룹 5308" xmlns="http://www.w3.org/2000/svg" width="25.316" height="25.007" viewBox="0 0 25.316 25.007">
  <path id="패스_4622" data-name="패스 4622" d="M260.4-215.648H249.417a7.172,7.172,0,0,1-7.165-7.163V-233.49a7.172,7.172,0,0,1,7.165-7.165H260.4a7.172,7.172,0,0,1,7.165,7.165v10.679A7.172,7.172,0,0,1,260.4-215.648Zm-10.987-22.691a4.855,4.855,0,0,0-4.849,4.849v10.679a4.855,4.855,0,0,0,4.849,4.848H260.4a4.854,4.854,0,0,0,4.848-4.848V-233.49a4.854,4.854,0,0,0-4.848-4.849Z" transform="translate(-242.252 240.655)" fill="#fff"/>
  <path id="패스_4623" data-name="패스 4623" d="M260.273-216.362a6.568,6.568,0,0,1-6.562-6.562,6.568,6.568,0,0,1,6.562-6.562,6.568,6.568,0,0,1,6.562,6.562A6.568,6.568,0,0,1,260.273-216.362Zm0-10.808a4.252,4.252,0,0,0-4.247,4.246,4.251,4.251,0,0,0,4.247,4.246,4.251,4.251,0,0,0,4.246-4.246A4.251,4.251,0,0,0,260.273-227.17Z" transform="translate(-247.615 235.428)" fill="#fff"/>
  <path id="패스_4624" data-name="패스 4624" d="M279-231.084a1.544,1.544,0,0,1-1.545,1.544,1.543,1.543,0,0,1-1.543-1.544,1.544,1.544,0,0,1,1.543-1.543A1.544,1.544,0,0,1,279-231.084Z" transform="translate(-258.007 236.898)" fill="#fff"/>
</svg>
