<svg xmlns="http://www.w3.org/2000/svg" width="36.78" height="19.732" viewBox="0 0 36.78 19.732">
  <g id="그룹_5302" data-name="그룹 5302" transform="translate(3512.209 -13384.293)">
    <path id="패스_393" data-name="패스 393" d="M548.8,213.762a10.493,10.493,0,0,0,1.333.746c4.708,2.066,11.594,3.325,12.934,2.89,3.624-1.174,7.679-8.858,8.955-12.4,0,0-3.807,1.516-7.668,3.326-3.226,1.513-5.185,2.483-6.106,2.948l-.188.076.165-.064c-.416.21-.613.313-.613.313l11.006-3.336-2.022.622s-2.41,5.665-5.545,6.3-8.705-1.572-8.712-1.575c.46-.353,6.258-4.7,19.989-10.307l.055-.017a2.738,2.738,0,0,0,1.088-1.86,28.368,28.368,0,0,0-9.144,2.642C558.55,206.819,548.8,213.762,548.8,213.762Zm13.5,2.09h0c-.092.034-.183.064-.275.089C562.121,215.916,562.213,215.886,562.3,215.852Zm7.376-11.712q1.266-.453,2.525-.808Q570.945,203.694,569.681,204.14Z" transform="translate(-4048.901 13186.163)" fill="#fff"/>
    <path id="패스_394" data-name="패스 394" d="M591.09,246.823l-.016.006Z" transform="translate(-4081.93 13150.686)" fill="#fff"/>
    <path id="패스_395" data-name="패스 395" d="M493.414,226.2l.007.019-.007-.007a.14.14,0,0,0,.01.014,19.793,19.793,0,0,0,2.082,4.139c.982,1.268,4.949,2.255,5.508,2.389l.068.03-.028-.02.028.007C498.562,231,493.414,226.2,493.414,226.2Z" transform="translate(-4005.623 13166.802)" fill="#fff"/>
    <path id="패스_396" data-name="패스 396" d="M522.642,202.4c-.358-.685.086-1.592,3.015-3.758,2.647-1.96,12.182-9.976,21.3-12.128a27.585,27.585,0,0,0-11.614,1.369c-2.436.765-6.024,4.175-12.585,10.6-.893.5-4.1-1.341-5.938-2.227,0,0,3.062,4.84,4.132,6.29a13.1,13.1,0,0,0,4.654,3.561l-.026-.027A24.737,24.737,0,0,1,522.642,202.4Z" transform="translate(-4023.913 13197.912)" fill="#fff"/>
  </g>
</svg>
