<svg xmlns="http://www.w3.org/2000/svg" width="27.526" height="19.196" viewBox="0 0 27.526 19.196">
  <path id="패스_4625" data-name="패스 4625" d="M349.029-297.111a4.165,4.165,0,0,0-4.165-4.165s-3.8-.362-9.235-.362-9.6.362-9.6.362a4.165,4.165,0,0,0-4.165,4.165s-.181,2.329-.181,5.126.181,5.015.181,5.015a4.165,4.165,0,0,0,4.165,4.165s5.331.362,9.327.362,9.507-.362,9.507-.362a4.165,4.165,0,0,0,4.165-4.165s.181-2.219.181-5.015S349.029-297.111,349.029-297.111Zm-15.845,9.236v-8.33l6.881,4.074Z" transform="translate(-321.684 301.638)" fill="#fff"/>
</svg>
