<?xml version="1.0" encoding="UTF-8"?><svg id="_레이어_1" xmlns="http://www.w3.org/2000/svg" viewBox="0 0 150.6 275.69"><defs><style>.cls-1{fill:#c8102c;}</style></defs><g id="_그룹_6541"><g id="_그룹_6023"><rect id="_사각형_1414-2" class="cls-1" x="4.1" y="-.11" width="5.5" height="275.7"/><path id="_패스_5021-2" class="cls-1" d="M4.1-.11h.1V6.89l3.7,4.3V88.29l-3.7,4.3v3.4h-.1V-.11Z"/><path id="_패스_5022-2" class="cls-1" d="M4.2,275.69l-2.6-3.8v-16.5l-1.6-2.4v-24.4l2.3-3.4v-18.7l2.1-3-.2,72.2Z"/><path id="_패스_5023-2" class="cls-1" d="M4.2-.11L1.6,3.69V20.09l-1.6,2.4v24.4l2.3,3.4v18.7l2.1,3L4.2-.11Z"/><path id="_패스_5050-2" class="cls-1" d="M1.7,114.79v-10.5l.7-1v-14.9l.9,1.3v23.7l-.9,1.3-.7,.1Z"/><path id="_패스_5051-2" class="cls-1" d="M2.6,142.89l-.9-1.3v-2.7l.9,1.3v2.7Z"/><path id="_패스_5052-2" class="cls-1" d="M2.6,148.09l-.9-1.3v-2.7l.9,1.3v2.7Z"/><path id="_패스_5053-2" class="cls-1" d="M2.6,153.29l-.9-1.3v-2.7l.9,1.3v2.7Z"/><path id="_패스_5054-2" class="cls-1" d="M2.6,158.59l-.9-1.3v-2.7l.9,1.3v2.7Z"/><path id="_패스_5055-2" class="cls-1" d="M2.6,163.79l-.9-1.3v-2.7l.9,1.3v2.7Z"/></g><g id="_그룹_6032"><path id="_패스_5113-2" class="cls-1" d="M9.6-.02V2.08L150.5-.02H9.6Z"/><path id="_패스_5114-2" class="cls-1" d="M9.6,275.68v-2.1l140.9,2.1H9.6Z"/></g></g></svg>