<?xml version="1.0" encoding="utf-8"?>
<!-- Generator: Adobe Illustrator 26.5.0, SVG Export Plug-In . SVG Version: 6.00 Build 0)  -->
<svg version="1.1" id="레이어_1" xmlns="http://www.w3.org/2000/svg" xmlns:xlink="http://www.w3.org/1999/xlink" x="0px"
	 y="0px" viewBox="0 0 150.6 275.7" style="enable-background:new 0 0 150.6 275.7;" xml:space="preserve">
<style type="text/css">
	.st0{fill:#C8102C;}
	.st1{fill:none;stroke:#000000;stroke-miterlimit:10;}
</style>
<g id="그룹_6541" transform="translate(-1622.535 -6297)">
	<g id="그룹_6023" transform="translate(1803.032 6327) rotate(90)">
		<g transform="matrix(0, -1, 1, 0, -30, 180.5)">
			<rect id="사각형_1414-2" x="140.9" y="-0.1" class="st0" width="5.5" height="275.7"/>
		</g>
		<g transform="matrix(0, -1, 1, 0, -30, 180.5)">
			<path id="패스_5021-2" class="st0" d="M146.4-0.1h-0.1v7l-3.7,4.3v77.1l3.7,4.3V96h0.1V-0.1z"/>
		</g>
		<g transform="matrix(0, -1, 1, 0, -30, 180.5)">
			<path id="패스_5022-2" class="st0" d="M146.3,275.7l2.6-3.8v-16.5l1.6-2.4v-24.4l-2.3-3.4v-18.7l-2.1-3L146.3,275.7z"/>
		</g>
		<g transform="matrix(0, -1, 1, 0, -30, 180.5)">
			<path id="패스_5023-2" class="st0" d="M146.3-0.1l2.6,3.8v16.4l1.6,2.4v24.4l-2.3,3.4V69l-2.1,3L146.3-0.1z"/>
		</g>
		<g transform="matrix(0, -1, 1, 0, -30, 180.5)">
			<path id="패스_5050-2" class="st0" d="M148.8,114.8v-10.5l-0.7-1V88.4l-0.9,1.3v23.7l0.9,1.3L148.8,114.8z"/>
		</g>
		<g transform="matrix(0, -1, 1, 0, -30, 180.5)">
			<path id="패스_5051-2" class="st0" d="M147.9,142.9l0.9-1.3v-2.7l-0.9,1.3V142.9z"/>
		</g>
		<g transform="matrix(0, -1, 1, 0, -30, 180.5)">
			<path id="패스_5052-2" class="st0" d="M147.9,148.1l0.9-1.3v-2.7l-0.9,1.3V148.1z"/>
		</g>
		<g transform="matrix(0, -1, 1, 0, -30, 180.5)">
			<path id="패스_5053-2" class="st0" d="M147.9,153.3l0.9-1.3v-2.7l-0.9,1.3V153.3z"/>
		</g>
		<g transform="matrix(0, -1, 1, 0, -30, 180.5)">
			<path id="패스_5054-2" class="st0" d="M147.9,158.6l0.9-1.3v-2.7l-0.9,1.3V158.6z"/>
		</g>
		<g transform="matrix(0, -1, 1, 0, -30, 180.5)">
			<path id="패스_5055-2" class="st0" d="M147.9,163.8l0.9-1.3v-2.7l-0.9,1.3V163.8z"/>
		</g>
	</g>
	<g id="그룹_6032" transform="translate(1652.535 6602.716) rotate(-90)">
		<g transform="matrix(0, 1, -1, 0, 305.72, -30)">
			<path id="패스_5113-2" class="st0" d="M140.9,0v2.1L0,0l0,0H140.9z"/>
		</g>
		<g transform="matrix(0, 1, -1, 0, 305.72, -30)">
			<path id="패스_5114-2" class="st0" d="M140.9,275.7v-2.1L0,275.7l0,0H140.9z"/>
		</g>
	</g>
</g>
<path class="st1" d="M432,386.4c0-0.3,0-0.7,0-1"/>
</svg>
