<svg xmlns="http://www.w3.org/2000/svg" width="285.543" height="328.118" viewBox="0 0 285.543 328.118">
  <g id="그룹_6439" data-name="그룹 6439" transform="translate(-817.229 -10283.66)">
    <g id="사각형_2511" data-name="사각형 2511" transform="translate(817.229 10289.348)" fill="rgba(255,255,255,0.1)" stroke="rgba(255,255,255,0.1)" stroke-width="1">
      <rect width="285.541" height="308.868" stroke="none"/>
      <rect x="0.5" y="0.5" width="284.541" height="307.868" fill="none"/>
    </g>
    <rect id="사각형_1414" data-name="사각형 1414" width="285.541" height="17.905" transform="translate(1102.771 10605.496) rotate(180)" fill="#c8102c"/>
    <path id="패스_5022" data-name="패스 5022" d="M74.7,6.414,70.748,2.461H53.725L51.264,0H25.972l-3.5,3.5H3.14L0,6.64Z" transform="translate(891.931 10611.777) rotate(180)" fill="#c8102c"/>
    <path id="패스_5023" data-name="패스 5023" d="M0,6.414,3.953,2.461H20.976L23.437,0H48.729l3.5,3.5H71.56L74.7,6.64Z" transform="translate(1102.771 10611.777) rotate(180)" fill="#c8102c"/>
    <path id="패스_5050" data-name="패스 5050" d="M27.278,0H16.394l-1,1H0L1.344,2.341H25.892L27.245.989Z" transform="translate(1011.125 10609.129) rotate(180)" fill="#c8102c"/>
    <path id="패스_5051" data-name="패스 5051" d="M4.155,1.325,2.83,0H0C.03,0,1.311,1.311,1.311,1.311Z" transform="translate(958.93 10609.129) rotate(180)" fill="#c8102c"/>
    <path id="패스_5052" data-name="패스 5052" d="M4.155,1.325,2.83,0H0C.03,0,1.311,1.311,1.311,1.311Z" transform="translate(953.504 10609.129) rotate(180)" fill="#c8102c"/>
    <path id="패스_5053" data-name="패스 5053" d="M4.155,1.325,2.83,0H0C.03,0,1.311,1.311,1.311,1.311Z" transform="translate(948.078 10609.129) rotate(180)" fill="#c8102c"/>
    <path id="패스_5054" data-name="패스 5054" d="M4.155,1.325,2.83,0H0C.03,0,1.311,1.311,1.311,1.311Z" transform="translate(942.652 10609.129) rotate(180)" fill="#c8102c"/>
    <path id="패스_5055" data-name="패스 5055" d="M4.155,1.325,2.83,0H0C.03,0,1.311,1.311,1.311,1.311Z" transform="translate(937.227 10609.129) rotate(180)" fill="#c8102c"/>
    <path id="패스_5128" data-name="패스 5128" d="M2.153,0H0L2.153,313.9h0Z" transform="translate(819.396 10597.631) rotate(180)" fill="#c8102c"/>
    <path id="패스_5129" data-name="패스 5129" d="M0,0H2.153L0,313.9H0Z" transform="translate(1102.771 10597.564) rotate(180)" fill="#c8102c"/>
  </g>
</svg>
