<svg xmlns="http://www.w3.org/2000/svg" width="596.869" height="30.622" viewBox="0 0 596.869 30.622">
  <g id="그룹_3385" data-name="그룹 3385" transform="translate(0.707 0.707)">
    <g id="그룹_3384" data-name="그룹 3384" transform="translate(0)">
      <line id="선_237" data-name="선 237" y1="29.208" x2="29.208" fill="none" stroke="#cb0015" stroke-miterlimit="10" stroke-width="2"/>
      <line id="선_238" data-name="선 238" y1="29.208" x2="29.208" transform="translate(5.024)" fill="none" stroke="#cb0015" stroke-miterlimit="10" stroke-width="2"/>
      <line id="선_239" data-name="선 239" y1="29.208" x2="29.208" transform="translate(10.047)" fill="none" stroke="#cb0015" stroke-miterlimit="10" stroke-width="2"/>
      <line id="선_240" data-name="선 240" y1="29.208" x2="29.208" transform="translate(15.071)" fill="none" stroke="#cb0015" stroke-miterlimit="10" stroke-width="2"/>
      <line id="선_241" data-name="선 241" y1="29.208" x2="29.208" transform="translate(20.094)" fill="none" stroke="#cb0015" stroke-miterlimit="10" stroke-width="2"/>
      <line id="선_242" data-name="선 242" y1="29.208" x2="29.208" transform="translate(25.118)" fill="none" stroke="#cb0015" stroke-miterlimit="10" stroke-width="2"/>
      <line id="선_243" data-name="선 243" y1="29.208" x2="29.208" transform="translate(30.142)" fill="none" stroke="#cb0015" stroke-miterlimit="10" stroke-width="2"/>
      <line id="선_244" data-name="선 244" y1="29.208" x2="29.208" transform="translate(35.165)" fill="none" stroke="#cb0015" stroke-miterlimit="10" stroke-width="2"/>
      <line id="선_245" data-name="선 245" y1="29.208" x2="29.208" transform="translate(40.189)" fill="none" stroke="#cb0015" stroke-miterlimit="10" stroke-width="2"/>
      <line id="선_246" data-name="선 246" y1="29.208" x2="29.208" transform="translate(45.213)" fill="none" stroke="#cb0015" stroke-miterlimit="10" stroke-width="2"/>
      <line id="선_247" data-name="선 247" y1="29.208" x2="29.208" transform="translate(50.236)" fill="none" stroke="#cb0015" stroke-miterlimit="10" stroke-width="2"/>
      <line id="선_248" data-name="선 248" y1="29.208" x2="29.208" transform="translate(55.26)" fill="none" stroke="#cb0015" stroke-miterlimit="10" stroke-width="2"/>
      <line id="선_249" data-name="선 249" y1="29.208" x2="29.208" transform="translate(60.283)" fill="none" stroke="#cb0015" stroke-miterlimit="10" stroke-width="2"/>
      <line id="선_250" data-name="선 250" y1="29.208" x2="29.208" transform="translate(65.307)" fill="none" stroke="#cb0015" stroke-miterlimit="10" stroke-width="2"/>
      <line id="선_251" data-name="선 251" y1="29.208" x2="29.208" transform="translate(70.331)" fill="none" stroke="#cb0015" stroke-miterlimit="10" stroke-width="2"/>
    </g>
    <rect id="사각형_924" data-name="사각형 924" width="26.392" height="22.093" transform="translate(31.455 3.6)" fill="none"/>
    <line id="선_286" data-name="선 286" x1="1.212" y1="1.212" transform="translate(71.177 3.605)" fill="none" stroke="#dc0012" stroke-miterlimit="10" stroke-width="2"/>
    <line id="선_287" data-name="선 287" y1="1.212" x2="1.212" transform="translate(82.743 3.605)" fill="none" stroke="#dc0012" stroke-miterlimit="10" stroke-width="2"/>
    <line id="선_288" data-name="선 288" y1="1.212" x2="1.212" transform="translate(94.307 3.605)" fill="none" stroke="#dc0012" stroke-miterlimit="10" stroke-width="2"/>
    <line id="선_289" data-name="선 289" y1="1.212" x2="1.212" transform="translate(71.177 13.733)" fill="none" stroke="#dc0012" stroke-miterlimit="10" stroke-width="2"/>
    <line id="선_290" data-name="선 290" y1="1.212" x2="1.212" transform="translate(82.743 13.733)" fill="none" stroke="#dc0012" stroke-miterlimit="10" stroke-width="2"/>
    <line id="선_291" data-name="선 291" y1="1.212" x2="1.212" transform="translate(94.307 13.733)" fill="none" stroke="#dc0012" stroke-miterlimit="10" stroke-width="2"/>
    <line id="선_292" data-name="선 292" y1="1.212" x2="1.212" transform="translate(105.871 13.733)" fill="none" stroke="#dc0012" stroke-miterlimit="10" stroke-width="2"/>
    <line id="선_293" data-name="선 293" y1="1.212" x2="1.212" transform="translate(71.177 23.862)" fill="none" stroke="#dc0012" stroke-miterlimit="10" stroke-width="2"/>
    <line id="선_294" data-name="선 294" x1="1.212" y1="1.212" transform="translate(82.743 23.862)" fill="none" stroke="#dc0012" stroke-miterlimit="10" stroke-width="2"/>
    <line id="선_295" data-name="선 295" y1="1.212" x2="1.212" transform="translate(94.307 23.862)" fill="none" stroke="#dc0012" stroke-miterlimit="10" stroke-width="2"/>
    <line id="선_296" data-name="선 296" y1="1.212" x2="1.212" transform="translate(105.871 23.862)" fill="none" stroke="#dc0012" stroke-miterlimit="10" stroke-width="2"/>
    <line id="선_297" data-name="선 297" y1="1.212" x2="1.212" transform="translate(105.781 3.605)" fill="none" stroke="#dc0012" stroke-miterlimit="10" stroke-width="2"/>
    <line id="선_298" data-name="선 298" x1="1.212" y1="1.212" transform="translate(117.345 3.605)" fill="none" stroke="#dc0012" stroke-miterlimit="10" stroke-width="2"/>
    <line id="선_299" data-name="선 299" y1="1.212" x2="1.212" transform="translate(117.345 13.733)" fill="none" stroke="#dc0012" stroke-miterlimit="10" stroke-width="2"/>
    <line id="선_300" data-name="선 300" y1="1.212" x2="1.212" transform="translate(117.345 23.862)" fill="none" stroke="#dc0012" stroke-miterlimit="10" stroke-width="2"/>
    <rect id="사각형_925" data-name="사각형 925" width="2.652" height="2.881" transform="translate(301.016 8.143)" fill="#dc0012"/>
    <rect id="사각형_926" data-name="사각형 926" width="2.652" height="2.881" transform="translate(303.668 8.143)" fill="#dc0012"/>
    <rect id="사각형_927" data-name="사각형 927" width="2.652" height="2.881" transform="translate(303.668 13.906)" fill="#dc0012"/>
    <rect id="사각형_928" data-name="사각형 928" width="2.652" height="2.881" transform="translate(306.319 13.906)" fill="#dc0012"/>
    <rect id="사각형_929" data-name="사각형 929" width="2.652" height="2.881" transform="translate(306.319 16.787)" fill="#dc0012"/>
    <rect id="사각형_930" data-name="사각형 930" width="2.652" height="2.881" transform="translate(306.319 22.549)" fill="#dc0012"/>
    <rect id="사각형_931" data-name="사각형 931" width="2.652" height="2.881" transform="translate(308.971 8.143)" fill="#dc0012"/>
    <rect id="사각형_932" data-name="사각형 932" width="2.652" height="2.881" transform="translate(308.971 11.025)" fill="#dc0012"/>
    <rect id="사각형_933" data-name="사각형 933" width="2.652" height="2.881" transform="translate(308.971 13.906)" fill="#dc0012"/>
    <rect id="사각형_934" data-name="사각형 934" width="2.652" height="2.881" transform="translate(308.971 19.667)" fill="#dc0012"/>
    <rect id="사각형_935" data-name="사각형 935" width="2.652" height="2.881" transform="translate(308.971 22.549)" fill="#dc0012"/>
    <rect id="사각형_936" data-name="사각형 936" width="2.652" height="2.881" transform="translate(311.623 11.025)" fill="#dc0012"/>
    <rect id="사각형_937" data-name="사각형 937" width="2.652" height="2.881" transform="translate(311.623 22.549)" fill="#dc0012"/>
    <rect id="사각형_938" data-name="사각형 938" width="2.652" height="2.881" transform="translate(314.275 2.381)" fill="#dc0012"/>
    <rect id="사각형_939" data-name="사각형 939" width="2.652" height="2.881" transform="translate(314.275 13.906)" fill="#dc0012"/>
    <rect id="사각형_940" data-name="사각형 940" width="2.652" height="2.881" transform="translate(314.275 22.549)" fill="#dc0012"/>
    <rect id="사각형_941" data-name="사각형 941" width="2.652" height="2.881" transform="translate(316.926 2.381)" fill="#dc0012"/>
    <rect id="사각형_942" data-name="사각형 942" width="2.652" height="2.881" transform="translate(316.926 11.025)" fill="#dc0012"/>
    <rect id="사각형_943" data-name="사각형 943" width="2.652" height="2.881" transform="translate(316.926 13.906)" fill="#dc0012"/>
    <rect id="사각형_944" data-name="사각형 944" width="2.652" height="2.881" transform="translate(316.926 16.787)" fill="#dc0012"/>
    <rect id="사각형_945" data-name="사각형 945" width="2.652" height="2.881" transform="translate(316.926 19.667)" fill="#dc0012"/>
    <rect id="사각형_946" data-name="사각형 946" width="2.652" height="2.881" transform="translate(316.926 22.549)" fill="#dc0012"/>
    <rect id="사각형_947" data-name="사각형 947" width="2.652" height="2.881" transform="translate(319.578 2.381)" fill="#dc0012"/>
    <rect id="사각형_948" data-name="사각형 948" width="2.652" height="2.881" transform="translate(319.578 8.143)" fill="#dc0012"/>
    <rect id="사각형_949" data-name="사각형 949" width="2.652" height="2.881" transform="translate(319.578 11.025)" fill="#dc0012"/>
    <rect id="사각형_950" data-name="사각형 950" width="2.652" height="2.881" transform="translate(319.578 13.906)" fill="#dc0012"/>
    <rect id="사각형_951" data-name="사각형 951" width="2.652" height="2.881" transform="translate(319.578 16.787)" fill="#dc0012"/>
    <rect id="사각형_952" data-name="사각형 952" width="2.652" height="2.881" transform="translate(319.578 19.667)" fill="#dc0012"/>
    <rect id="사각형_953" data-name="사각형 953" width="2.652" height="2.881" transform="translate(322.229 2.381)" fill="#dc0012"/>
    <rect id="사각형_954" data-name="사각형 954" width="2.652" height="2.881" transform="translate(322.229 22.549)" fill="#dc0012"/>
    <rect id="사각형_955" data-name="사각형 955" width="2.652" height="2.881" transform="translate(324.881 16.787)" fill="#dc0012"/>
    <rect id="사각형_956" data-name="사각형 956" width="2.652" height="2.881" transform="translate(327.532 13.906)" fill="#dc0012"/>
    <rect id="사각형_957" data-name="사각형 957" width="2.652" height="2.881" transform="translate(327.532 19.667)" fill="#dc0012"/>
    <rect id="사각형_958" data-name="사각형 958" width="2.652" height="2.881" transform="translate(327.532 22.549)" fill="#dc0012"/>
    <rect id="사각형_959" data-name="사각형 959" width="2.652" height="2.881" transform="translate(330.184 5.263)" fill="#dc0012"/>
    <rect id="사각형_960" data-name="사각형 960" width="2.652" height="2.881" transform="translate(330.184 8.143)" fill="#dc0012"/>
    <rect id="사각형_961" data-name="사각형 961" width="2.652" height="2.881" transform="translate(330.184 11.025)" fill="#dc0012"/>
    <rect id="사각형_962" data-name="사각형 962" width="2.652" height="2.881" transform="translate(330.184 13.906)" fill="#dc0012"/>
    <rect id="사각형_963" data-name="사각형 963" width="2.652" height="2.881" transform="translate(330.184 22.549)" fill="#dc0012"/>
    <rect id="사각형_964" data-name="사각형 964" width="9.548" height="2.881" transform="translate(332.836 16.787)" fill="#dc0012"/>
    <rect id="사각형_965" data-name="사각형 965" width="9.548" height="2.881" transform="translate(332.836 19.667)" fill="#dc0012"/>
    <rect id="사각형_966" data-name="사각형 966" width="9.548" height="2.881" transform="translate(332.836 22.549)" fill="#dc0012"/>
    <rect id="사각형_967" data-name="사각형 967" width="2.652" height="2.881" transform="translate(342.384 2.381)" fill="#dc0012"/>
    <rect id="사각형_968" data-name="사각형 968" width="2.652" height="2.881" transform="translate(342.384 16.787)" fill="#dc0012"/>
    <rect id="사각형_969" data-name="사각형 969" width="2.652" height="2.881" transform="translate(345.036 5.263)" fill="#dc0012"/>
    <rect id="사각형_970" data-name="사각형 970" width="2.652" height="2.881" transform="translate(345.036 16.787)" fill="#dc0012"/>
    <rect id="사각형_971" data-name="사각형 971" width="2.652" height="2.881" transform="translate(347.688 5.263)" fill="#dc0012"/>
    <rect id="사각형_972" data-name="사각형 972" width="2.652" height="2.881" transform="translate(347.688 13.906)" fill="#dc0012"/>
    <rect id="사각형_973" data-name="사각형 973" width="2.652" height="2.881" transform="translate(347.688 16.787)" fill="#dc0012"/>
    <rect id="사각형_974" data-name="사각형 974" width="2.652" height="2.881" transform="translate(350.34 11.025)" fill="#dc0012"/>
    <rect id="사각형_975" data-name="사각형 975" width="2.652" height="2.881" transform="translate(350.34 13.906)" fill="#dc0012"/>
    <rect id="사각형_976" data-name="사각형 976" width="2.652" height="2.881" transform="translate(350.34 22.549)" fill="#dc0012"/>
    <rect id="사각형_977" data-name="사각형 977" width="2.652" height="2.881" transform="translate(352.99 5.263)" fill="#dc0012"/>
    <rect id="사각형_978" data-name="사각형 978" width="2.652" height="2.881" transform="translate(355.643 16.787)" fill="#dc0012"/>
    <rect id="사각형_979" data-name="사각형 979" width="2.652" height="2.881" transform="translate(358.294 2.381)" fill="#dc0012"/>
    <rect id="사각형_980" data-name="사각형 980" width="2.652" height="2.881" transform="translate(358.294 11.025)" fill="#dc0012"/>
    <rect id="사각형_981" data-name="사각형 981" width="2.652" height="2.881" transform="translate(360.946 5.263)" fill="#dc0012"/>
    <rect id="사각형_982" data-name="사각형 982" width="2.652" height="2.881" transform="translate(360.946 19.667)" fill="#dc0012"/>
    <rect id="사각형_983" data-name="사각형 983" width="2.652" height="2.881" transform="translate(360.946 22.549)" fill="#dc0012"/>
    <rect id="사각형_984" data-name="사각형 984" width="2.652" height="2.881" transform="translate(363.597 2.381)" fill="#dc0012"/>
    <rect id="사각형_985" data-name="사각형 985" width="2.652" height="2.881" transform="translate(363.597 5.263)" fill="#dc0012"/>
    <rect id="사각형_986" data-name="사각형 986" width="2.652" height="2.881" transform="translate(363.597 8.143)" fill="#dc0012"/>
    <rect id="사각형_987" data-name="사각형 987" width="2.652" height="2.881" transform="translate(363.597 16.787)" fill="#dc0012"/>
    <rect id="사각형_988" data-name="사각형 988" width="2.652" height="2.881" transform="translate(363.597 22.549)" fill="#dc0012"/>
    <rect id="사각형_989" data-name="사각형 989" width="2.652" height="2.881" transform="translate(366.249 2.381)" fill="#dc0012"/>
    <rect id="사각형_990" data-name="사각형 990" width="2.652" height="2.881" transform="translate(366.249 19.667)" fill="#dc0012"/>
    <rect id="사각형_991" data-name="사각형 991" width="2.652" height="2.881" transform="translate(368.901 2.381)" fill="#dc0012"/>
    <rect id="사각형_992" data-name="사각형 992" width="2.652" height="2.881" transform="translate(368.901 11.025)" fill="#dc0012"/>
    <rect id="사각형_993" data-name="사각형 993" width="2.652" height="2.881" transform="translate(368.901 16.787)" fill="#dc0012"/>
    <rect id="사각형_994" data-name="사각형 994" width="2.652" height="2.881" transform="translate(371.553 2.381)" fill="#dc0012"/>
    <rect id="사각형_995" data-name="사각형 995" width="2.652" height="2.881" transform="translate(371.553 13.906)" fill="#dc0012"/>
    <rect id="사각형_996" data-name="사각형 996" width="2.652" height="2.881" transform="translate(374.205 2.381)" fill="#dc0012"/>
    <rect id="사각형_997" data-name="사각형 997" width="2.652" height="2.881" transform="translate(374.205 16.787)" fill="#dc0012"/>
    <rect id="사각형_998" data-name="사각형 998" width="2.652" height="2.881" transform="translate(374.205 19.667)" fill="#dc0012"/>
    <rect id="사각형_999" data-name="사각형 999" width="2.652" height="2.881" transform="translate(376.856 13.906)" fill="#dc0012"/>
    <rect id="사각형_1000" data-name="사각형 1000" width="2.652" height="2.881" transform="translate(376.856 16.787)" fill="#dc0012"/>
    <rect id="사각형_1001" data-name="사각형 1001" width="2.652" height="2.881" transform="translate(376.856 19.667)" fill="#dc0012"/>
    <rect id="사각형_1002" data-name="사각형 1002" width="2.652" height="2.881" transform="translate(379.508 13.906)" fill="#dc0012"/>
    <path id="패스_3049" data-name="패스 3049" d="M-1997.846,7924.74h3.2v-6.158h-4.686v4.474Z" transform="translate(2477.263 -7907.219)" fill="#dc0012"/>
    <path id="패스_3050" data-name="패스 3050" d="M-1808.7,7924.74h3.2v-6.158h-4.687v4.474Z" transform="translate(2347.033 -7907.219)" fill="#dc0012"/>
    <rect id="사각형_1003" data-name="사각형 1003" width="4.512" height="2.431" transform="translate(419.741 11.362)" fill="#dc0012"/>
    <path id="패스_3051" data-name="패스 3051" d="M-1760.561,7918.582h-2.642v6.158h2.642l1.995-3.067Z" transform="translate(2314.689 -7907.219)" fill="#dc0012"/>
    <rect id="사각형_1004" data-name="사각형 1004" width="4.512" height="2.431" transform="translate(562.217 11.362)" fill="#dc0012"/>
    <path id="패스_3052" data-name="패스 3052" d="M-2086.208,7889.378h-211.018v23.31h211.018Zm-205.35,16.54v-8.725h2.617v4.946l2.792-1.755,2.792,1.755v-4.946h2.618v8.725l-5.41-3.517Zm11.94,0v-8.725h9.8l-1.109,1.282H-2277v2.442h6.594v1.283H-2277v2.432h6.032l1.122,1.285Zm21.563,0V7902.2h-4.612v3.717h-2.667v-8.725h9.9v8.725Zm11.355,0-4.7-5.362h4.412v-2.08h-4.811v7.442h-2.642v-8.725h10.021v4.648h-2.768l3.565,4.076Zm3.576,0v-8.725h9.8l-1.11,1.282h-6.07v2.442h6.594v1.283h-6.594v2.432h6.032l1.123,1.285Zm18.161,0v-7.442h-3.266l-1.109-1.282h11.318l-1.11,1.282h-3.228v7.442Zm14.3,0v-3.728h-4.511v3.728h-2.593v-8.725h2.593v3.714h4.511v-3.714h2.63v8.725Zm5.746,0-2.119-2.406v-6.318h9.9v8.725Zm9.721,0-1.121-1.285h7.017l.461-.536v-1.906h-7.142v-3.616l1.185-1.381h8.9l-1.1,1.282h-5.821l-.561.635v1.8h7.18v3.689l-1.135,1.321Zm10.246,0v-8.725h9.8l-1.109,1.282h-6.07v2.442h6.594v1.283h-6.594v2.432h6.032l1.122,1.285Zm14.283,0v-8.725h2.618v4.946l2.792-1.755,2.792,1.755v-4.946h2.617v8.725l-5.409-3.517Zm18.921,0v-3.728h-4.513v3.728h-2.592v-8.725h2.592v3.714h4.513v-3.714h2.629v8.725Zm5.745,0-2.119-2.406v-6.318h9.9v8.725Zm12.514,0v-8.725h7.054l2.768,4.373-2.768,4.352Zm17.91,0V7902.2h-4.611v3.717h-2.668v-8.725h9.9v8.725Zm11.355,0-4.7-5.362h4.413v-2.08h-4.811v7.442h-2.643v-8.725h10.021v4.648h-2.767l3.565,4.076Zm3.578,0v-8.725h9.8l-1.109,1.282h-6.07v2.442h6.594v1.283h-6.594v2.432H-2092l1.122,1.285Z" transform="translate(2682.37 -7887.113)" fill="#dc0012"/>
    <rect id="사각형_1005" data-name="사각형 1005" width="110.603" height="21.993" transform="translate(128.194 4.001)" fill="none" stroke="#dc0012" stroke-miterlimit="10" stroke-width="0.946"/>
    <rect id="사각형_1006" data-name="사각형 1006" width="50.362" height="21.993" transform="translate(245.531 4.001)" fill="none" stroke="#dc0012" stroke-miterlimit="10" stroke-width="0.946"/>
    <rect id="사각형_1007" data-name="사각형 1007" width="14.246" height="21.993" transform="translate(245.531 4.001)" fill="#dc0012"/>
    <line id="선_301" data-name="선 301" x1="39.252" transform="translate(256.64 8.4)" fill="none" stroke="#dc0012" stroke-miterlimit="10" stroke-width="2"/>
    <line id="선_302" data-name="선 302" x1="39.252" transform="translate(256.64 12.799)" fill="none" stroke="#dc0012" stroke-miterlimit="10" stroke-width="2"/>
    <line id="선_303" data-name="선 303" x1="39.252" transform="translate(256.64 17.197)" fill="none" stroke="#dc0012" stroke-miterlimit="10" stroke-width="2"/>
    <line id="선_304" data-name="선 304" x1="39.252" transform="translate(256.64 21.596)" fill="none" stroke="#dc0012" stroke-miterlimit="10" stroke-width="2"/>
  </g>
</svg>
