<svg id="그룹_3173" data-name="그룹 3173" xmlns="http://www.w3.org/2000/svg" width="317.384" height="91.977" viewBox="0 0 317.384 91.977">
  <path id="패스_2619" data-name="패스 2619" d="M-3438.287,8086.53c-12.564,6-33.762,21.1-33.762,21.1a22.567,22.567,0,0,0,2.9,1.621c10.237,4.5,25.217,7.233,28.129,6.289,7.881-2.555,16.7-19.266,19.475-26.975,0,0-8.277,3.3-16.674,7.235-7.012,3.287-11.269,5.4-13.276,6.407-.306.127-.45.181-.45.181l.4-.152c-.9.456-1.338.682-1.338.682l19.542-5.921c-.349.8-5.479,12.385-12.058,13.713-6.829,1.372-18.95-3.427-18.95-3.427.987-.762,13.6-10.229,43.476-22.418.038-.011.079-.025.12-.037.982-.4,2.325-2.726,2.366-4.045a61.758,61.758,0,0,0-19.892,5.748" transform="translate(3735.779 -8073.629)" fill="#dc000c"/>
  <path id="패스_2620" data-name="패스 2620" d="M-3581.014,8129.518s.009.024.016.041a.133.133,0,0,1-.016-.014l.02.03c.21.562,2.344,6.186,4.529,9,2.133,2.755,10.749,4.9,11.976,5.193.089.042.153.068.153.068a.455.455,0,0,0-.064-.048l.064.017c-5.48-3.844-16.677-14.291-16.677-14.291" transform="translate(3818.402 -8110.583)" fill="#dc000c"/>
  <path id="패스_2621" data-name="패스 2621" d="M-3522.305,8086.047c-.779-1.486.188-3.46,6.558-8.174,5.76-4.262,26.493-21.694,46.33-26.377,0,0-10.4-1.7-25.259,2.976-5.3,1.667-13.1,9.084-27.375,23.062-1.939,1.083-8.91-2.917-12.91-4.846,0,0,6.659,10.53,8.985,13.682,3.615,4.905,10.123,7.745,10.123,7.745s-.315-.328-.8-.858a46.538,46.538,0,0,1-5.653-7.21" transform="translate(3783.483 -8051.196)" fill="#dc000c"/>
  <path id="패스_2622" data-name="패스 2622" d="M-4482.534,8165.313l-.486,1.46,11.142.005,1.761-1.459Z" transform="translate(4502.348 -8137.725)" fill="#dc000c"/>
  <path id="패스_2623" data-name="패스 2623" d="M-4521.979,8160.028h3.367l3.145-9.454,12.284.006,1.274-1.057-11.214,0,.62-1.868h-1.991l1.52-4.571,13.164.008,1.253-1.058-17.433-.009Z" transform="translate(4531.888 -8120.064)" fill="#dc000c"/>
  <path id="패스_2624" data-name="패스 2624" d="M-4523.874,8135.755l18.208.008,1.732-1.459-21.447-.01-6.608,19.873,1.991,0Z" transform="translate(4539.478 -8114.205)" fill="#dc000c"/>
  <path id="패스_2625" data-name="패스 2625" d="M-4372.5,8154.214l-4.043,12.156-5.923,0,.8,1.463,7.024,0,4.528-13.619Z" transform="translate(4426.106 -8129.31)" fill="#dc000c"/>
  <path id="패스_2626" data-name="패스 2626" d="M-4421.278,8150.438l4.861-14.619,20.135.01.486-1.463-22.524-.01-4.788,14.395,3,5.483h.907Z" transform="translate(4456.919 -8114.252)" fill="#dc000c"/>
  <path id="패스_2627" data-name="패스 2627" d="M-4389.295,8142.1l-19.707-.009-4.713,14.17,2.1,3.837,16.333.008Zm-16.306,16.944-1.024-1.869h-.906l-2.1-3.834,3.39-10.191,10.667,0-.485,1.462h2.817l-4.8,14.433Z" transform="translate(4449.797 -8120.117)" fill="#dc000c"/>
  <path id="패스_2628" data-name="패스 2628" d="M-4290,8144.677l-1.711,5.15-9.849-.006,5.621,10.345,6.028,0-5.026-9.286h6.3l2.9-8.722-20.389-.009-5.988,18,3.594,0,5.637-16.95,10.951.006-.485,1.459Z" transform="translate(4372.756 -8120.164)" fill="#dc000c"/>
  <path id="패스_2629" data-name="패스 2629" d="M-4275.385,8158.607l10.238,0,1.442-4.334h-1.992l-.956,2.874-10.043,0,6.635,12.213h.519Z" transform="translate(4345.902 -8129.357)" fill="#dc000c"/>
  <path id="패스_2630" data-name="패스 2630" d="M-4314.007,8135.885l20.817.01.487-1.46-22.81-.01-6.609,19.873,1.992,0Z" transform="translate(4380.346 -8114.305)" fill="#dc000c"/>
  <path id="패스_2631" data-name="패스 2631" d="M-4162.647,8135.845h22.709l1.743-1.453h-25.771l1.549,2.922h.55Z" transform="translate(4260.425 -8114.279)" fill="#dc000c"/>
  <path id="패스_2632" data-name="패스 2632" d="M-4143.206,8154.18h-2l-5.046,15.084h2Z" transform="translate(4250.023 -8129.284)" fill="#dc000c"/>
  <path id="패스_2633" data-name="패스 2633" d="M-4155.15,8143.15h6.426l-.486,1.454h2.425l-.028.085-5.153,15.405h3.506l5.667-16.944h7.35l1.274-1.063h-21.545Z" transform="translate(4254.167 -8120.114)" fill="#dc000c"/>
  <path id="패스_2634" data-name="패스 2634" d="M-4029.238,8144.3h9.845l2.829-8.459h3.992l.486-1.452h-5.989l-2.829,8.457h-7.849Z" transform="translate(4158.267 -8114.28)" fill="#dc000c"/>
  <path id="패스_2635" data-name="패스 2635" d="M-4048.9,8153.061l-2.353,7.033h3.563l6.023-18.007h-3.562l-2.829,8.458h-10.7l.622-1.861h-2l2.207-6.6h-3.477l-6.024,18.007h3.478l2.838-8.486h10.275l-.486,1.453Z" transform="translate(4187.23 -8120.114)" fill="#dc000c"/>
  <path id="패스_2636" data-name="패스 2636" d="M-4069.312,8135.845h3.906l.486-1.453h-5.9l-6.646,19.866h2Z" transform="translate(4194.839 -8114.279)" fill="#dc000c"/>
  <path id="패스_2637" data-name="패스 2637" d="M-4006.336,8189.167h-2l-2.216,6.625h2Z" transform="translate(4144.097 -8155.813)" fill="#dc000c"/>
  <path id="패스_2638" data-name="패스 2638" d="M-3961.28,8150.423l4.847-14.613,20.165-.057.484-1.459-22.556.064-4.774,14.388,3.013,5.464.907,0Z" transform="translate(4108.129 -8114.205)" fill="#dc000c"/>
  <path id="패스_2639" data-name="패스 2639" d="M-3929.266,8142.02l-19.734.054-4.7,14.167,2.108,3.824,16.355-.045Zm-16.3,16.973-1.029-1.864-.906,0-2.11-3.824,3.381-10.188,10.681-.031-.484,1.463,2.822-.009-4.787,14.429Z" transform="translate(4100.991 -8120.063)" fill="#dc000c"/>
  <path id="패스_2640" data-name="패스 2640" d="M-3912.446,8154.16l-4.032,12.152-5.93.017.8,1.456,7.034-.019,4.516-13.614Z" transform="translate(4077.264 -8129.262)" fill="#dc000c"/>
  <path id="패스_2641" data-name="패스 2641" d="M-3831.688,8153.061l-1.561,4.666-1.559,1.3h-15.712l.573,1.063h16.915l3.59-3.008,2.188-6.541h-14.351l.622-1.861h-2l1.368-4.087,1.761-1.447h13.254l1.264-1.062h-16.322l-3.65,3.065-2.159,6.455h13.837l-.486,1.453Z" transform="translate(4022.755 -8120.114)" fill="#dc000c"/>
  <path id="패스_2642" data-name="패스 2642" d="M-3810.826,8169.377l-.486,1.454h13.922l.486-1.454Z" transform="translate(3993.025 -8140.808)" fill="#dc000c"/>
  <path id="패스_2643" data-name="패스 2643" d="M-3843.683,8139.08l3.851-3.235h16.953l1.729-1.453h-20.265l-3.751,3.15-2.753,8.231h2Z" transform="translate(4020.782 -8114.279)" fill="#dc000c"/>
  <path id="패스_2644" data-name="패스 2644" d="M-3857.469,8194.321h16.247l1.357-1.136,1.345-4.019h-2l-.83,2.481-1.458,1.221h-15.979l1.577,2.923h.532Z" transform="translate(4029.021 -8155.813)" fill="#dc000c"/>
  <path id="패스_2645" data-name="패스 2645" d="M-3701.14,8204.48h-11.31l-.486,1.453h12.581Z" transform="translate(3918.431 -8167.423)" fill="#dc000c"/>
  <path id="패스_2646" data-name="패스 2646" d="M-3733.6,8142.087l-6.022,18.008h19.826l-.574-1.063h-13.365l.622-1.859h-2l1.851-5.535h15.015l.355-1.063h-13.016l.622-1.86h-2l1.86-5.562h13.822l1.274-1.063Z" transform="translate(3938.669 -8120.114)" fill="#dc000c"/>
  <path id="패스_2647" data-name="패스 2647" d="M-3741.5,8135.845h19.055l1.742-1.453h-22.309l-6.646,19.866h2Z" transform="translate(3946.278 -8114.279)" fill="#dc000c"/>
  <path id="패스_2648" data-name="패스 2648" d="M-3701.234,8170.949h12.589l.486-1.454h-12.588Z" transform="translate(3909.558 -8140.896)" fill="#dc000c"/>
  <path id="패스_2649" data-name="패스 2649" d="M-4549.011,8295.572l-5.559,16.618,12.711-6.785,9.476,7.871,5.921-17.7h-4.191l-3.749,11.211-5.057-4.03-7.889,4.1.943-2.821-1.509.784,3.093-9.246Z" transform="translate(4556.599 -8236.493)" fill="#dc000c"/>
  <path id="패스_2650" data-name="패스 2650" d="M-4521.827,8300.307l7.243-3.764,4.812,3.834,3.66-10.941h4.612l.479-1.428h-5.859l-3.7,11.076-4.934-3.935-5.547,2.886Z" transform="translate(4531.772 -8230.757)" fill="#dc000c"/>
  <path id="패스_2651" data-name="패스 2651" d="M-4555.666,8289.436h4.613l.477-1.428h-5.859l-6.532,19.53,1.517-.812Z" transform="translate(4562.967 -8230.757)" fill="#dc000c"/>
  <path id="패스_2652" data-name="패스 2652" d="M-4398.447,8297.752h9.677l2.782-8.316h3.924l.479-1.428h-5.887l-2.782,8.313h-7.714Z" transform="translate(4438.22 -8230.757)" fill="#dc000c"/>
  <path id="패스_2653" data-name="패스 2653" d="M-4417.779,8306.359l-2.312,6.916h3.5l5.921-17.7h-3.5l-2.78,8.314h-10.522l.613-1.829h-1.964l2.17-6.485h-3.419l-5.92,17.7h3.419l2.791-8.345h10.1l-.478,1.429Z" transform="translate(4466.69 -8236.493)" fill="#dc000c"/>
  <path id="패스_2654" data-name="패스 2654" d="M-4437.842,8289.436h3.84l.479-1.428h-5.8l-6.533,19.53h1.963Z" transform="translate(4474.17 -8230.757)" fill="#dc000c"/>
  <path id="패스_2655" data-name="패스 2655" d="M-4375.933,8341.852h-1.964l-2.178,6.512h1.963Z" transform="translate(4424.289 -8271.584)" fill="#dc000c"/>
  <path id="패스_2656" data-name="패스 2656" d="M-4332.884,8302.267l4.765-14.364,19.821-.056.478-1.437-22.173.06-4.693,14.147,2.961,5.372.892,0Z" transform="translate(4389.875 -8229.546)" fill="#dc000c"/>
  <path id="패스_2657" data-name="패스 2657" d="M-4284.877,8305.938l-3.963,11.947-5.83.017.791,1.433,6.914-.02,4.44-13.382Z" transform="translate(4359.532 -8244.351)" fill="#dc000c"/>
  <path id="패스_2658" data-name="패스 2658" d="M-4301.413,8294.006l-19.4.052-4.62,13.928,2.072,3.759,16.077-.045Zm-16.027,16.687-1.011-1.833-.891,0-2.073-3.756,3.322-10.018,10.5-.028-.477,1.436,2.773-.007-4.705,14.184Z" transform="translate(4382.857 -8235.307)" fill="#dc000c"/>
  <path id="패스_2659" data-name="패스 2659" d="M-4151.266,8320.209h-1.749l2.889,9.436-12.207,12.34h-6.442l-.783,2.312h10l11.96-12.091Z" transform="translate(4264.665 -8255.175)" fill="#dc000c"/>
  <path id="패스_2660" data-name="패스 2660" d="M-4179.946,8298.838h-26.1l-10.882,32.107h24.2l17.068-17.5Zm-15.233,29.947h-11.262l1.017-3.006h-3.459l8.4-24.779h10.634l.707,2.312h2.475l3.945,12.883Z" transform="translate(4300.582 -8238.969)" fill="#dc000c"/>
  <path id="패스_2661" data-name="패스 2661" d="M-4219.691,8288.723h26.391l-.678-2.312h-28.391l-11.9,35.112h3.46Z" transform="translate(4313.731 -8229.546)" fill="#dc000c"/>
  <path id="패스_2662" data-name="패스 2662" d="M-4004.948,8318.31l-4.283,12.636h6.341l10.881-32.107h-35.635l-10.881,32.107h6.542l5.066-14.947h18.559l-.783,2.312Zm-17.608-4.522,1.018-3H-4025l3.314-9.782h18.158l-.783,2.312h4.192l-3.55,10.476Z" transform="translate(4165.31 -8238.969)" fill="#dc000c"/>
  <path id="패스_2663" data-name="패스 2663" d="M-3951.426,8320.209l-2.3,6.777h-13.965l-.783,2.313h17.425l3.08-9.09Z" transform="translate(4112.191 -8255.175)" fill="#dc000c"/>
  <path id="패스_2664" data-name="패스 2664" d="M-4041.291,8288.723h36.367l.784-2.312h-39.828l-11.9,35.112h3.46Z" transform="translate(4178.459 -8229.546)" fill="#dc000c"/>
  <path id="패스_2665" data-name="패스 2665" d="M-3927.188,8382.249h-3.46l-4.047,11.942h3.46Z" transform="translate(4086.58 -8302.216)" fill="#dc000c"/>
  <path id="패스_2666" data-name="패스 2666" d="M-3809.018,8303.312l-3.073,9.071h-17.425l9.985,18.563h10.5l-8.787-16.4h11.135l5.323-15.705H-3837.5l-10.882,32.107h6.442l10.148-29.945h19.362l-.783,2.312Z" transform="translate(4021.131 -8238.969)" fill="#dc000c"/>
  <path id="패스_2667" data-name="패스 2667" d="M-3851.146,8288.723h36.87l.782-2.312h-40.329l-11.9,35.112h3.459Z" transform="translate(4034.281 -8229.546)" fill="#dc000c"/>
  <path id="패스_2668" data-name="패스 2668" d="M-3782.513,8327.895h18.088l2.6-7.683h-3.459l-1.821,5.371h-17.757l11.6,21.57h1.1Z" transform="translate(3972.966 -8255.178)" fill="#dc000c"/>
  <path id="패스_2669" data-name="패스 2669" d="M-3585.665,8410.281h-20.085l-.783,2.308h22.1Z" transform="translate(3837.751 -8323.471)" fill="#dc000c"/>
  <path id="패스_2670" data-name="패스 2670" d="M-3643.229,8298.838l-10.881,32.107h35.133l-1.156-2.16h-23.444l1.018-3.006h-3.459l3.315-9.781h26.534l.733-2.16h-23.075l1.018-3.007h-3.46l3.332-9.831h24.428l2.6-2.162Z" transform="translate(3873.827 -8238.969)" fill="#dc000c"/>
  <path id="패스_2671" data-name="패스 2671" d="M-3585.578,8350.761h22.342l.783-2.312H-3584.8Z" transform="translate(3821.862 -8276.588)" fill="#dc000c"/>
  <path id="패스_2672" data-name="패스 2672" d="M-3656.876,8288.723h33.97l2.78-2.312h-39.427l-11.9,35.112h3.46Z" transform="translate(3886.977 -8229.546)" fill="#dc000c"/>
</svg>
