<svg xmlns="http://www.w3.org/2000/svg" width="62.152" height="4.333" viewBox="0 0 62.152 4.333">
  <g id="그룹_2975" data-name="그룹 2975" transform="translate(0 0)">
    <path id="패스_2480" data-name="패스 2480" d="M4268.329,3490.244l-1.636,1.636h2.116l1.629-1.629Z" transform="translate(-4208.287 -3490.244)" fill="#fff"/>
    <path id="패스_2481" data-name="패스 2481" d="M4259.238,3490.244l-1.635,1.636h2.115l1.629-1.629Z" transform="translate(-4202.002 -3490.244)" fill="#fff"/>
    <path id="패스_2482" data-name="패스 2482" d="M4250.145,3490.244l-1.636,1.636h2.116l1.629-1.629Z" transform="translate(-4195.715 -3490.244)" fill="#fff"/>
    <path id="패스_2483" data-name="패스 2483" d="M4241.053,3490.244l-1.636,1.636h2.116l1.628-1.629Z" transform="translate(-4189.43 -3490.244)" fill="#fff"/>
    <path id="패스_2484" data-name="패스 2484" d="M4231.961,3490.244l-1.636,1.636h2.116l1.629-1.629Z" transform="translate(-4183.143 -3490.244)" fill="#fff"/>
    <rect id="사각형_516" data-name="사각형 516" width="44.526" height="1.678" transform="translate(17.626 2.655)" fill="#fff"/>
    <rect id="사각형_517" data-name="사각형 517" width="4.546" height="1.669" transform="translate(12.272 2.66)" fill="#fff"/>
    <rect id="사각형_518" data-name="사각형 518" width="3.629" height="1.669" transform="translate(7.848 2.66)" fill="#fff"/>
    <rect id="사각형_519" data-name="사각형 519" width="2.732" height="1.669" transform="translate(4.321 2.66)" fill="#fff"/>
    <rect id="사각형_520" data-name="사각형 520" width="1.814" height="1.669" transform="translate(1.713 2.66)" fill="#fff"/>
    <rect id="사각형_521" data-name="사각형 521" width="0.918" height="1.669" transform="translate(0 2.66)" fill="#fff"/>
  </g>
</svg>
