<?xml version="1.0" encoding="UTF-8"?><svg id="_레이어_1" xmlns="http://www.w3.org/2000/svg" viewBox="0 0 210.12 395.21"><defs><style>.cls-1{stroke:rgba(255,255,255,.1); fill:rgba(255,255,255,.1);}.cls-2{fill:#bd1a2d;}</style></defs><g id="_그룹_5354"><path class="cls-1" d="M183.52,43.79H78.43L34.8,.17l-.16-.17H0V395.21H157.25l35.19-35.2,.16-.16v-70.06l17.52-17.52V70.39l-26.6-26.6Z"/><polygon class="cls-2" points="113.12 61.31 113.12 62.41 81.3 62.41 81.13 62.25 28.75 9.86 0 9.86 0 8.77 29.2 8.77 29.36 8.93 81.75 61.31 113.12 61.31"/><polygon class="cls-2" points="204.69 219.33 204.69 263.51 204.53 263.67 178.41 289.78 178.41 368.6 178.25 368.76 160.57 386.46 0 386.46 0 385.36 160.12 385.36 177.32 368.15 177.32 289.33 177.47 289.17 203.59 263.06 203.59 219.66 186.07 193.39 186.07 161.62 187.17 161.62 187.17 193.05 204.69 219.33"/><rect id="_사각형_1453-2" class="cls-2" x="183" y="158.2" width="7.23" height="7.23"/><rect id="_사각형_1454-2" class="cls-2" x="109.32" y="58.25" width="7.23" height="7.23"/><rect id="_사각형_1455-2" class="cls-2" x="180.04" y="145.07" width="13.14" height="4.38"/><rect id="_사각형_1456-2" class="cls-2" x="180.04" y="135.82" width="13.14" height="4.38"/><rect id="_사각형_1457-2" class="cls-2" x="180.04" y="126.58" width="13.14" height="4.38"/><rect id="_사각형_1458-2" class="cls-2" x="180.04" y="117.33" width="13.14" height="4.38"/><rect id="_사각형_1459-2" class="cls-2" x="180.04" y="108.09" width="13.14" height="4.38"/><rect id="_사각형_1460-2" class="cls-2" x="180.04" y="98.84" width="13.14" height="4.38"/><rect id="_사각형_1461-2" class="cls-2" x="180.04" y="89.6" width="13.14" height="4.38"/><rect id="_사각형_1462-2" class="cls-2" x="180.04" y="80.35" width="13.14" height="4.38"/><rect id="_사각형_1463-2" class="cls-2" x="180.04" y="71.11" width="13.14" height="4.38"/><rect id="_사각형_1464-2" class="cls-2" x="180.04" y="61.87" width="13.14" height="4.38"/><rect id="_사각형_1465-2" class="cls-2" x="177.85" y="56.93" width="17.52" height="1.1"/><rect id="_사각형_1466-2" class="cls-2" x="125.31" y="55.29" width="43.79" height="13.14"/><rect id="_사각형_1467-2" class="cls-2" x="177.85" y="153.27" width="17.52" height="1.1"/></g></svg>