<svg id="그룹_6448" data-name="그룹 6448" xmlns="http://www.w3.org/2000/svg" width="53.617" height="53.617" viewBox="0 0 53.617 53.617">
  <g id="그룹_6447" data-name="그룹 6447">
    <path id="패스_5289" data-name="패스 5289" d="M854.373-5a26.808,26.808,0,1,0,26.808,26.808A26.838,26.838,0,0,0,854.373-5Zm0,51.234A24.425,24.425,0,1,1,878.8,21.808,24.453,24.453,0,0,1,854.373,46.234Z" transform="translate(-827.565 5)" fill="#c8102c"/>
    <path id="패스_5290" data-name="패스 5290" d="M869.735,9.5c-2.941,0-4.444,2.16-4.13,4.8h0L867.963,34.2h.005a1.787,1.787,0,0,0,3.532,0h.005L873.868,14.3h0C874.177,11.667,872.685,9.5,869.735,9.5Z" transform="translate(-842.926 -0.862)" fill="#c8102c"/>
    <circle id="타원_265" data-name="타원 265" cx="2.979" cy="2.979" r="2.979" transform="translate(23.829 37.83)" fill="#c8102c"/>
  </g>
</svg>
