<?xml version="1.0" encoding="utf-8"?>
<!-- Generator: Adobe Illustrator 26.5.0, SVG Export Plug-In . SVG Version: 6.00 Build 0)  -->
<svg version="1.1" id="_分離模式" xmlns="http://www.w3.org/2000/svg" xmlns:xlink="http://www.w3.org/1999/xlink" x="0px"
	 y="0px" viewBox="0 0 169 26.1" style="enable-background:new 0 0 169 26.1;" xml:space="preserve">
<style type="text/css">
	.st0{fill:#C8102C;}
	.st1{fill:#C8102C;stroke:#D7151D;stroke-width:0.5;stroke-miterlimit:10;}
	.st2{fill:#C8102C;stroke:#D7151D;stroke-width:2;stroke-miterlimit:10;}
</style>
<rect x="162.3" y="1.1" class="st0" width="5.5" height="23.9"/>
<path class="st1" d="M151.8,2.1V24H2.2V2.1H151.8 M152.8,1.1H1.2V25h151.6V1.1C152.8,1.1,152.8,1.1,152.8,1.1z"/>
<line class="st2" x1="13.4" y1="18.4" x2="13.4" y2="7.7"/>
<line class="st2" x1="23.8" y1="16" x2="23.8" y2="10.1"/>
<line class="st2" x1="34.2" y1="19.9" x2="34.2" y2="6.2"/>
<line class="st2" x1="44.6" y1="17.4" x2="44.6" y2="8.7"/>
<line class="st2" x1="55" y1="19.9" x2="55" y2="6.2"/>
<line class="st2" x1="65.4" y1="18.4" x2="65.4" y2="7.7"/>
<line class="st2" x1="75.8" y1="15.3" x2="75.8" y2="10.8"/>
<line class="st2" x1="86.2" y1="18.4" x2="86.2" y2="7.7"/>
<line class="st2" x1="96.6" y1="16.6" x2="96.6" y2="9.5"/>
<line class="st2" x1="107" y1="19.9" x2="107" y2="6.2"/>
<line class="st2" x1="117.4" y1="17.4" x2="117.4" y2="8.7"/>
<line class="st2" x1="127.8" y1="17.4" x2="127.8" y2="8.7"/>
<line class="st2" x1="138.2" y1="19.9" x2="138.2" y2="6.2"/>
</svg>
