<?xml version="1.0" encoding="utf-8"?>
<!-- Generator: Adobe Illustrator 26.5.0, SVG Export Plug-In . SVG Version: 6.00 Build 0)  -->
<svg version="1.1" id="_레이어_1" xmlns="http://www.w3.org/2000/svg" xmlns:xlink="http://www.w3.org/1999/xlink" x="0px"
	 y="0px" viewBox="0 0 3388.4 650.7" style="enable-background:new 0 0 3388.4 650.7;" xml:space="preserve">
<style type="text/css">
	.st0{enable-background:new    ;}
	.st1{fill:#C8102C;}
</style>
<g class="st0">
	<path class="st1" d="M262.9,95.6l-17.7,20.5h-36.5L194,139.3h27.4l18,20.5h-58.9l-41.2,64.4h-37.6l40.7-64.4h-38.7l-41.5,64.4H24.8
		l40.9-64.4H24.8l17.7-20.5H79l14.7-23.2H67.1L48.8,95.6h58.4l41.2-65h37.9l-41.2,65h38.7l41.2-65h37.9l-40.9,65H262.9z
		 M131.5,116.1l-14.7,23.2h38.7l14.7-23.2H131.5z"/>
	<path class="st1" d="M434.9,133.8l79.1,90.4h-68.3L341.4,105.3h97.9V59.1H332.6v165.1H274V30.6h222.4v103.2H434.9z"/>
	<path class="st1" d="M520.9,170.8V30.6h219.6v193.6H567.9L520.9,170.8z M578.7,158.4l32.9,37.3h71.1V59.1h-104V158.4z"/>
	<path class="st1" d="M930.8,118.8h57.8v105.4H768.2V30.6h229l-24.6,28.5H827.1v136.6h103.7V118.8z"/>
</g>
<g class="st0">
	<path class="st1" d="M304.1,490.2v98.7l-30.3,35.3H63.4l-30-34.3h187.7l12.3-14.3v-51h-191v-96.7l31.7-37h238l-29.3,34.3H127.1
		l-15,17v48H304.1z"/>
	<path class="st1" d="M334.1,559.9v-169h264.7v233.3h-208L334.1,559.9z M403.8,544.9l39.7,45h85.7V425.2H403.8V544.9z"/>
	<path class="st1" d="M886.1,390.9v233.3l-191-127v127h-69.7V390.9l192,126v-126H886.1z"/>
	<path class="st1" d="M1202.8,390.9h70.3v233.3h-70.3v-99.7h-120.7v99.7h-69.3V390.9h69.3v99.3h120.7V390.9z"/>
	<path class="st1" d="M1369.8,589.9h161.3l30,34.3h-261.3V390.9h262l-29.7,34.3h-162.3v65.3h176.3v34.3h-176.3V589.9z"/>
	<path class="st1" d="M1775.4,390.9h68.3v233.3h-262V390.9h69.3v199h124.3V390.9z"/>
	<path class="st1" d="M2131.1,390.9v233.3l-191-127v127h-69.7V390.9l192,126v-126H2131.1z"/>
	<path class="st1" d="M2360.4,497.2h69.7v127h-265.7V390.9h276l-29.7,34.3h-175.3v164.7h125V497.2z"/>
	<path class="st1" d="M2653.4,530.9h-189l30-34.3h130L2653.4,530.9z"/>
	<path class="st1" d="M2753.1,624.2h-69.7V390.9l143.7,93.3l143.7-93.3v233.3h-69V490.6l-74.7,47.3l-74-47.3V624.2z"/>
	<path class="st1" d="M3004.1,624.2V390.9h70v233.3H3004.1z"/>
	<path class="st1" d="M3368,390.9v233.3l-191-127v127h-69.7V390.9l192,126v-126H3368z"/>
</g>
</svg>
