<?xml version="1.0" encoding="utf-8"?>
<!-- Generator: Adobe Illustrator 26.5.0, SVG Export Plug-In . SVG Version: 6.00 Build 0)  -->
<svg version="1.1" id="_分離模式" xmlns="http://www.w3.org/2000/svg" xmlns:xlink="http://www.w3.org/1999/xlink" x="0px"
	 y="0px" viewBox="0 0 37.3 141.2" style="enable-background:new 0 0 37.3 141.2;" xml:space="preserve">
<style type="text/css">
	.st0{clip-path:url(#SVGID_00000055686252573613812990000009963704900819826321_);}
	.st1{fill:none;stroke:#C8102C;stroke-width:2;stroke-miterlimit:10;}
	.st2{fill:none;stroke:#E60019;stroke-width:2;stroke-miterlimit:10;}
</style>
<g>
	<g>
		<defs>
			<rect id="SVGID_1_" x="1.2" y="98.5" width="35.1" height="42"/>
		</defs>
		<clipPath id="SVGID_00000065047462488911205270000005982731775127707285_">
			<use xlink:href="#SVGID_1_"  style="overflow:visible;"/>
		</clipPath>
		<g style="clip-path:url(#SVGID_00000065047462488911205270000005982731775127707285_);">
			<g>
				<line class="st1" x1="41.9" y1="182.5" x2="-4.6" y2="136.1"/>
				<line class="st1" x1="41.9" y1="174.5" x2="-4.6" y2="128.1"/>
				<line class="st1" x1="41.9" y1="166.5" x2="-4.6" y2="120.1"/>
				<line class="st1" x1="41.9" y1="158.5" x2="-4.6" y2="112.1"/>
				<line class="st1" x1="41.9" y1="150.6" x2="-4.6" y2="104.1"/>
				<line class="st1" x1="41.9" y1="142.6" x2="-4.6" y2="96.1"/>
				<line class="st1" x1="41.9" y1="134.6" x2="-4.6" y2="88.1"/>
				<line class="st1" x1="41.9" y1="126.6" x2="-4.6" y2="80.1"/>
				<line class="st1" x1="41.9" y1="118.6" x2="-4.6" y2="72.2"/>
				<line class="st1" x1="41.9" y1="110.6" x2="-4.6" y2="64.2"/>
				<line class="st1" x1="41.9" y1="102.6" x2="-4.6" y2="56.2"/>
				<line class="st1" x1="41.9" y1="94.6" x2="-4.6" y2="48.2"/>
				<line class="st1" x1="41.9" y1="86.6" x2="-4.6" y2="40.2"/>
				<line class="st1" x1="41.9" y1="78.7" x2="-4.6" y2="32.2"/>
			</g>
		</g>
	</g>
</g>
<g>
	<line class="st2" x1="3.1" y1="75.4" x2="1.2" y2="77.3"/>
	<line class="st2" x1="3.1" y1="58.9" x2="1.2" y2="57"/>
	<line class="st2" x1="3.1" y1="40.5" x2="1.2" y2="38.6"/>
	<line class="st2" x1="19.2" y1="77.3" x2="17.3" y2="75.4"/>
	<line class="st2" x1="19.2" y1="58.9" x2="17.3" y2="57"/>
	<line class="st2" x1="19.2" y1="40.5" x2="17.3" y2="38.6"/>
	<line class="st2" x1="19.2" y1="22.1" x2="17.3" y2="20.2"/>
	<line class="st2" x1="35.3" y1="77.3" x2="33.4" y2="75.4"/>
	<line class="st2" x1="35.3" y1="57" x2="33.4" y2="58.9"/>
	<line class="st2" x1="35.3" y1="40.5" x2="33.4" y2="38.6"/>
	<line class="st2" x1="35.3" y1="22.1" x2="33.4" y2="20.2"/>
	<line class="st2" x1="3.1" y1="22.3" x2="1.2" y2="20.3"/>
	<line class="st2" x1="3.1" y1="1.9" x2="1.2" y2="3.9"/>
	<line class="st2" x1="19.2" y1="3.9" x2="17.3" y2="1.9"/>
	<line class="st2" x1="35.3" y1="3.9" x2="33.4" y2="1.9"/>
</g>
</svg>
