<?xml version="1.0" encoding="utf-8"?>
<!-- Generator: Adobe Illustrator 26.5.0, SVG Export Plug-In . SVG Version: 6.00 Build 0)  -->
<svg version="1.1" id="_圖層_1" xmlns="http://www.w3.org/2000/svg" xmlns:xlink="http://www.w3.org/1999/xlink" x="0px" y="0px"
	 viewBox="0 0 2265.6 205.5" style="enable-background:new 0 0 2265.6 205.5;" xml:space="preserve">
<style type="text/css">
	.st0{fill:#C8102C;}
</style>
<polygon class="st0" points="1216.7,186.3 1189.2,186.3 1187.2,192.2 1224.9,192.2 1269.5,147.1 1255.7,102.1 1250.2,102.1 
	1261.9,140.4 "/>
<path class="st0" d="M1143.8,205.5l93.3,0l63.3-65l-16.9-57.5l-98.3,0L1143.8,205.5L1143.8,205.5z M1247.8,94.3l1.8,5.9h7.5
	l14.6,47.4l-45.9,46.5l-41.2,0l2.7-7.9h-9.9l31.1-92L1247.8,94.3L1247.8,94.3z"/>
<polygon class="st0" points="1183.8,81 1282.9,81 1281.2,75.1 1175.9,75.1 1131.9,205.5 1141.8,205.5 "/>
<path class="st0" d="M1430.8,155.8l-16.7,49.6h27.1l41.4-122.6l-135.8,0.1l-41.4,122.5h27.8l18.7-55.5l68.9,0l-2,5.9L1430.8,155.8
	L1430.8,155.8z M1366.4,138.4l2.7-7.9h-9.9l12.3-36.3l67.4,0l-2,5.9h12l-12.9,38.2L1366.4,138.4L1366.4,138.4z"/>
<polygon class="st0" points="1436,102 1426.4,130.5 1371,130.5 1369,136.4 1434.4,136.4 1446,102 "/>
<polygon class="st0" points="1345.3,80.9 1483.2,80.9 1485.2,75 1337.4,75 1293.4,205.4 1303.3,205.4 "/>
<polygon class="st0" points="1428.1,157.7 1418.2,157.7 1402.1,205.4 1412,205.4 "/>
<polygon class="st0" points="1622.3,100 1611.1,133.1 1546.2,133.1 1585.1,205.3 1625,205.3 1592.3,144.4 1633.7,144.4 1654.5,82.8 
	1516.8,82.8 1475.5,205.4 1502.9,205.4 1540.5,94.1 1612.3,94.1 1610.3,100 "/>
<polygon class="st0" points="1542.9,131.2 1609.7,131.1 1619.6,102 1609.7,102 1601.8,125.2 1535.9,125.2 1579,205.3 1582.9,205.3 
	"/>
<polygon class="st0" points="1515.4,80.9 1655.1,80.8 1657.1,74.9 1507.5,75 1463.5,205.4 1473.4,205.4 "/>
<polygon class="st0" points="1693.2,82.8 1651.9,205.3 1785.8,205.2 1779.7,193.9 1692.7,193.9 1695.4,186.1 1685.4,186.1 
	1697.7,149.8 1796.2,149.7 1800,138.4 1711.5,138.4 1714.1,130.6 1704.2,130.6 1716.5,94.1 1807.1,94 1820.8,82.7 "/>
<polygon class="st0" points="1775.5,186.1 1697.4,186.1 1695.4,192 1778.7,192 "/>
<polygon class="st0" points="1714.2,136.5 1800.6,136.5 1802.6,130.5 1716.2,130.6 "/>
<polygon class="st0" points="1691.8,80.8 1823.1,80.8 1830.2,74.8 1683.9,74.9 1639.9,205.3 1649.8,205.3 "/>
<polygon class="st0" points="45.9,104.4 44,109.8 85.5,109.8 92.1,104.4 "/>
<polygon class="st0" points="9,150.4 21.5,150.4 33.2,115.3 78.9,115.3 83.7,111.4 42,111.3 44.3,104.4 36.8,104.4 42.5,87.4 
	91.5,87.4 96.2,83.5 31.3,83.4 "/>
<polygon class="st0" points="30.2,81.9 97.9,81.9 104.4,76.5 24.6,76.5 0,150.4 7.4,150.4 "/>
<polygon class="st0" points="171.6,94.4 156.5,139.6 134.5,139.6 137.5,145.1 163.6,145.1 180.5,94.4 "/>
<polygon class="st0" points="104.8,136.4 122.8,82 197.8,82 199.6,76.6 115.8,76.5 97.9,130.1 109.1,150.5 112.5,150.5 "/>
<path class="st0" d="M197.3,83.5l-73.3,0l-17.5,52.7l7.8,14.3l60.8,0L197.3,83.5L197.3,83.5z M136.6,146.6l-3.8-6.9h-3.4l-7.8-14.3
	l12.6-37.9l39.7,0l-1.8,5.4h10.5l-17.9,53.7L136.6,146.6L136.6,146.6z"/>
<polygon class="st0" points="280.1,92.9 273.7,112.1 237.1,112.1 258,150.6 280.4,150.6 261.7,116 285.1,116.1 295.9,83.6 
	220.1,83.6 197.8,150.6 211.2,150.6 232.1,87.5 272.9,87.5 271.1,92.9 "/>
<polygon class="st0" points="234.5,110.6 272.6,110.6 278,94.5 270.6,94.5 267,105.2 229.6,105.1 254.3,150.6 256.3,150.6 "/>
<polygon class="st0" points="219,82 296.4,82.1 298.2,76.6 213.4,76.6 188.8,150.6 196.2,150.6 "/>
<polygon class="st0" points="336,82 420.5,82 426.9,76.6 331,76.6 336.8,87.4 338.9,87.4 "/>
<polygon class="st0" points="369.6,94.4 362.2,94.4 343.4,150.5 350.8,150.5 "/>
<polygon class="st0" points="340.6,87.4 364.5,87.4 362.7,92.9 371.7,92.9 371.6,93.2 352.4,150.5 365.5,150.5 386.5,87.4 
	413.9,87.4 418.6,83.5 338.5,83.5 "/>
<polygon class="st0" points="452.2,113.4 488.9,113.4 499.4,82 514.2,82 516.1,76.6 493.8,76.6 483.2,108 454,108 "/>
<polygon class="st0" points="486.8,124.3 478.1,150.5 491.3,150.5 513.8,83.5 500.5,83.5 490,115 450.1,115 452.5,108 445,108 
	453.2,83.5 440.3,83.5 417.9,150.5 430.8,150.5 441.4,118.9 479.6,118.9 477.8,124.3 "/>
<polygon class="st0" points="439.2,82 453.7,82 455.5,76.6 433.6,76.6 408.9,150.5 416.3,150.5 "/>
<polygon class="st0" points="484.7,125.8 477.3,125.8 469,150.5 476.5,150.5 "/>
<polygon class="st0" points="518.5,136.5 536.6,82.1 611.6,81.9 613.4,76.5 529.5,76.7 511.7,130.3 522.9,150.6 526.3,150.6 "/>
<path class="st0" d="M611.1,83.4l-73.4,0.2l-17.5,52.7l7.8,14.2l60.9-0.2L611.1,83.4L611.1,83.4z M550.4,146.6l-3.8-6.9h-3.4
	l-7.8-14.2L548,87.6l39.7-0.1l-1.8,5.4l10.5,0l-17.8,53.7L550.4,146.6L550.4,146.6z"/>
<polygon class="st0" points="585.4,94.4 570.4,139.6 548.3,139.6 551.3,145.1 577.5,145 594.3,94.3 "/>
<polygon class="st0" points="683.1,124.3 677.3,141.7 671.5,146.5 613,146.5 615.1,150.5 678.1,150.5 691.4,139.3 699.6,115 
	646.2,115 648.5,108 641,108 646.1,92.8 652.7,87.4 702,87.4 706.7,83.5 646,83.5 632.4,94.9 624.4,118.9 675.8,118.9 674,124.3 "/>
<polygon class="st0" points="650.1,108 648.3,113.4 700.1,113.4 701.9,108 "/>
<polygon class="st0" points="631.1,94 645.4,82 708.5,82 715,76.6 639.5,76.6 625.6,88.3 615.3,118.9 622.8,118.9 "/>
<polygon class="st0" points="610.5,145 670.9,145 676,140.8 681,125.8 673.5,125.8 670.5,135.1 665,139.6 605.6,139.6 611.4,150.5 
	613.4,150.5 "/>
<polygon class="st0" points="780.7,139.6 738.6,139.6 736.8,145 783.6,145 "/>
<polygon class="st0" points="735.2,83.5 712.8,150.5 786.5,150.5 784.4,146.5 734.7,146.5 737,139.6 729.5,139.6 736.4,119 
	792.3,119 793.6,115.1 745.2,115.1 747.5,108.2 740.1,108.2 747,87.4 798.4,87.4 803.2,83.5 "/>
<polygon class="st0" points="734.1,82 805,82 811.5,76.6 728.5,76.6 703.7,150.5 711.2,150.5 "/>
<polygon class="st0" points="747.3,113.6 794.1,113.6 795.9,108.2 749.1,108.2 "/>
<polygon class="st0" points="849.1,84.7 828.4,146.6 875.7,121.3 910.9,150.6 933,84.7 917.4,84.7 903.4,126.4 884.6,111.4 
	855.2,126.7 858.8,116.2 853.1,119.1 864.7,84.7 "/>
<polygon class="st0" points="857.8,123.7 884.8,109.7 902.7,123.9 916.3,83.2 933.5,83.2 935.2,77.9 913.4,77.9 899.7,119.1 
	881.3,104.5 860.7,115.2 "/>
<polygon class="st0" points="848,83.2 865.2,83.2 866.9,77.9 845.1,77.9 820.8,150.6 826.5,147.6 "/>
<polygon class="st0" points="968.8,114.2 1004.8,114.2 1015.2,83.2 1029.8,83.2 1031.6,77.9 1009.7,77.9 999.3,108.9 970.6,108.9 
	"/>
<polygon class="st0" points="1002.8,124.9 994.2,150.6 1007.2,150.6 1029.3,84.7 1016.2,84.7 1005.9,115.7 966.8,115.7 969,108.9 
	961.7,108.9 969.8,84.7 957.1,84.7 935,150.6 947.8,150.6 958.1,119.6 995.7,119.6 993.9,124.9 "/>
<polygon class="st0" points="956,83.2 970.3,83.2 972.1,77.9 950.5,77.9 926.2,150.6 933.5,150.6 "/>
<polygon class="st0" points="1000.8,126.4 993.5,126.4 985.3,150.6 992.6,150.6 "/>
<polygon class="st0" points="1032.9,135.5 1050.6,82 1124.4,81.8 1126.1,76.5 1043.6,76.7 1026.2,129.4 1037.2,149.3 1040.5,149.3 
	"/>
<polygon class="st0" points="1098.6,94.1 1083.9,138.5 1062.2,138.6 1065.1,143.9 1090.8,143.8 1107.4,94 "/>
<path class="st0" d="M1123.9,83.3l-72.2,0.2l-17.2,51.8l7.7,14l59.8-0.2L1123.9,83.3L1123.9,83.3z M1064.2,145.4l-3.8-6.8h-3.3
	l-7.7-14l12.4-37.3l39.1-0.1l-1.8,5.3l10.3,0l-17.5,52.8L1064.2,145.4L1064.2,145.4z"/>
<path class="st0" d="M2171,61.4c-59.8,28.6-160.6,100.4-160.6,100.4s7.4,4.9,13.8,7.7c48.7,21.4,120,34.4,133.8,29.9
	c37.5-12.2,79.4-91.6,92.6-128.3c0,0-39.4,15.7-79.3,34.4c-33.4,15.6-53.6,25.7-63.1,30.5c-1.4,0.6-2.1,0.9-2.1,0.9l1.9-0.7
	c-4.3,2.2-6.4,3.2-6.4,3.2l92.9-28.2c-1.7,3.8-26.1,58.9-57.4,65.2c-32.5,6.5-90.1-16.3-90.1-16.3c4.7-3.6,64.7-48.7,206.8-106.6
	c0.2,0,0.4-0.1,0.6-0.2c4.7-1.9,11.1-13,11.2-19.2C2265.6,34,2215.4,38.6,2171,61.4"/>
<path class="st0" d="M1885.1,90.1c0,0,0,0.1,0.1,0.2c0,0-0.1-0.1-0.1-0.1s0.1,0.1,0.1,0.1c1,2.7,11.2,29.4,21.5,42.8
	c10.2,13.1,51.1,23.3,57,24.7c0.4,0.2,0.7,0.3,0.7,0.3c-0.1-0.1-0.2-0.1-0.3-0.2c0.2,0.1,0.3,0.1,0.3,0.1
	C1938.3,139.8,1885.1,90.1,1885.1,90.1"/>
<path class="st0" d="M1998.2,165.8c-3.7-7.1,0.9-16.5,31.2-38.9c27.4-20.3,126-103.2,220.4-125.5c0,0-49.5-8.1-120.1,14.2
	c-25.2,7.9-62.3,43.2-130.2,109.7c-9.2,5.1-42.4-13.9-61.4-23.1c0,0,31.7,50.1,42.7,65.1c17.2,23.3,48.2,36.8,48.2,36.8
	s-1.5-1.6-3.8-4.1C2018.2,192.4,2003.6,175.9,1998.2,165.8"/>
</svg>
