<?xml version="1.0" encoding="UTF-8"?><svg id="_레이어_1" xmlns="http://www.w3.org/2000/svg" viewBox="0 0 670.96 1088.15"><defs><style>.cls-1{fill:#05030b;}.cls-2{fill:#bd1a2d;}</style></defs><g id="_그룹_6340"><path id="_패스_4755-2" class="cls-2" d="M78.66,1067.57c0,7.31-5.93,13.24-13.24,13.24-7.31,0-13.24-5.93-13.24-13.24,0-7.31,5.93-13.24,13.24-13.24,7.31,0,13.23,5.93,13.24,13.24Zm-25.53,0c0,6.78,5.5,12.28,12.28,12.28s12.28-5.5,12.28-12.28-5.5-12.28-12.28-12.28h0c-6.78,0-12.27,5.5-12.28,12.28h0Z"/><circle id="_타원_59-2" class="cls-2" cx="65.42" cy="1067.57" r="6.38"/><rect id="_사각형_1436-2" class="cls-2" x="84.57" y="1066.77" width="6.38" height="1.6"/><path id="_패스_4756-2" class="cls-2" d="M161.94,1035.65l6.38-6.38h6.38l-6.38,6.38h-6.38Z"/><rect id="_사각형_1437-2" class="cls-2" x="169.21" y="1015.71" width="25.53" height="1.6"/><g id="_그룹_6742"><g id="_그룹_6741"><path id="_패스_4764" class="cls-1" d="M99.8,0H56.64l-14.93,13.7v12.76L13.91,52V371.1l-13.91,12.76v320.43l13.9,12.76v319.11l27.82,25.52v12.76l14.93,13.7h43.16l27.81-25.53h415.74l27.81,25.53h43.16l14.93-13.7v-12.76l27.81-25.53v-319.11l13.91-12.76V383.86l-13.91-12.76V51.99l-27.81-25.53V13.7l-14.93-13.7h-43.16l-27.81,25.53H127.62L99.8,0Z"/></g><path id="_패스_4757-2" class="cls-2" d="M644.63,78v243.18l-14.01,12.76v420.56l14.01,12.76v243.18l-28.54,26h-98.82l-14.01-12.76h-27.46l-28.23,12.76-224.59-.08-27.84-12.68h-27.45l-14.02,12.76H54.87l-28.54-26v-243.18l14.01-12.76V333.95l-14.01-12.76V78l28.54-26h98.81l14.01,12.76h27.46l28.23-12.76,224.59,.08,27.84,12.68h27.46l14.01-12.76h98.81l28.54,26Zm-1.75,242.52V78.67l-27.51-25.06h-97.36l-14.01,12.76-28.78-.08-27.84-12.68H223.59l-28.23,12.76h-28.39l-14.01-12.76H55.59l-27.51,25.06v241.86l14.01,12.76v421.88l-14.01,12.77v241.86l27.51,25.06h97.36l14.01-12.76,28.78,.08,27.84,12.68h223.79l28.23-12.76h28.39l14.01,12.76h97.36l27.51-25.06v-241.86l-14.01-12.76V333.29l14.01-12.77Z"/></g><path id="_패스_4758-2" class="cls-2" d="M78.66,20.9c0,7.31-5.93,13.24-13.24,13.24s-13.24-5.93-13.24-13.24,5.93-13.24,13.24-13.24h0c7.31,.01,13.23,5.93,13.24,13.24Zm-25.53,0c0,6.78,5.5,12.28,12.28,12.28,6.78,0,12.28-5.5,12.28-12.28,0-6.78-5.5-12.28-12.28-12.28h0c-6.78,0-12.27,5.5-12.28,12.28h0Z"/><circle id="_타원_60-2" class="cls-2" cx="65.42" cy="20.9" r="6.38"/><rect id="_사각형_1438-2" class="cls-2" x="84.57" y="20.1" width="6.38" height="1.6"/><path id="_패스_4759-2" class="cls-2" d="M161.94,52.81l6.38,6.38h6.38l-6.38-6.38h-6.38Z"/><rect id="_사각형_1439-2" class="cls-2" x="169.21" y="71.16" width="25.53" height="1.6"/><path id="_패스_4761-2" class="cls-2" d="M509.02,1035.65l-6.38-6.38h-6.38l6.38,6.38h6.38Z"/><rect id="_사각형_1441-2" class="cls-2" x="476.23" y="1015.71" width="25.53" height="1.6"/><path id="_패스_4763-2" class="cls-2" d="M509.02,52.81l-6.38,6.38h-6.38l6.38-6.38h6.38Z"/><rect id="_사각형_1443-2" class="cls-2" x="476.23" y="71.16" width="25.53" height="1.6"/><path id="_패스_4760-2" class="cls-2" d="M618.78,1067.57c0,7.31-5.93,13.24-13.24,13.24-7.31,0-13.24-5.93-13.24-13.24s5.93-13.24,13.24-13.24c7.31,0,13.23,5.93,13.24,13.24Zm-25.53,0c0,6.78,5.5,12.28,12.28,12.28s12.28-5.5,12.28-12.28-5.5-12.28-12.28-12.28c-6.78,0-12.27,5.5-12.28,12.28h0Z"/><circle id="_타원_61-2" class="cls-2" cx="605.54" cy="1067.57" r="6.38"/><rect id="_사각형_1440-2" class="cls-2" x="580.02" y="1066.77" width="6.38" height="1.6"/><path id="_패스_4762-2" class="cls-2" d="M618.78,20.9c0,7.31-5.93,13.24-13.24,13.24s-13.24-5.93-13.24-13.24c0-7.31,5.93-13.24,13.24-13.24h0c7.31,0,13.23,5.93,13.24,13.24Zm-25.53,0c0,6.78,5.5,12.28,12.28,12.28,6.78,0,12.28-5.5,12.28-12.28s-5.5-12.28-12.28-12.28h0c-6.78,0-12.27,5.5-12.28,12.28h0Z"/><circle id="_타원_62-2" class="cls-2" cx="605.54" cy="20.9" r="6.38"/><rect id="_사각형_1442-2" class="cls-2" x="580.02" y="20.1" width="6.38" height="1.6"/></g></svg>