<?xml version="1.0" encoding="UTF-8"?><svg id="_레이어_1" xmlns="http://www.w3.org/2000/svg" viewBox="0 0 1088.15 670.96"><defs><style>.cls-1{fill:rgba(3,0,10,.8);}.cls-2{fill:#bd1a2d;}</style></defs><g id="_그룹_6014"><path id="_패스_4764" class="cls-1" d="M1088.15,99.8V56.64l-13.7-14.93h-12.76l-25.53-27.81h-319.11l-12.76-13.91H383.86l-12.76,13.9H51.99l-25.52,27.82H13.7L0,56.64v43.16l25.53,27.81v415.74L0,571.16v43.16l13.7,14.93h12.76l25.53,27.81H371.1l12.76,13.91h320.43l12.76-13.91h319.11l25.53-27.81h12.76l13.7-14.93v-43.16l-25.53-27.81V127.62l25.52-27.82Z"/><path id="_패스_4755-2" class="cls-2" d="M20.59,78.66c-7.31,0-13.24-5.93-13.24-13.24,0-7.31,5.93-13.24,13.24-13.24,7.31,0,13.24,5.93,13.24,13.24,0,7.31-5.93,13.23-13.24,13.24Zm0-25.53c-6.78,0-12.28,5.5-12.28,12.28s5.5,12.28,12.28,12.28,12.28-5.5,12.28-12.28h0c0-6.78-5.5-12.27-12.28-12.28h0Z"/><circle id="_타원_59-2" class="cls-2" cx="20.59" cy="65.42" r="6.38"/><rect id="_사각형_1436-2" class="cls-2" x="19.8" y="84.57" width="1.6" height="6.38"/><path id="_패스_4756-2" class="cls-2" d="M52.5,161.94l6.38,6.38v6.38l-6.38-6.38v-6.38Z"/><rect id="_사각형_1437-2" class="cls-2" x="70.85" y="169.21" width="1.6" height="25.53"/><path id="_패스_4757-2" class="cls-2" d="M1010.16,644.63h-243.18l-12.76-14.01H333.65l-12.76,14.01H77.7l-26-28.54v-98.82l12.76-14.01v-27.46l-12.76-28.23,.08-224.59,12.68-27.84v-27.45l-12.76-14.02V54.86l26-28.54h243.18l12.76,14.01h420.56l12.76-14.01h243.18l26,28.54v98.81l-12.76,14.01v27.46l12.76,28.23-.08,224.59-12.68,27.84v27.46l12.76,14.01v98.81l-26,28.54Zm-242.52-1.75h241.86l25.06-27.51v-97.36l-12.76-14.01,.08-28.78,12.68-27.84V223.58l-12.76-28.23v-28.39l12.76-14.01V55.59l-25.06-27.51h-241.86l-12.76,14.01H332.99l-12.77-14.01H78.36l-25.06,27.51v97.36l12.76,14.01-.08,28.78-12.68,27.84v223.79l12.76,28.23v28.39l-12.76,14.01v97.36l25.06,27.51h241.86l12.76-14.01h421.88l12.77,14.01Z"/><path id="_패스_4758-2" class="cls-2" d="M1067.26,78.66c-7.31,0-13.24-5.93-13.24-13.24s5.93-13.24,13.24-13.24,13.24,5.93,13.24,13.24h0c-.01,7.31-5.93,13.23-13.24,13.24Zm0-25.53c-6.78,0-12.28,5.5-12.28,12.28,0,6.78,5.5,12.28,12.28,12.28,6.78,0,12.28-5.5,12.28-12.28h0c0-6.78-5.5-12.27-12.28-12.28h0Z"/><circle id="_타원_60-2" class="cls-2" cx="1067.26" cy="65.42" r="6.38"/><rect id="_사각형_1438-2" class="cls-2" x="1066.47" y="84.57" width="1.6" height="6.38"/><path id="_패스_4759-2" class="cls-2" d="M1035.35,161.94l-6.38,6.38v6.38l6.38-6.38v-6.38Z"/><rect id="_사각형_1439-2" class="cls-2" x="1015.41" y="169.21" width="1.6" height="25.53"/><path id="_패스_4760-2" class="cls-2" d="M20.59,618.78c-7.31,0-13.24-5.93-13.24-13.24,0-7.31,5.93-13.24,13.24-13.24s13.24,5.93,13.24,13.24c0,7.31-5.93,13.23-13.24,13.24Zm0-25.53c-6.78,0-12.28,5.5-12.28,12.28s5.5,12.28,12.28,12.28,12.28-5.5,12.28-12.28c0-6.78-5.5-12.27-12.28-12.28h0Z"/><circle id="_타원_61-2" class="cls-2" cx="20.59" cy="605.54" r="6.38"/><rect id="_사각형_1440-2" class="cls-2" x="19.8" y="580.02" width="1.6" height="6.38"/><path id="_패스_4761-2" class="cls-2" d="M52.5,509.02l6.38-6.38v-6.38l-6.38,6.38v6.38Z"/><rect id="_사각형_1441-2" class="cls-2" x="70.85" y="476.23" width="1.6" height="25.53"/><path id="_패스_4762-2" class="cls-2" d="M1067.26,618.78c-7.31,0-13.24-5.93-13.24-13.24s5.93-13.24,13.24-13.24c7.31,0,13.24,5.93,13.24,13.24h0c0,7.31-5.93,13.23-13.24,13.24Zm0-25.53c-6.78,0-12.28,5.5-12.28,12.28,0,6.78,5.5,12.28,12.28,12.28s12.28-5.5,12.28-12.28h0c0-6.78-5.5-12.27-12.28-12.28h0Z"/><circle id="_타원_62-2" class="cls-2" cx="1067.26" cy="605.54" r="6.38"/><rect id="_사각형_1442-2" class="cls-2" x="1066.47" y="580.02" width="1.6" height="6.38"/><path id="_패스_4763-2" class="cls-2" d="M1035.35,509.02l-6.38-6.38v-6.38l6.38,6.38v6.38Z"/><rect id="_사각형_1443-2" class="cls-2" x="1015.41" y="476.23" width="1.6" height="25.53"/></g></svg>