<svg xmlns="http://www.w3.org/2000/svg" width="70.828" height="70.828" viewBox="0 0 70.828 70.828">
  <g id="그룹_6442" data-name="그룹 6442" transform="translate(49 -3)">
    <circle id="타원_41" data-name="타원 41" cx="35.414" cy="35.414" r="35.414" transform="translate(-49 3)" fill="#c8102c"/>
    <g id="그룹_6441" data-name="그룹 6441" transform="translate(-48.205 0.645)">
      <path id="패스_4458" data-name="패스 4458" d="M308.818-63.455H308.7l-32.861-5.292a.567.567,0,0,1-.388-.232.475.475,0,0,1-.078-.4l6.665-23.913a.654.654,0,0,1,.581-.4L313-93.85a1.042,1.042,0,0,1,.31.066l2.906,1.521a.514.514,0,0,1,.271.529L309.4-63.885a.593.593,0,0,1-.581.43Zm-32.163-6.185,31.737,5.093,6.859-27.022-2.441-1.257-29.761.132Z" transform="translate(-262.028 116.422)" fill="#fff"/>
      <path id="패스_4459" data-name="패스 4459" d="M349.415-62.605H349.3a.5.5,0,0,1-.426-.6l7.479-27.915a.589.589,0,0,1,.7-.364.494.494,0,0,1,.426.6L350-62.969A.627.627,0,0,1,349.415-62.605ZM362.4-65.45h0l-7.363-.066a.558.558,0,0,1-.581-.5.558.558,0,0,1,.581-.5l6.7.066c-1.008-6.681-2.48-16.306-2.79-17.2a.467.467,0,0,1-.039-.4.589.589,0,0,1,.736-.3c.465.132.5.132,1.938,9.393.7,4.432,1.356,8.9,1.356,8.93a.416.416,0,0,1-.155.4A.508.508,0,0,1,362.4-65.45Z" transform="translate(-307.043 114.846)" fill="#fff"/>
      <path id="패스_4460" data-name="패스 4460" d="M306.349-59.415a.588.588,0,0,1-.465-.2.464.464,0,0,1,.116-.695L322.276-70.3a.674.674,0,0,1,.814.1.464.464,0,0,1-.116.695L306.7-59.514A.7.7,0,0,1,306.349-59.415Zm6.394.86a.588.588,0,0,1-.465-.2.44.44,0,0,1,.116-.695l8.6-5.424a.631.631,0,0,1,.814.1.44.44,0,0,1-.116.695l-8.6,5.424a.7.7,0,0,1-.349.1ZM300.691-60.44a.588.588,0,0,1-.465-.2.464.464,0,0,1,.116-.695l23.289-14.387a.674.674,0,0,1,.814.1.464.464,0,0,1-.116.695L301.04-60.54a.7.7,0,0,1-.349.1Zm27.164-19.613h-.077a.368.368,0,0,1-.31-.4l.7-2.745a.429.429,0,0,1,.465-.265.368.368,0,0,1,.31.4l-.7,2.745A.4.4,0,0,1,327.856-80.054Zm-1.124,4.134h-.077a.368.368,0,0,1-.31-.4l.736-2.712a.429.429,0,0,1,.465-.265.368.368,0,0,1,.31.4l-.736,2.712A.4.4,0,0,1,326.732-75.919ZM326-73.273h-.077c-.194-.033-.349-.232-.271-.4L326-74.927a.377.377,0,0,1,.465-.232c.194.033.349.232.271.4l-.349,1.257A.385.385,0,0,1,326-73.273Zm-3.488,13.494h-.077c-.194-.033-.349-.232-.271-.4l.775-2.745a.377.377,0,0,1,.465-.232c.194.033.349.232.271.4l-.775,2.745A.424.424,0,0,1,322.508-59.779Z" transform="translate(-277.191 109.473)" fill="#fff"/>
    </g>
  </g>
</svg>
