<svg id="그룹_5861" data-name="그룹 5861" xmlns="http://www.w3.org/2000/svg" width="70.828" height="70.828" viewBox="0 0 70.828 70.828">
  <circle id="타원_40" data-name="타원 40" cx="35.414" cy="35.414" r="35.414" fill="#c8102c"/>
  <path id="패스_4453" data-name="패스 4453" d="M54.264,106.262a1.658,1.658,0,0,1-.973-.3,1.2,1.2,0,0,1-.233-1.86l17.626-18.8a1.735,1.735,0,0,1,2.179-.2,1.2,1.2,0,0,1,.233,1.86l-17.626,18.8A1.754,1.754,0,0,1,54.264,106.262Z" transform="translate(-36.01 -55.088)" fill="#fff"/>
  <path id="패스_4454" data-name="패스 4454" d="M120.764,107.544a1.123,1.123,0,0,1-.778-.3L101.854,87.784a.731.731,0,0,1,.156-1.162,1.054,1.054,0,0,1,1.362.133L121.5,106.215a.731.731,0,0,1-.156,1.162,1.172,1.172,0,0,1-.584.166Z" transform="translate(-65.896 -56.171)" fill="#fff"/>
  <path id="패스_4455" data-name="패스 4455" d="M92.407,68.468h-.078a.537.537,0,0,1-.506-.565,12.251,12.251,0,0,0-4.591-11.889A17.683,17.683,0,0,0,75.793,52h-.078a17.482,17.482,0,0,0-11.439,4.085,12.916,12.916,0,0,0-4.708,9.8,9.653,9.653,0,0,0,.156,1.827.537.537,0,0,1-.506.565.594.594,0,0,1-.661-.432,10.844,10.844,0,0,1-.156-1.959,13.757,13.757,0,0,1,5.058-10.494A18.878,18.878,0,0,1,75.715,51h.078a18.9,18.9,0,0,1,12.257,4.317,13.649,13.649,0,0,1,5.136,10.461,14.4,14.4,0,0,1-.195,2.258A.6.6,0,0,1,92.407,68.468Z" transform="translate(-39.484 -32.505)" fill="#fff"/>
  <path id="패스_4456" data-name="패스 4456" d="M52.7,94.88a.547.547,0,0,1-.389-.133l-4.4-3.454a.461.461,0,0,1-.039-.7.679.679,0,0,1,.817-.033l3.969,3.122L56.2,90.264a.632.632,0,0,1,.817-.033.435.435,0,0,1,.039.7l-3.93,3.786a.539.539,0,0,1-.428.166Z" transform="translate(-32.97 -58.618)" fill="#fff"/>
</svg>
