<svg xmlns="http://www.w3.org/2000/svg" width="71" height="71" viewBox="0 0 71 71">
  <g id="그룹_5878" data-name="그룹 5878" transform="translate(-1715 -9982)">
    <circle id="타원_226" data-name="타원 226" cx="35.5" cy="35.5" r="35.5" transform="translate(1715 9982)" fill="#c8102c"/>
    <path id="패스_5116" data-name="패스 5116" d="M-456.657,65.7l-3.387,3.387V94.67h0l-4.605,4.724,1.486,1.723h53.69l1.486-1.723-4.605-4.724h0V69.057l-3.447-3.357Zm40.141,1.188,2.763,2.674V93.451h-45.1V69.563l2.674-2.674Zm-28.375,32.505,1.842-2.912h13.489l1.842,2.912Z" transform="translate(2186.56 9934.061)" fill="#fff"/>
    <g id="그룹_5874" data-name="그룹 5874" transform="translate(1754.713 10012.744)">
      <path id="패스_4462" data-name="패스 4462" d="M-353,110.945v2.11h1.545V114.6H-353v3.952h-1.248V109.4h3.209v1.545Z" transform="translate(354.25 -109.4)" fill="#fff"/>
      <path id="패스_4463" data-name="패스 4463" d="M-336.249,113.055V109.4H-335v9.181h-1.248V114.6H-338v3.952h-1.248V109.4H-338v3.655Z" transform="translate(343.707 -109.4)" fill="#fff"/>
      <path id="패스_4464" data-name="패스 4464" d="M-315.569,112.668v2.644c0,2.169-.743,3.268-2.2,3.268h-1.783V109.4h1.753C-316.311,109.4-315.569,110.5-315.569,112.668Zm-1.218,2.585v-2.526a2.892,2.892,0,0,0-.238-1.337.87.87,0,0,0-.832-.416h-.416v6.061h.386a.88.88,0,0,0,.862-.446A3.072,3.072,0,0,0-316.787,115.253Z" transform="translate(329.86 -109.4)" fill="#fff"/>
    </g>
    <g id="그룹_5875" data-name="그룹 5875" transform="translate(1731.062 10006.119)">
      <path id="패스_4465" data-name="패스 4465" d="M-429.779,90.1v3.387a5.177,5.177,0,0,1-.267,1.753.8.8,0,0,0,.654.3v1.515h-.03a1.507,1.507,0,0,1-1.278-.891,1.77,1.77,0,0,1-1.129.357,1.689,1.689,0,0,1-1.515-.773,4.266,4.266,0,0,1-.505-2.228V90.1a4.121,4.121,0,0,1,.505-2.228,1.66,1.66,0,0,1,1.515-.773,1.774,1.774,0,0,1,1.545.773A3.869,3.869,0,0,1-429.779,90.1Zm-2.02,4.843a.822.822,0,0,0,.475-.149c-.208-.386-.386-.654-.535-.713V92.567a.936.936,0,0,1,.505.267,2.089,2.089,0,0,1,.386.565h.03V89.863a2,2,0,0,0-.178-.951.667.667,0,0,0-.624-.327.7.7,0,0,0-.624.327,2,2,0,0,0-.178.951v3.8a2,2,0,0,0,.178.951C-432.3,94.825-432.1,94.944-431.8,94.944Z" transform="translate(433.85 -87.1)" fill="#fff"/>
      <path id="패스_4466" data-name="패스 4466" d="M-412.149,91.055V87.4h1.248v9.181h-1.248V92.6H-413.9v3.952h-1.248V87.4h1.248v3.655Z" transform="translate(420.706 -87.311)" fill="#fff"/>
      <path id="패스_4467" data-name="패스 4467" d="M-391.4,90.668v2.644c0,2.169-.743,3.268-2.2,3.268h-1.753V87.4h1.753C-392.141,87.4-391.4,88.5-391.4,90.668Zm-1.248,2.585V90.728a2.893,2.893,0,0,0-.238-1.337.87.87,0,0,0-.832-.416h-.416v6.061h.386a.88.88,0,0,0,.862-.446A2.69,2.69,0,0,0-392.646,93.253Z" transform="translate(406.789 -87.311)" fill="#fff"/>
    </g>
    <rect id="사각형_2504" data-name="사각형 2504" width="22.73" height="0.416" transform="matrix(0.496, -0.869, 0.869, 0.496, 1744.422, 10024.406)" fill="#fff"/>
  </g>
</svg>
