<svg xmlns="http://www.w3.org/2000/svg" width="71" height="71" viewBox="0 0 71 71">
  <g id="그룹_5877" data-name="그룹 5877" transform="translate(-1715 -9877)">
    <circle id="타원_225" data-name="타원 225" cx="35.5" cy="35.5" r="35.5" transform="translate(1715 9877)" fill="#c8102c"/>
    <path id="패스_5117" data-name="패스 5117" d="M164.25-195.417c10.447-.223,14.42,5.357,20.759,9.107a19.126,19.126,0,0,0,5.089,1.92c1.339.134,2.589.268,3.929.4a23.778,23.778,0,0,1-4.732.134c-6.429-1.071-9.6-4.911-14.465-7.411-3.75-1.964-9.2-2.9-13.706-.938a12.266,12.266,0,0,0-4.777,3.527c-.4.58-.848,1.116-1.295,1.7v-.134c-.58-.446-1.964-1.83-2.054-2.545.625-.625,1.205-1.25,1.83-1.875a18.451,18.451,0,0,1,3.795-2.455,21.438,21.438,0,0,1,3.616-1.161c.625-.089,1.339-.134,2.009-.268Z" transform="translate(1583.981 10092.586)" fill="#fff" fill-rule="evenodd"/>
    <path id="패스_5118" data-name="패스 5118" d="M169.7-187.511c10.134-.134,13.348,6.831,21.072,9.241a15.537,15.537,0,0,0,6.7.536c.848-.179,1.607-.357,2.455-.536v.089c-.714.268-1.429.491-2.143.759a16.148,16.148,0,0,1-7.991.089,33.2,33.2,0,0,1-7.9-3.795c-1.83-1.116-3.393-2.545-5.491-3.393a12.935,12.935,0,0,0-8.706-.223,11.5,11.5,0,0,0-2.768,1.7,11.009,11.009,0,0,0-3.08,4.018c-.134-.089-.179-.134-.312-.223-.4-.848-1.7-1.518-1.83-2.366l1.071-1.473a12.122,12.122,0,0,1,4.375-3.214c1.071-.312,2.1-.625,3.17-.937a5.061,5.061,0,0,1,1.384-.268Z" transform="translate(1580.272 10088.207)" fill="#fff" fill-rule="evenodd"/>
    <path id="패스_5119" data-name="패스 5119" d="M154.59-179.91c3.661-.045,5.938,1.563,8.17,2.991,3.125,1.92,5.938,4.018,9.688,5.313a12.233,12.233,0,0,0,5.848.714,43.33,43.33,0,0,0,6.92-2.054c-.045.045-.045.089-.089.134-2.054.848-3.438,2.054-6.161,2.679-5.938,1.339-11.965-2.1-15.4-4.241-1.83-1.161-3.571-2.545-6.027-3.17a6.642,6.642,0,0,0-8.125,7.634c-1.116-1.295-2.277-2.545-3.393-3.795a9.37,9.37,0,0,1,6.027-5.714C152.938-179.642,153.786-179.776,154.59-179.91Zm-21.34,7.143a1.177,1.177,0,0,1,.714.312c.045.223.089.4.134.625a.835.835,0,0,1-.848.58c-.134-.134-.313-.179-.446-.313-.045-.223-.089-.4-.134-.625C132.759-172.544,132.893-172.544,133.25-172.767Zm-3.393.268c.179.045.357.045.536.089a.784.784,0,0,1,.179.223.57.57,0,0,1,.089.536.658.658,0,0,1-.446.4c-.357-.045-.536-.134-.625-.4a.6.6,0,0,1-.089-.357A1.983,1.983,0,0,1,129.857-172.5Z" transform="translate(1596.989 10083.998)" fill="#fff" fill-rule="evenodd"/>
    <path id="패스_5120" data-name="패스 5120" d="M150.62-162.513c1.741-.089,3.036,1.563,1.92,3.036a3.807,3.807,0,0,1-1.339.848c.134,2.545-.357,2.321-2.455,2.768-.4,1.071-1.964,2.545-3.036,1.071-1.205-1.652.58-2.679,2.009-2.634l.4-1.339c.357-.268.759-.491,1.071-.759-.045-.357-.045-.67-.089-.982C149.147-161.8,149.817-162.067,150.62-162.513Zm-21.7.089c.223.045.4.045.625.089a.965.965,0,0,1,.446.982c-.134.179-.179.357-.313.536-.223.045-.4.089-.625.134a.936.936,0,0,1-.625-.313,2.242,2.242,0,0,1-.089-.937C128.566-162.112,128.745-162.29,128.923-162.424Zm-9.509.4c.179.089.357.134.536.223.045.134.045.268.089.4-.134.223-.179.313-.58.357a1.153,1.153,0,0,1-.4-.4C119.057-161.8,119.146-161.8,119.414-162.022Zm12.545.982a1.093,1.093,0,0,1,1.071.714,1.112,1.112,0,0,1-.089.848c-.357.268-.714.625-1.25.357C130.575-159.567,131.2-160.728,131.959-161.04Zm-7.366.536a.6.6,0,0,1,.625.313.57.57,0,0,1,.089.536c-.134.223-.134.268-.357.357h-.4l-.357-.357c.045-.223.089-.4.134-.625C124.37-160.37,124.5-160.415,124.593-160.5Zm-8.17.134c.134.045.268.045.4.089a.449.449,0,0,0,.045.134c.045.223.045.268-.179.4-.134.045-.179.045-.312.089l-.179-.179v-.357C116.334-160.281,116.334-160.326,116.423-160.37Zm4.911.045c.4,0,.714.268.58.58-.045.134-.089.179-.134.313-.134.045-.223.089-.357.134-.223-.134-.313-.134-.4-.357v-.313C121.155-160.1,121.2-160.192,121.334-160.326Zm6.652.357c.491.134.714.313.759.848a1.043,1.043,0,0,1-.446.536h-.625c-.134-.134-.179-.268-.312-.4a.884.884,0,0,1,.134-.759A5.243,5.243,0,0,1,127.986-159.969Zm6.652.536a1.461,1.461,0,0,1,1.161.4,1.984,1.984,0,0,1,.089,1.339c-.312.268-.625.58-1.071.446C133.254-157.379,133.79-158.986,134.638-159.433Zm-16.384.089c.313.134.357.134.4.446a.784.784,0,0,0-.179.223C117.852-158.585,117.807-159.12,118.254-159.344Z" transform="translate(1604.352 10074.37)" fill="#fff" fill-rule="evenodd"/>
    <path id="패스_5121" data-name="패스 5121" d="M158.072-154.214c2.946-.134,2.813,3.214.089,3.705-.134,1.205-.179,2.857-2.009,2.455-.357-.089-.58-.313-.848-.313.625,2.054-2.232,2.5-2.9,1.071a1.725,1.725,0,0,1,0-1.25c.714-1.83,1.875-.536,2.545-.848-.491-1.607.893-1.83,1.875-2.277C156.822-153.276,156.6-153.455,158.072-154.214Zm-22.59.179c.58.134.759.268.938.759a.867.867,0,0,1-1.25.848.933.933,0,0,1-.446-.937c.134-.179.179-.357.313-.536A1.31,1.31,0,0,0,135.482-154.035Zm-7.411.357.4.134.134.536a1.12,1.12,0,0,0-.179.313c-.134.045-.268.045-.4.089-.089-.045-.134-.089-.223-.134l-.134-.536A3.41,3.41,0,0,1,128.071-153.678Zm-3.3.089c.268.089.223.045.357.223v.4c-.134.045-.179.089-.313.134a.8.8,0,0,1-.312-.223v-.4C124.589-153.544,124.679-153.544,124.768-153.589Zm17.322.134c2.321-.134,1.83,3.036-.357,2.321A1.374,1.374,0,0,1,142.09-153.455Zm-10.848.357a1.5,1.5,0,0,1,.714.223c.045.045.045.089.089.134-.045.134-.045.313-.089.446-.134.134-.179.223-.313.357-.134-.045-.312-.045-.446-.089-.134-.134-.223-.179-.357-.312.045-.134.045-.312.089-.446.045-.179.179-.179.312-.313Zm7.009.67c.848,0,1.25.536,1.071,1.384a1.123,1.123,0,0,1-1.071.536.969.969,0,0,1-.625-.625C137.179-151.892,137.848-152.2,138.25-152.428Zm6.83.223a1.42,1.42,0,0,1,.58,2.768C143.875-149.035,143.295-151.357,145.081-152.2Zm-10.848.4c.179.045.357.045.536.089.134.134.223.268.357.4.045.134.045.268.089.4-.134.223-.134.357-.4.446-.58.357-.893-.179-1.071-.625l.134-.4A.827.827,0,0,1,134.232-151.8Zm14.063.045a1.539,1.539,0,0,1,.4,3.036C146.866-148.321,146.2-150.866,148.3-151.758Zm-7.143.937a2.978,2.978,0,0,1,.938.4,1.425,1.425,0,0,1-.179,1.563,1.143,1.143,0,0,1-.848.179,1.346,1.346,0,0,1-.759-.357,2.149,2.149,0,0,1-.179-.982C140.393-150.508,140.616-150.553,141.152-150.821Z" transform="translate(1599.757 10069.777)" fill="#fff" fill-rule="evenodd"/>
    <path id="패스_5122" data-name="패스 5122" d="M175.359-146.313c1.83-.089,2.946,1.563,1.83,2.991-.4.536-1.83.491-2.054.848-.045.268-.045.491-.089.759a1.746,1.746,0,0,1-2.321,1.161,1.8,1.8,0,0,1-.223-3.036c.357-.223,1.295-.134,1.473-.446.045-.312.045-.625.089-.937C174.243-145.778,174.779-146,175.359-146.313Zm-23.438.625a1.815,1.815,0,0,1,.848.357,1.784,1.784,0,0,1,.089.848c-.134.134-.312.268-.446.4-.938.357-1.25-.536-1.071-1.25C151.475-145.42,151.7-145.554,151.921-145.688Zm6.7.759a1.218,1.218,0,0,1,.58,2.366C157.457-142.117,157.546-144.26,158.618-144.929Zm6.518.759a1.466,1.466,0,0,1,.4,2.9C163.8-140.911,163.305-143.322,165.135-144.17Zm-3.3.089a1.361,1.361,0,0,1,.625,2.634C160.493-140.956,160.359-143.367,161.832-144.081Zm-7.366.134c.268.045.491.045.759.089a1.08,1.08,0,0,1,.536,1.071c-.134.357-.58.848-1.071.714a.937.937,0,0,1-.848-1.071A1.59,1.59,0,0,1,154.466-143.947Z" transform="translate(1584.926 10065.402)" fill="#fff" fill-rule="evenodd"/>
    <path id="패스_5123" data-name="패스 5123" d="M163.88-137.315c2.1-.134,1.384,2.545.179,2.1a1.013,1.013,0,0,1-.848-.58C162.764-136.511,163.389-137.047,163.88-137.315Zm12.991.134a1.607,1.607,0,0,1,.446,3.17,1.6,1.6,0,0,1-1.7-2.321C175.934-136.869,176.38-136.958,176.871-137.181Zm-9.688.848a1.245,1.245,0,0,1,.312,2.455C165.934-133.565,165.576-135.574,167.184-136.333Z" transform="translate(1578.414 10060.423)" fill="#fff" fill-rule="evenodd"/>
    <path id="패스_5124" data-name="패스 5124" d="M181.432-134.709a1.466,1.466,0,0,1,.357,2.9C180-131.45,179.512-133.861,181.432-134.709Zm-3.438.313a1.359,1.359,0,0,1,.625,2.634C176.834-131.316,176.432-133.5,177.994-134.4Z" transform="translate(1570.683 10058.978)" fill="#fff" fill-rule="evenodd"/>
  </g>
</svg>
