<svg xmlns="http://www.w3.org/2000/svg" width="70.828" height="70.828" viewBox="0 0 70.828 70.828">
  <g id="그룹_6440" data-name="그룹 6440" transform="translate(0 -10)">
    <circle id="타원_39" data-name="타원 39" cx="35.414" cy="35.414" r="35.414" transform="translate(0 10)" fill="#c8102c"/>
    <path id="패스_4457" data-name="패스 4457" d="M52.434,54.253H49.792v-.392a1.805,1.805,0,0,0-.383-1.177,1.652,1.652,0,0,0-1.34-.425,1.76,1.76,0,0,0-1.34.425,1.663,1.663,0,0,0-.421,1.209v4.968a1.663,1.663,0,0,0,.421,1.209,1.9,1.9,0,0,0,1.34.392,1.63,1.63,0,0,0,1.417-.49,2.208,2.208,0,0,0,.345-1.307v-.686h2.642V58.5A3.764,3.764,0,0,1,51.4,61.411a4.7,4.7,0,0,1-3.332,1.013,4.663,4.663,0,0,1-3.293-1.013,3.757,3.757,0,0,1-1.111-2.876V54.122a3.784,3.784,0,0,1,1.111-2.909A4.823,4.823,0,0,1,48.069,50.2C50.979,50.233,52.434,51.573,52.434,54.253Zm11.029-.294a2.977,2.977,0,0,1-1.3,2.68,6.11,6.11,0,0,1-3.523.882H57.374v4.772H54.732V50.4h3.944a6.061,6.061,0,0,1,3.485.882A2.977,2.977,0,0,1,63.463,53.959Zm-2.642,0a1.572,1.572,0,0,0-.5-1.275,2.086,2.086,0,0,0-1.417-.425H57.413v3.367h1.493a2.086,2.086,0,0,0,1.417-.425A1.5,1.5,0,0,0,60.821,53.959Zm9.191,6.472c1.264,0,1.876-.556,1.876-1.667V50.4H74.53v8.4a3.236,3.236,0,0,1-1.149,2.68,5.344,5.344,0,0,1-3.408.948,5.225,5.225,0,0,1-3.37-.948,3.279,3.279,0,0,1-1.149-2.68V50.4H68.1v8.367c.038,1.111.651,1.667,1.915,1.667ZM52.32,73.995H49.677v-.065c0-1.307-.536-1.961-1.647-1.961a1.76,1.76,0,0,0-1.34.425,1.7,1.7,0,0,0-.383,1.209V78.57a1.717,1.717,0,0,0,.421,1.209,1.8,1.8,0,0,0,1.3.425,1.572,1.572,0,0,0,1.187-.458,1.638,1.638,0,0,0,.421-1.242v-.686H47.763V75.956H52.32v6.079H50.941l-.421-.981a4.6,4.6,0,0,1-1.187.85,3.226,3.226,0,0,1-1.379.294,4.52,4.52,0,0,1-3.217-1.013,3.764,3.764,0,0,1-1.072-2.909V73.962c0-2.647,1.455-3.955,4.4-3.955a4.38,4.38,0,0,1,3.14,1.013A4.077,4.077,0,0,1,52.32,73.995ZM63.463,73.7a2.977,2.977,0,0,1-1.3,2.68,6.11,6.11,0,0,1-3.523.882H57.374v4.772H54.732V70.17h3.944a6.061,6.061,0,0,1,3.485.882A2.886,2.886,0,0,1,63.463,73.7Zm-2.642,0a1.572,1.572,0,0,0-.5-1.275A2.086,2.086,0,0,0,58.906,72H57.413v3.367h1.493a2.086,2.086,0,0,0,1.417-.425A1.5,1.5,0,0,0,60.821,73.7Zm9.191,6.472c1.264,0,1.876-.556,1.876-1.667V70.138H74.53v8.4a3.236,3.236,0,0,1-1.149,2.68,5.344,5.344,0,0,1-3.408.948,5.225,5.225,0,0,1-3.37-.948,3.28,3.28,0,0,1-1.149-2.68v-8.4H68.1v8.367c.038,1.111.651,1.667,1.915,1.667ZM82.419,67.686H34.781a.761.761,0,1,1,0-1.5H82.419a.761.761,0,1,1,0,1.5Z" transform="translate(-23.305 -21.2)" fill="#fff"/>
  </g>
</svg>
