<svg xmlns="http://www.w3.org/2000/svg" xmlns:xlink="http://www.w3.org/1999/xlink" width="45.799" height="465.906" viewBox="0 0 45.799 465.906">
  <defs>
    <clipPath id="clip-path">
      <rect id="SVGID" width="50.331" height="42.082" fill="none"/>
    </clipPath>
  </defs>
  <g id="rog" transform="translate(2.444 2.449)">
    <g id="向量圖智慧型物件" transform="matrix(0, -1, 1, 0, 16.154, 463.457)">
      <g id="그룹_30" data-name="그룹 30" transform="translate(0 0)">
        <rect id="사각형_29" data-name="사각형 29" width="1.886" height="1.865" transform="matrix(-1, 0, 0, -1, 259.734, 5.42)" fill="#dc0012"/>
        <rect id="사각형_30" data-name="사각형 30" width="1.886" height="1.865" transform="matrix(-1, 0, 0, -1, 213.835, 5.42)" fill="#dc0012"/>
        <rect id="사각형_31" data-name="사각형 31" width="1.886" height="1.865" transform="matrix(-1, 0, 0, -1, 167.935, 5.42)" fill="#dc0012"/>
        <rect id="사각형_32" data-name="사각형 32" width="1.886" height="1.865" transform="matrix(-1, 0, 0, -1, 122.036, 5.42)" fill="#dc0012"/>
        <rect id="사각형_33" data-name="사각형 33" width="1.886" height="1.865" transform="matrix(-1, 0, 0, -1, 76.136, 5.42)" fill="#dc0012"/>
        <rect id="사각형_34" data-name="사각형 34" width="1.886" height="1.865" transform="matrix(-1, 0, 0, -1, 30.237, 5.42)" fill="#dc0012"/>
        <rect id="사각형_35" data-name="사각형 35" width="2.569" height="8.892" transform="matrix(-1, 0, 0, -1, 2.569, 8.892)" fill="#dc0012"/>
      </g>
    </g>
    <g id="向量圖智慧型物件_拷貝" data-name="向量圖智慧型物件 拷貝" transform="matrix(0, -1, 1, 0, 0, 166.114)">
      <g id="그룹_40" data-name="그룹 40" transform="translate(0 0)">
        <g id="그룹_38" data-name="그룹 38">
          <g id="그룹_37" data-name="그룹 37" clip-path="url(#clip-path)">
            <g id="그룹_36" data-name="그룹 36" transform="translate(-59.987 -6.858)">
              <line id="선_181" data-name="선 181" y1="55.634" x2="55.702" transform="translate(0 0)" fill="none" stroke="#cb0015" stroke-miterlimit="10" stroke-width="6.931"/>
              <line id="선_182" data-name="선 182" y1="55.634" x2="55.702" transform="translate(9.581 0)" fill="none" stroke="#cb0015" stroke-miterlimit="10" stroke-width="6.931"/>
              <line id="선_183" data-name="선 183" y1="55.634" x2="55.703" transform="translate(19.161 0)" fill="none" stroke="#cb0015" stroke-miterlimit="10" stroke-width="6.931"/>
              <line id="선_184" data-name="선 184" y1="55.634" x2="55.702" transform="translate(28.742 0)" fill="none" stroke="#cb0015" stroke-miterlimit="10" stroke-width="6.931"/>
              <line id="선_185" data-name="선 185" y1="55.634" x2="55.702" transform="translate(38.322 0)" fill="none" stroke="#cb0015" stroke-miterlimit="10" stroke-width="6.931"/>
              <line id="선_186" data-name="선 186" y1="55.634" x2="55.703" transform="translate(47.903 0)" fill="none" stroke="#cb0015" stroke-miterlimit="10" stroke-width="6.931"/>
              <line id="선_187" data-name="선 187" y1="55.634" x2="55.702" transform="translate(57.483 0)" fill="none" stroke="#cb0015" stroke-miterlimit="10" stroke-width="6.931"/>
              <line id="선_188" data-name="선 188" y1="55.634" x2="55.702" transform="translate(67.064 0)" fill="none" stroke="#cb0015" stroke-miterlimit="10" stroke-width="6.931"/>
              <line id="선_189" data-name="선 189" y1="55.634" x2="55.703" transform="translate(76.644 0)" fill="none" stroke="#cb0015" stroke-miterlimit="10" stroke-width="6.931"/>
              <line id="선_190" data-name="선 190" y1="55.634" x2="55.702" transform="translate(86.225 0)" fill="none" stroke="#cb0015" stroke-miterlimit="10" stroke-width="6.931"/>
              <line id="선_191" data-name="선 191" y1="55.634" x2="55.702" transform="translate(95.806 0)" fill="none" stroke="#cb0015" stroke-miterlimit="10" stroke-width="6.931"/>
              <line id="선_192" data-name="선 192" y1="55.634" x2="55.703" transform="translate(105.386 0)" fill="none" stroke="#cb0015" stroke-miterlimit="10" stroke-width="6.931"/>
              <line id="선_193" data-name="선 193" y1="55.634" x2="55.702" transform="translate(114.967 0)" fill="none" stroke="#cb0015" stroke-miterlimit="10" stroke-width="6.931"/>
              <line id="선_194" data-name="선 194" y1="55.634" x2="55.702" transform="translate(124.547 0)" fill="none" stroke="#cb0015" stroke-miterlimit="10" stroke-width="6.931"/>
              <line id="선_195" data-name="선 195" y1="55.634" x2="55.703" transform="translate(134.128 0)" fill="none" stroke="#cb0015" stroke-miterlimit="10" stroke-width="6.931"/>
            </g>
          </g>
        </g>
        <g id="그룹_39" data-name="그룹 39" transform="translate(75.755 0.008)">
          <line id="선_196" data-name="선 196" x1="2.311" y1="2.309" fill="none" stroke="#dc0012" stroke-miterlimit="10" stroke-width="6.931"/>
          <line id="선_197" data-name="선 197" y1="2.309" x2="2.311" transform="translate(22.055 0)" fill="none" stroke="#dc0012" stroke-miterlimit="10" stroke-width="6.931"/>
          <line id="선_198" data-name="선 198" y1="2.309" x2="2.311" transform="translate(44.109 0)" fill="none" stroke="#dc0012" stroke-miterlimit="10" stroke-width="6.931"/>
          <line id="선_199" data-name="선 199" y1="2.308" x2="2.311" transform="translate(0 19.293)" fill="none" stroke="#dc0012" stroke-miterlimit="10" stroke-width="6.931"/>
          <line id="선_200" data-name="선 200" y1="2.308" x2="2.311" transform="translate(22.055 19.293)" fill="none" stroke="#dc0012" stroke-miterlimit="10" stroke-width="6.931"/>
          <line id="선_201" data-name="선 201" y1="2.308" x2="2.311" transform="translate(44.109 19.293)" fill="none" stroke="#dc0012" stroke-miterlimit="10" stroke-width="6.931"/>
          <line id="선_202" data-name="선 202" y1="2.308" x2="2.311" transform="translate(66.164 19.293)" fill="none" stroke="#dc0012" stroke-miterlimit="10" stroke-width="6.931"/>
          <line id="선_203" data-name="선 203" y1="2.309" x2="2.311" transform="translate(0 38.586)" fill="none" stroke="#dc0012" stroke-miterlimit="10" stroke-width="6.931"/>
          <line id="선_204" data-name="선 204" x1="2.311" y1="2.309" transform="translate(22.055 38.586)" fill="none" stroke="#dc0012" stroke-miterlimit="10" stroke-width="6.931"/>
          <line id="선_205" data-name="선 205" y1="2.309" x2="2.311" transform="translate(44.109 38.586)" fill="none" stroke="#dc0012" stroke-miterlimit="10" stroke-width="6.931"/>
          <line id="선_206" data-name="선 206" y1="2.309" x2="2.311" transform="translate(66.164 38.586)" fill="none" stroke="#dc0012" stroke-miterlimit="10" stroke-width="6.931"/>
          <line id="선_207" data-name="선 207" y1="2.309" x2="2.311" transform="translate(65.993 0)" fill="none" stroke="#dc0012" stroke-miterlimit="10" stroke-width="6.931"/>
          <line id="선_208" data-name="선 208" x1="2.311" y1="2.309" transform="translate(88.048 0)" fill="none" stroke="#dc0012" stroke-miterlimit="10" stroke-width="6.931"/>
          <line id="선_209" data-name="선 209" y1="2.308" x2="2.311" transform="translate(88.048 19.293)" fill="none" stroke="#dc0012" stroke-miterlimit="10" stroke-width="6.931"/>
          <line id="선_210" data-name="선 210" y1="2.309" x2="2.311" transform="translate(88.048 38.586)" fill="none" stroke="#dc0012" stroke-miterlimit="10" stroke-width="6.931"/>
        </g>
      </g>
    </g>
  </g>
</svg>
