<svg xmlns="http://www.w3.org/2000/svg" width="382.209" height="69.174" viewBox="0 0 382.209 69.174">
  <g id="그룹_2107" data-name="그룹 2107" transform="translate(8914 193.589)">
    <g id="그룹_2106" data-name="그룹 2106" transform="translate(-8914 -193.589)">
      <path id="패스_393" data-name="패스 393" d="M548.8,244.69a36.8,36.8,0,0,0,4.673,2.616c16.5,7.242,40.642,11.656,45.339,10.131,12.7-4.117,26.918-31.052,31.392-43.475,0,0-13.345,5.314-26.881,11.659-11.309,5.3-18.175,8.7-21.406,10.333-.351.144-.567.23-.661.266l.578-.223c-1.457.736-2.148,1.1-2.148,1.1L618.272,225.4l-7.088,2.181s-8.449,19.857-19.439,22.068-30.516-5.512-30.542-5.522c1.614-1.239,21.938-16.49,70.072-36.132.062-.019.127-.04.192-.058,1.586-.648,3.751-4.393,3.815-6.52,0,0-17.01,1.544-32.054,9.263C582.972,220.353,548.8,244.69,548.8,244.69Zm47.332,7.326h0c-.323.119-.643.225-.963.311C595.491,252.242,595.811,252.136,596.135,252.016Zm25.856-41.057q4.438-1.589,8.85-2.834Q626.422,209.4,621.99,210.959Z" transform="translate(-506.349 -189.892)" fill="#c8102c"/>
      <path id="패스_394" data-name="패스 394" d="M591.131,246.823l-.057.021Z" transform="translate(-516.22 -200.495)" fill="#c8102c"/>
      <path id="패스_395" data-name="패스 395" d="M493.414,226.2s.011.027.025.066l-.025-.023a.487.487,0,0,0,.036.047c.366.98,3.791,9.991,7.3,14.509,3.442,4.444,17.35,7.905,19.309,8.374l.238.1-.1-.07.1.024C511.461,243.029,493.414,226.2,493.414,226.2Z" transform="translate(-493.414 -195.678)" fill="#c8102c"/>
      <path id="패스_396" data-name="패스 396" d="M537.226,242.553c-1.255-2.4.3-5.579,10.568-13.174,9.281-6.871,42.7-34.97,74.673-42.515,0,0-16.763-2.733-40.712,4.8-8.541,2.683-21.117,14.637-44.116,37.163-3.131,1.745-14.363-4.7-20.817-7.807,0,0,10.732,16.967,14.485,22.051,5.827,7.906,16.315,12.483,16.315,12.483l-.091-.1C546.646,254.519,539.491,246.862,537.226,242.553Z" transform="translate(-498.88 -186.38)" fill="#c8102c"/>
      <path id="패스_397" data-name="패스 397" d="M805.59,202.331h-5.849v16.949H789.135V202.327h-5.877V222.2l22.333.006Z" transform="translate(-561.099 -190.104)" fill="#c8102c"/>
      <path id="패스_398" data-name="패스 398" d="M868.544,219.216H854.2V202.377h-5.894v19.769h17.56Z" transform="translate(-576.289 -190.116)" fill="#c8102c"/>
      <rect id="사각형_179" data-name="사각형 179" width="5.91" height="19.835" transform="translate(294.605 12.261)" fill="#c8102c"/>
      <path id="패스_399" data-name="패스 399" d="M969.624,205.282l13.133,0,2.695-2.9H963.728v19.762h5.9v-9.7H982.3l2.459-2.928-15.13-.007Z" transform="translate(-603.243 -190.116)" fill="#c8102c"/>
      <path id="패스_400" data-name="패스 400" d="M757.423,215.77h15.9v-11.9a1.522,1.522,0,0,0-1.43-1.537l-20.413,0v19.738h5.945Zm-.044-10.521h9.546c.142,0,.524,0,.524.868v6.715h-10.07Z" transform="translate(-553.678 -190.104)" fill="#c8102c"/>
      <path id="패스_401" data-name="패스 401" d="M837.543,209.909h-1.731v-5.762c0-1.111-.563-1.826-1.44-1.826l-18.511,0v19.75l21.674-.005Zm-5.911,9.225h-9.867v-6.32h9.867Zm0-9.251h-9.867v-4.632h9.346c.51,0,.52.768.52.855Z" transform="translate(-568.712 -190.102)" fill="#c8102c"/>
      <path id="패스_402" data-name="패스 402" d="M725.042,219.145v-5.423h14.934V210.6H725.042v-5.349h13.25l2.967-2.923h-22.1v19.744h22.1l-2.969-2.925Z" transform="translate(-546.131 -190.104)" fill="#c8102c"/>
      <path id="패스_403" data-name="패스 403" d="M895.626,205.282h13.246l2.969-2.931H889.681l.007,19.725,19.22.005,2.96-2.93H895.626Z" transform="translate(-585.951 -190.11)" fill="#c8102c"/>
      <path id="패스_404" data-name="패스 404" d="M870.956,245.557l2.641-2.952-22.6,0v10.8h16.3l0,5.931H850.262l3.666,3.063h19.309v-11.96H856.912v-4.88Z" transform="translate(-576.746 -199.51)" fill="#c8102c"/>
      <path id="패스_405" data-name="패스 405" d="M737.845,242.623l-21.015-.007V262.4h5.981V253.98h10.553V262.4h5.911l.007-17.953C739.282,243.57,738.731,242.623,737.845,242.623Zm-4.626,8.411H722.9v-5.466h9.787c.493,0,.534.661.534.864Z" transform="translate(-545.587 -199.513)" fill="#c8102c"/>
      <path id="패스_406" data-name="패스 406" d="M791.4,259.516v-5.451h15.016v-3.142H791.4v-5.378H804.72l2.984-2.939H785.485v19.853h22.222l-2.987-2.943Z" transform="translate(-561.619 -199.51)" fill="#c8102c"/>
      <path id="패스_407" data-name="패스 407" d="M702.715,245.692l3.12-3.087-23.357-.01v19.8H705V251.6h-5.911v7.831h-10.63V245.692Z" transform="translate(-537.564 -199.508)" fill="#c8102c"/>
      <path id="패스_408" data-name="패스 408" d="M750.332,242.605v19.883h5.946V251.125l5.888,4,5.886-4v11.363H774V242.605l-11.829,7.953Z" transform="translate(-553.41 -199.51)" fill="#c8102c"/>
      <path id="패스_409" data-name="패스 409" d="M839.936,253.92v-9.491c0-.871-.545-1.824-1.427-1.824H817.2v19.782h6V245.53l10.4.008c.487,0,.528.658.528.862v3.868l-9.756-.005,10.668,12.129h7l-7.436-8.453Z" transform="translate(-569.025 -199.51)" fill="#c8102c"/>
      <path id="패스_410" data-name="패스 410" d="M707.056,216.29V204.164c0-.862.044-1.845-1.18-1.845h-23.4v13.837l6.177,6.744V205.268h11.281c.734,0,.907.293.907,1.016v6.322h-9.975L707.1,229.649v-6.684l-6.16-6.674Z" transform="translate(-537.564 -190.102)" fill="#c8102c"/>
      <path id="패스_411" data-name="패스 411" d="M951.278,202.351H931.317v14.306l4.817,5.48h16.554V203.9A1.48,1.48,0,0,0,951.278,202.351Zm-4.5,16.826H940.5l-3.275-3.783V205.31h9.545Z" transform="translate(-595.674 -190.11)" fill="#c8102c"/>
    </g>
  </g>
</svg>
