<svg xmlns="http://www.w3.org/2000/svg" width="1594.295" height="2031.553" viewBox="0 0 1594.295 2031.553">
  <g id="그룹_6441" data-name="그룹 6441" transform="translate(-160.134 -13229.682)">
    <g id="그룹_5296" data-name="그룹 5296" transform="translate(160.134 13229.682)">
      <g id="그룹_5272" data-name="그룹 5272" transform="translate(0 0)">
        <circle id="타원_42" data-name="타원 42" cx="3.626" cy="3.626" r="3.626" transform="translate(815.021 636.163)" fill="#fff"/>
        <g id="그룹_5243" data-name="그룹 5243" transform="translate(18.086 633.504)" opacity="0.22">
          <g id="그룹_5242" data-name="그룹 5242">
            <path id="패스_4589" data-name="패스 4589" d="M6253.023,1424.427h154.728v.725H6253.325l-381.184,381.185H5668.1v-.725H5871.84Z" transform="translate(-5668.103 -1424.427)" fill="#c8102c"/>
          </g>
        </g>
        <g id="그룹_5244" data-name="그룹 5244" transform="translate(21.712 948.476)" opacity="0.33">
          <rect id="사각형_1398" data-name="사각형 1398" width="216.939" height="0.725" fill="#fff"/>
        </g>
        <g id="그룹_5245" data-name="그룹 5245" transform="translate(18.086 882.263)" opacity="0.33">
          <rect id="사각형_1399" data-name="사각형 1399" width="285.707" height="0.725" fill="#fff"/>
        </g>
        <g id="그룹_5246" data-name="그룹 5246" transform="translate(18.086 816.05)" opacity="0.33">
          <rect id="사각형_1400" data-name="사각형 1400" width="350.789" height="0.725" fill="#fff"/>
        </g>
        <g id="그룹_5247" data-name="그룹 5247" transform="translate(18.086 749.837)" opacity="0.33">
          <rect id="사각형_1401" data-name="사각형 1401" width="416.596" height="0.725" fill="#fff"/>
        </g>
        <g id="그룹_5249" data-name="그룹 5249" transform="translate(592.07 633.141)">
          <g id="그룹_5248" data-name="그룹 5248">
            <path id="패스_4590" data-name="패스 4590" d="M6113.507,1424.153h13.474v1.451h-12.874l-10.362,10.363-1.025-1.026Z" transform="translate(-6102.72 -1424.153)" fill="#c8102c"/>
          </g>
        </g>
        <g id="그룹_5250" data-name="그룹 5250" transform="translate(203.724 1005.233)" opacity="0.22">
          <path id="패스_4591" data-name="패스 4591" d="M5835.708,1705.9l1.026,1.026-9.518,9.518h-18.549v-1.451h17.949Z" transform="translate(-5808.667 -1705.898)" fill="#fff"/>
        </g>
        <g id="그룹_5251" data-name="그룹 5251" transform="translate(3.571 745.177)" opacity="0.33">
          <path id="패스_4592" data-name="패스 4592" d="M5657.111,1511.523v-2.538h4.19v2.538h-.715v6.378h.715v1.9l-2.016.634h-1.459v-8.916Z" transform="translate(-5657.111 -1508.985)" fill="#fff"/>
        </g>
        <g id="그룹_5252" data-name="그룹 5252" transform="translate(0.58 811.89)" opacity="0.33">
          <path id="패스_4593" data-name="패스 4593" d="M5659.559,1568.417v2.538h-3.76l-.953-1.158v-4.776l.984-1.032h6.425v-4.49h2.762v6.109l-.857.919h-6.553v1.889Zm4.505,2.538h-3.711v-2.538h1.9v-.555h2.762v1.951Zm-2.6-11.455v2.54H5654.9v-2.54Z" transform="translate(-5654.847 -1559.5)" fill="#fff"/>
        </g>
        <g id="그룹_5253" data-name="그룹 5253" transform="translate(0.698 876.716)" opacity="0.33">
          <path id="패스_4594" data-name="패스 4594" d="M5664.076,1620.04h-3.682V1617.5h1.951v-1.237h2.682v2.617Zm-1.73-8.916h-1.951v-2.538h3.682l.951,1.19v2.776h-2.682Zm-2.744,6.378v2.538h-3.713l-.953-1.142v-3.617l.748-.7-.748-.667v-4.156l.953-1.174h3.713v2.538H5657.7v2.031h4.253v2.538H5657.7v1.808Z" transform="translate(-5654.936 -1608.586)" fill="#fff"/>
        </g>
        <g id="그룹_5254" data-name="그룹 5254" transform="translate(0 943.625)" opacity="0.33">
          <path id="패스_4595" data-name="패스 4595" d="M5660.073,1665.2v-2.538h5.585v3.079l-5.285,5h-3.854v-2.57h2.824l3.712-2.968Zm-3.554,2.174V1665.2h-2.11v-2.538h2.11v-3.411h2.761v8.123Z" transform="translate(-5654.408 -1659.249)" fill="#fff"/>
        </g>
        <circle id="타원_43" data-name="타원 43" cx="3.626" cy="3.626" r="3.626" transform="translate(815.021 372.362)" fill="#fff"/>
        <g id="그룹_5255" data-name="그룹 5255" transform="translate(18.086 0.362)" opacity="0.22">
          <path id="패스_4596" data-name="패스 4596" d="M5668.1,945.016h204.039l.1.106L6253.325,1326.2h154.426v.726H6253.023l-.106-.106L5871.84,945.742H5668.1Z" transform="translate(-5668.103 -945.016)" fill="#fff"/>
        </g>
        <g id="그룹_5256" data-name="그룹 5256" transform="translate(21.712 66.575)" opacity="0.22">
          <rect id="사각형_1402" data-name="사각형 1402" width="216.939" height="0.726" fill="#fff"/>
        </g>
        <g id="그룹_5258" data-name="그룹 5258" transform="translate(18.086 132.788)" opacity="0.33">
          <g id="그룹_5257" data-name="그룹 5257">
            <rect id="사각형_1403" data-name="사각형 1403" width="285.707" height="0.726" fill="#c8102c"/>
          </g>
        </g>
        <g id="그룹_5260" data-name="그룹 5260" transform="translate(18.086 199.001)" opacity="0.33">
          <g id="그룹_5259" data-name="그룹 5259">
            <rect id="사각형_1404" data-name="사각형 1404" width="350.789" height="0.726" fill="#c8102c"/>
          </g>
        </g>
        <g id="그룹_5262" data-name="그룹 5262" transform="translate(18.086 265.214)" opacity="0.33">
          <g id="그룹_5261" data-name="그룹 5261">
            <rect id="사각형_1405" data-name="사각형 1405" width="416.596" height="0.726" fill="#c8102c"/>
          </g>
        </g>
        <g id="그룹_5263" data-name="그룹 5263" transform="translate(592.07 370.822)">
          <path id="패스_4597" data-name="패스 4597" d="M6103.745,1225.526l10.362,10.363h12.874v1.45h-13.474l-10.787-10.787Z" transform="translate(-6102.72 -1225.526)" fill="#fff"/>
        </g>
        <g id="그룹_5264" data-name="그룹 5264" transform="translate(203.724)" opacity="0.22">
          <path id="패스_4598" data-name="패스 4598" d="M5808.667,944.742h18.549l9.518,9.518-1.026,1.025-9.092-9.093h-17.949Z" transform="translate(-5808.667 -944.742)" fill="#fff"/>
        </g>
        <g id="그룹_5265" data-name="그룹 5265" transform="translate(3.569 63.034)" opacity="0.33">
          <path id="패스_4599" data-name="패스 4599" d="M5660.586,995.009v8.916h-1.461l-2.015-.635v-1.9h.715v-6.377h-.715v-2.538h4.189v2.538Z" transform="translate(-5657.11 -992.471)" fill="#fff"/>
        </g>
        <g id="그룹_5267" data-name="그룹 5267" transform="translate(0.577 129.748)" opacity="0.33">
          <g id="그룹_5266" data-name="그룹 5266">
            <path id="패스_4600" data-name="패스 4600" d="M5662.254,1051.9v-1.887H5655.7l-.856-.922v-6.108h2.759v4.49h6.425l.984,1.031v4.775l-.951,1.158H5660.3V1051.9Zm2.712-8.917v2.54H5658.4v-2.54Zm-10.121,10.313v-1.952h2.759v.556h1.9v2.538H5655.8Z" transform="translate(-5654.845 -1042.986)" fill="#c8102c"/>
          </g>
        </g>
        <g id="그룹_5269" data-name="그룹 5269" transform="translate(0.538 194.568)" opacity="0.33">
          <g id="그룹_5268" data-name="그룹 5268">
            <path id="패스_4601" data-name="패스 4601" d="M5662.147,1100.985v-1.809h-4.253v-2.538h4.253v-2.03h-1.9v-2.54h3.712l.952,1.174v4.157l-.745.666.745.7v3.617l-.952,1.143h-3.712v-2.538Zm-7.331,1.38v-2.617h2.683v1.237h1.95v2.538h-3.681Zm2.683-6.331h-2.683v-2.776l.952-1.19h3.681v2.54h-1.95Z" transform="translate(-5654.816 -1092.068)" fill="#c8102c"/>
          </g>
        </g>
        <g id="그룹_5271" data-name="그룹 5271" transform="translate(0.079 261.481)" opacity="0.33">
          <g id="그룹_5270" data-name="그룹 5270">
            <path id="패스_4602" data-name="패스 4602" d="M5660.847,1150.857v-8.123h2.761v3.411h2.109v2.538h-2.109v2.174Zm-3.778-2.174,3.715,2.968h2.824v2.57h-3.857l-5.283-5v-3.077h5.585v2.538Z" transform="translate(-5654.467 -1142.734)" fill="#c8102c"/>
          </g>
        </g>
      </g>
      <path id="패스_4603" data-name="패스 4603" d="M6238.979,1430.066a3.626,3.626,0,1,0,3.626-3.625A3.625,3.625,0,0,0,6238.979,1430.066Z" transform="translate(-5466.956 -790.277)" fill="#c8102c"/>
      <path id="패스_4604" data-name="패스 4604" d="M6238.979,1230.317a3.626,3.626,0,1,1,3.626,3.627A3.625,3.625,0,0,1,6238.979,1230.317Z" transform="translate(-5466.956 -854.33)" fill="#fff"/>
      <g id="그룹_5295" data-name="그룹 5295" transform="translate(836.56 0)">
        <g id="그룹_5273" data-name="그룹 5273" transform="translate(0 633.504)" opacity="0.22">
          <path id="패스_4605" data-name="패스 4605" d="M6287.847,1424.427h154.728l381.184,381.185H7027.5v.725H6823.458l-381.185-381.185H6287.847Z" transform="translate(-6287.847 -1424.427)" fill="#fff"/>
        </g>
        <g id="그룹_5274" data-name="그룹 5274" transform="translate(519.084 948.476)" opacity="0.33">
          <rect id="사각형_1406" data-name="사각형 1406" width="216.939" height="0.725" fill="#fff"/>
        </g>
        <g id="그룹_5275" data-name="그룹 5275" transform="translate(453.941 882.263)" opacity="0.33">
          <rect id="사각형_1407" data-name="사각형 1407" width="285.707" height="0.725" fill="#fff"/>
        </g>
        <g id="그룹_5276" data-name="그룹 5276" transform="translate(388.859 816.05)" opacity="0.33">
          <rect id="사각형_1408" data-name="사각형 1408" width="350.789" height="0.725" fill="#fff"/>
        </g>
        <g id="그룹_5277" data-name="그룹 5277" transform="translate(323.052 749.837)" opacity="0.33">
          <rect id="사각형_1409" data-name="사각형 1409" width="416.596" height="0.725" fill="#fff"/>
        </g>
        <g id="그룹_5278" data-name="그룹 5278" transform="translate(141.403 633.141)">
          <path id="패스_4606" data-name="패스 4606" d="M6394.917,1424.153h13.473l10.787,10.787-1.024,1.026L6407.79,1425.6h-12.873Z" transform="translate(-6394.917 -1424.153)" fill="#fff"/>
        </g>
        <g id="그룹_5279" data-name="그룹 5279" transform="translate(525.943 1005.233)" opacity="0.22">
          <path id="패스_4607" data-name="패스 4607" d="M6687.113,1705.9l9.094,9.094h17.949v1.451h-18.55l-9.519-9.518Z" transform="translate(-6686.087 -1705.898)" fill="#fff"/>
        </g>
        <g id="그룹_5280" data-name="그룹 5280" transform="translate(749.974 745.177)" opacity="0.33">
          <path id="패스_4608" data-name="패스 4608" d="M6859.2,1511.523v8.916h-1.461l-2.014-.634v-1.9h.714v-6.378h-.714v-2.538h4.188v2.538Z" transform="translate(-6855.722 -1508.985)" fill="#fff"/>
        </g>
        <g id="그룹_5281" data-name="그룹 5281" transform="translate(746.984 811.89)" opacity="0.33">
          <path id="패스_4609" data-name="패스 4609" d="M6860.867,1568.417v-1.889h-6.554l-.854-.919V1559.5h2.759v4.49h6.428l.982,1.032v4.776l-.952,1.158h-3.761v-2.538Zm2.713-8.917v2.54h-6.568v-2.54Zm-10.121,10.313v-1.951h2.759v.555h1.905v2.538h-3.714Z" transform="translate(-6853.458 -1559.5)" fill="#fff"/>
        </g>
        <g id="그룹_5282" data-name="그룹 5282" transform="translate(746.946 876.716)" opacity="0.33">
          <path id="패스_4610" data-name="패스 4610" d="M6860.758,1617.5v-1.808h-4.251v-2.538h4.251v-2.031h-1.9v-2.538h3.713l.952,1.174v4.156l-.746.667.746.7v3.617l-.952,1.142h-3.713V1617.5Zm-7.33,1.38v-2.617h2.682v1.237h1.951v2.538h-3.681Zm2.682-6.33h-2.682v-2.776l.952-1.19h3.681v2.538h-1.951Z" transform="translate(-6853.428 -1608.586)" fill="#fff"/>
        </g>
        <g id="그룹_5283" data-name="그룹 5283" transform="translate(746.486 943.625)" opacity="0.33">
          <path id="패스_4611" data-name="패스 4611" d="M6859.46,1667.372v-8.123h2.76v3.411h2.11v2.538h-2.11v2.174Zm-3.778-2.174,3.712,2.968h2.826v2.57h-3.855l-5.283-5v-3.079h5.585v2.538Z" transform="translate(-6853.081 -1659.249)" fill="#fff"/>
        </g>
        <g id="그룹_5284" data-name="그룹 5284" transform="translate(0 0.362)" opacity="0.22">
          <path id="패스_4612" data-name="패스 4612" d="M6823.458,945.016H7027.5v.726H6823.758l-381.184,381.185H6287.847v-.726h154.427Z" transform="translate(-6287.847 -945.016)" fill="#fff"/>
        </g>
        <g id="그룹_5285" data-name="그룹 5285" transform="translate(519.084 66.575)" opacity="0.22">
          <rect id="사각형_1410" data-name="사각형 1410" width="216.939" height="0.726" fill="#fff"/>
        </g>
        <g id="그룹_5286" data-name="그룹 5286" transform="translate(453.941 132.788)" opacity="0.22">
          <rect id="사각형_1411" data-name="사각형 1411" width="285.707" height="0.726" fill="#fff"/>
        </g>
        <g id="그룹_5287" data-name="그룹 5287" transform="translate(388.859 199.001)" opacity="0.22">
          <rect id="사각형_1412" data-name="사각형 1412" width="350.789" height="0.726" fill="#fff"/>
        </g>
        <g id="그룹_5288" data-name="그룹 5288" transform="translate(323.052 265.214)" opacity="0.22">
          <rect id="사각형_1413" data-name="사각형 1413" width="416.596" height="0.726" fill="#fff"/>
        </g>
        <g id="그룹_5289" data-name="그룹 5289" transform="translate(141.403 370.822)">
          <path id="패스_4613" data-name="패스 4613" d="M6418.152,1225.526l1.024,1.025-10.787,10.787h-13.473v-1.45h12.873Z" transform="translate(-6394.917 -1225.526)" fill="#fff"/>
        </g>
        <g id="그룹_5290" data-name="그룹 5290" transform="translate(525.943)" opacity="0.22">
          <path id="패스_4614" data-name="패스 4614" d="M6695.606,944.742h18.55v1.45h-17.949l-9.094,9.093-1.025-1.025Z" transform="translate(-6686.087 -944.742)" fill="#fff"/>
        </g>
        <g id="그룹_5291" data-name="그룹 5291" transform="translate(749.976 63.031)" opacity="0.22">
          <path id="패스_4615" data-name="패스 4615" d="M6855.724,995.009v-2.54h4.188v2.54h-.714v6.377h.714v1.9l-2.015.635h-1.46v-8.916Z" transform="translate(-6855.724 -992.469)" fill="#fff"/>
        </g>
        <g id="그룹_5292" data-name="그룹 5292" transform="translate(746.987 129.746)" opacity="0.22">
          <path id="패스_4616" data-name="패스 4616" d="M6858.172,1051.9v2.538h-3.76l-.952-1.158v-4.775l.983-1.031h6.426v-4.49h2.761v6.108l-.857.921h-6.552v1.889Zm4.506,2.538h-3.713V1051.9h1.9v-.556h2.761v1.952Zm-2.6-11.455v2.54h-6.568v-2.54Z" transform="translate(-6853.46 -1042.985)" fill="#fff"/>
        </g>
        <g id="그룹_5293" data-name="그룹 5293" transform="translate(747.105 194.568)" opacity="0.22">
          <path id="패스_4617" data-name="패스 4617" d="M6862.69,1103.523h-3.682v-2.538h1.951v-1.237h2.682v2.617Zm-1.73-8.916h-1.951v-2.54h3.682l.951,1.19v2.776h-2.682Zm-2.745,6.378v2.538H6854.5l-.952-1.143v-3.617l.748-.7-.748-.666v-4.157l.952-1.174h3.713v2.54h-1.9v2.03h4.251v2.538h-4.251v1.809Z" transform="translate(-6853.549 -1092.068)" fill="#fff"/>
        </g>
        <g id="그룹_5294" data-name="그룹 5294" transform="translate(746.406 261.48)" opacity="0.33">
          <path id="패스_4618" data-name="패스 4618" d="M6858.686,1148.683v-2.538h5.584v3.077l-5.283,5h-3.854v-2.57h2.822l3.713-2.967Zm-3.554,2.174v-2.174h-2.111v-2.538h2.111v-3.411h2.76v8.123Z" transform="translate(-6853.021 -1142.733)" fill="#fff"/>
        </g>
      </g>
    </g>
    <g id="그룹_5297" data-name="그룹 5297" transform="translate(160.134 14245.457)">
      <g id="그룹_5272-2" data-name="그룹 5272" transform="translate(0 0)">
        <circle id="타원_42-2" data-name="타원 42" cx="3.626" cy="3.626" r="3.626" transform="translate(815.021 636.163)" fill="#fff"/>
        <g id="그룹_5243-2" data-name="그룹 5243" transform="translate(18.086 633.504)" opacity="0.22">
          <g id="그룹_5242-2" data-name="그룹 5242">
            <path id="패스_4589-2" data-name="패스 4589" d="M6253.023,1424.427h154.728v.725H6253.325l-381.184,381.185H5668.1v-.725H5871.84Z" transform="translate(-5668.103 -1424.427)" fill="#c8102c"/>
          </g>
        </g>
        <g id="그룹_5244-2" data-name="그룹 5244" transform="translate(21.712 948.476)" opacity="0.33">
          <rect id="사각형_1398-2" data-name="사각형 1398" width="216.939" height="0.725" fill="#fff"/>
        </g>
        <g id="그룹_5245-2" data-name="그룹 5245" transform="translate(18.086 882.263)" opacity="0.33">
          <rect id="사각형_1399-2" data-name="사각형 1399" width="285.707" height="0.725" fill="#fff"/>
        </g>
        <g id="그룹_5246-2" data-name="그룹 5246" transform="translate(18.086 816.05)" opacity="0.33">
          <rect id="사각형_1400-2" data-name="사각형 1400" width="350.789" height="0.725" fill="#fff"/>
        </g>
        <g id="그룹_5247-2" data-name="그룹 5247" transform="translate(18.086 749.837)" opacity="0.33">
          <rect id="사각형_1401-2" data-name="사각형 1401" width="416.596" height="0.725" fill="#fff"/>
        </g>
        <g id="그룹_5249-2" data-name="그룹 5249" transform="translate(592.07 633.141)">
          <g id="그룹_5248-2" data-name="그룹 5248">
            <path id="패스_4590-2" data-name="패스 4590" d="M6113.507,1424.153h13.474v1.451h-12.874l-10.362,10.363-1.025-1.026Z" transform="translate(-6102.72 -1424.153)" fill="#c8102c"/>
          </g>
        </g>
        <g id="그룹_5250-2" data-name="그룹 5250" transform="translate(203.724 1005.233)" opacity="0.22">
          <path id="패스_4591-2" data-name="패스 4591" d="M5835.708,1705.9l1.026,1.026-9.518,9.518h-18.549v-1.451h17.949Z" transform="translate(-5808.667 -1705.898)" fill="#fff"/>
        </g>
        <g id="그룹_5251-2" data-name="그룹 5251" transform="translate(3.571 745.177)" opacity="0.33">
          <path id="패스_4592-2" data-name="패스 4592" d="M5657.111,1511.523v-2.538h4.19v2.538h-.715v6.378h.715v1.9l-2.016.634h-1.459v-8.916Z" transform="translate(-5657.111 -1508.985)" fill="#fff"/>
        </g>
        <g id="그룹_5252-2" data-name="그룹 5252" transform="translate(0.58 811.89)" opacity="0.33">
          <path id="패스_4593-2" data-name="패스 4593" d="M5659.559,1568.417v2.538h-3.76l-.953-1.158v-4.776l.984-1.032h6.425v-4.49h2.762v6.109l-.857.919h-6.553v1.889Zm4.505,2.538h-3.711v-2.538h1.9v-.555h2.762v1.951Zm-2.6-11.455v2.54H5654.9v-2.54Z" transform="translate(-5654.847 -1559.5)" fill="#fff"/>
        </g>
        <g id="그룹_5253-2" data-name="그룹 5253" transform="translate(0.698 876.716)" opacity="0.33">
          <path id="패스_4594-2" data-name="패스 4594" d="M5664.076,1620.04h-3.682V1617.5h1.951v-1.237h2.682v2.617Zm-1.73-8.916h-1.951v-2.538h3.682l.951,1.19v2.776h-2.682Zm-2.744,6.378v2.538h-3.713l-.953-1.142v-3.617l.748-.7-.748-.667v-4.156l.953-1.174h3.713v2.538H5657.7v2.031h4.253v2.538H5657.7v1.808Z" transform="translate(-5654.936 -1608.586)" fill="#fff"/>
        </g>
        <g id="그룹_5254-2" data-name="그룹 5254" transform="translate(0 943.625)" opacity="0.33">
          <path id="패스_4595-2" data-name="패스 4595" d="M5660.073,1665.2v-2.538h5.585v3.079l-5.285,5h-3.854v-2.57h2.824l3.712-2.968Zm-3.554,2.174V1665.2h-2.11v-2.538h2.11v-3.411h2.761v8.123Z" transform="translate(-5654.408 -1659.249)" fill="#fff"/>
        </g>
        <circle id="타원_43-2" data-name="타원 43" cx="3.626" cy="3.626" r="3.626" transform="translate(815.021 372.362)" fill="#fff"/>
        <g id="그룹_5255-2" data-name="그룹 5255" transform="translate(18.086 0.362)" opacity="0.22">
          <path id="패스_4596-2" data-name="패스 4596" d="M5668.1,945.016h204.039l.1.106L6253.325,1326.2h154.426v.726H6253.023l-.106-.106L5871.84,945.742H5668.1Z" transform="translate(-5668.103 -945.016)" fill="#fff"/>
        </g>
        <g id="그룹_5256-2" data-name="그룹 5256" transform="translate(21.712 66.575)" opacity="0.22">
          <rect id="사각형_1402-2" data-name="사각형 1402" width="216.939" height="0.726" fill="#fff"/>
        </g>
        <g id="그룹_5258-2" data-name="그룹 5258" transform="translate(18.086 132.788)" opacity="0.33">
          <g id="그룹_5257-2" data-name="그룹 5257">
            <rect id="사각형_1403-2" data-name="사각형 1403" width="285.707" height="0.726" fill="#c8102c"/>
          </g>
        </g>
        <g id="그룹_5260-2" data-name="그룹 5260" transform="translate(18.086 199.001)" opacity="0.33">
          <g id="그룹_5259-2" data-name="그룹 5259">
            <rect id="사각형_1404-2" data-name="사각형 1404" width="350.789" height="0.726" fill="#c8102c"/>
          </g>
        </g>
        <g id="그룹_5262-2" data-name="그룹 5262" transform="translate(18.086 265.214)" opacity="0.33">
          <g id="그룹_5261-2" data-name="그룹 5261">
            <rect id="사각형_1405-2" data-name="사각형 1405" width="416.596" height="0.726" fill="#c8102c"/>
          </g>
        </g>
        <g id="그룹_5263-2" data-name="그룹 5263" transform="translate(592.07 370.822)">
          <path id="패스_4597-2" data-name="패스 4597" d="M6103.745,1225.526l10.362,10.363h12.874v1.45h-13.474l-10.787-10.787Z" transform="translate(-6102.72 -1225.526)" fill="#fff"/>
        </g>
        <g id="그룹_5264-2" data-name="그룹 5264" transform="translate(203.724)" opacity="0.22">
          <path id="패스_4598-2" data-name="패스 4598" d="M5808.667,944.742h18.549l9.518,9.518-1.026,1.025-9.092-9.093h-17.949Z" transform="translate(-5808.667 -944.742)" fill="#fff"/>
        </g>
        <g id="그룹_5265-2" data-name="그룹 5265" transform="translate(3.569 63.034)" opacity="0.33">
          <path id="패스_4599-2" data-name="패스 4599" d="M5660.586,995.009v8.916h-1.461l-2.015-.635v-1.9h.715v-6.377h-.715v-2.538h4.189v2.538Z" transform="translate(-5657.11 -992.471)" fill="#fff"/>
        </g>
        <g id="그룹_5267-2" data-name="그룹 5267" transform="translate(0.577 129.748)" opacity="0.33">
          <g id="그룹_5266-2" data-name="그룹 5266">
            <path id="패스_4600-2" data-name="패스 4600" d="M5662.254,1051.9v-1.887H5655.7l-.856-.922v-6.108h2.759v4.49h6.425l.984,1.031v4.775l-.951,1.158H5660.3V1051.9Zm2.712-8.917v2.54H5658.4v-2.54Zm-10.121,10.313v-1.952h2.759v.556h1.9v2.538H5655.8Z" transform="translate(-5654.845 -1042.986)" fill="#c8102c"/>
          </g>
        </g>
        <g id="그룹_5269-2" data-name="그룹 5269" transform="translate(0.538 194.568)" opacity="0.33">
          <g id="그룹_5268-2" data-name="그룹 5268">
            <path id="패스_4601-2" data-name="패스 4601" d="M5662.147,1100.985v-1.809h-4.253v-2.538h4.253v-2.03h-1.9v-2.54h3.712l.952,1.174v4.157l-.745.666.745.7v3.617l-.952,1.143h-3.712v-2.538Zm-7.331,1.38v-2.617h2.683v1.237h1.95v2.538h-3.681Zm2.683-6.331h-2.683v-2.776l.952-1.19h3.681v2.54h-1.95Z" transform="translate(-5654.816 -1092.068)" fill="#c8102c"/>
          </g>
        </g>
        <g id="그룹_5271-2" data-name="그룹 5271" transform="translate(0.079 261.481)" opacity="0.33">
          <g id="그룹_5270-2" data-name="그룹 5270">
            <path id="패스_4602-2" data-name="패스 4602" d="M5660.847,1150.857v-8.123h2.761v3.411h2.109v2.538h-2.109v2.174Zm-3.778-2.174,3.715,2.968h2.824v2.57h-3.857l-5.283-5v-3.077h5.585v2.538Z" transform="translate(-5654.467 -1142.734)" fill="#c8102c"/>
          </g>
        </g>
      </g>
      <path id="패스_4603-2" data-name="패스 4603" d="M6238.979,1430.066a3.626,3.626,0,1,0,3.626-3.625A3.625,3.625,0,0,0,6238.979,1430.066Z" transform="translate(-5466.956 -790.277)" fill="#c8102c"/>
      <path id="패스_4604-2" data-name="패스 4604" d="M6238.979,1230.317a3.626,3.626,0,1,1,3.626,3.627A3.625,3.625,0,0,1,6238.979,1230.317Z" transform="translate(-5466.956 -854.33)" fill="#fff"/>
      <g id="그룹_5295-2" data-name="그룹 5295" transform="translate(836.56 0)">
        <g id="그룹_5273-2" data-name="그룹 5273" transform="translate(0 633.504)" opacity="0.22">
          <path id="패스_4605-2" data-name="패스 4605" d="M6287.847,1424.427h154.728l381.184,381.185H7027.5v.725H6823.458l-381.185-381.185H6287.847Z" transform="translate(-6287.847 -1424.427)" fill="#fff"/>
        </g>
        <g id="그룹_5274-2" data-name="그룹 5274" transform="translate(519.084 948.476)" opacity="0.33">
          <rect id="사각형_1406-2" data-name="사각형 1406" width="216.939" height="0.725" fill="#fff"/>
        </g>
        <g id="그룹_5275-2" data-name="그룹 5275" transform="translate(453.941 882.263)" opacity="0.33">
          <rect id="사각형_1407-2" data-name="사각형 1407" width="285.707" height="0.725" fill="#fff"/>
        </g>
        <g id="그룹_5276-2" data-name="그룹 5276" transform="translate(388.859 816.05)" opacity="0.33">
          <rect id="사각형_1408-2" data-name="사각형 1408" width="350.789" height="0.725" fill="#fff"/>
        </g>
        <g id="그룹_5277-2" data-name="그룹 5277" transform="translate(323.052 749.837)" opacity="0.33">
          <rect id="사각형_1409-2" data-name="사각형 1409" width="416.596" height="0.725" fill="#fff"/>
        </g>
        <g id="그룹_5278-2" data-name="그룹 5278" transform="translate(141.403 633.141)">
          <path id="패스_4606-2" data-name="패스 4606" d="M6394.917,1424.153h13.473l10.787,10.787-1.024,1.026L6407.79,1425.6h-12.873Z" transform="translate(-6394.917 -1424.153)" fill="#fff"/>
        </g>
        <g id="그룹_5279-2" data-name="그룹 5279" transform="translate(525.943 1005.233)" opacity="0.22">
          <path id="패스_4607-2" data-name="패스 4607" d="M6687.113,1705.9l9.094,9.094h17.949v1.451h-18.55l-9.519-9.518Z" transform="translate(-6686.087 -1705.898)" fill="#fff"/>
        </g>
        <g id="그룹_5280-2" data-name="그룹 5280" transform="translate(749.974 745.177)" opacity="0.33">
          <path id="패스_4608-2" data-name="패스 4608" d="M6859.2,1511.523v8.916h-1.461l-2.014-.634v-1.9h.714v-6.378h-.714v-2.538h4.188v2.538Z" transform="translate(-6855.722 -1508.985)" fill="#fff"/>
        </g>
        <g id="그룹_5281-2" data-name="그룹 5281" transform="translate(746.984 811.89)" opacity="0.33">
          <path id="패스_4609-2" data-name="패스 4609" d="M6860.867,1568.417v-1.889h-6.554l-.854-.919V1559.5h2.759v4.49h6.428l.982,1.032v4.776l-.952,1.158h-3.761v-2.538Zm2.713-8.917v2.54h-6.568v-2.54Zm-10.121,10.313v-1.951h2.759v.555h1.905v2.538h-3.714Z" transform="translate(-6853.458 -1559.5)" fill="#fff"/>
        </g>
        <g id="그룹_5282-2" data-name="그룹 5282" transform="translate(746.946 876.716)" opacity="0.33">
          <path id="패스_4610-2" data-name="패스 4610" d="M6860.758,1617.5v-1.808h-4.251v-2.538h4.251v-2.031h-1.9v-2.538h3.713l.952,1.174v4.156l-.746.667.746.7v3.617l-.952,1.142h-3.713V1617.5Zm-7.33,1.38v-2.617h2.682v1.237h1.951v2.538h-3.681Zm2.682-6.33h-2.682v-2.776l.952-1.19h3.681v2.538h-1.951Z" transform="translate(-6853.428 -1608.586)" fill="#fff"/>
        </g>
        <g id="그룹_5283-2" data-name="그룹 5283" transform="translate(746.486 943.625)" opacity="0.33">
          <path id="패스_4611-2" data-name="패스 4611" d="M6859.46,1667.372v-8.123h2.76v3.411h2.11v2.538h-2.11v2.174Zm-3.778-2.174,3.712,2.968h2.826v2.57h-3.855l-5.283-5v-3.079h5.585v2.538Z" transform="translate(-6853.081 -1659.249)" fill="#fff"/>
        </g>
        <g id="그룹_5284-2" data-name="그룹 5284" transform="translate(0 0.362)" opacity="0.22">
          <path id="패스_4612-2" data-name="패스 4612" d="M6823.458,945.016H7027.5v.726H6823.758l-381.184,381.185H6287.847v-.726h154.427Z" transform="translate(-6287.847 -945.016)" fill="#fff"/>
        </g>
        <g id="그룹_5285-2" data-name="그룹 5285" transform="translate(519.084 66.575)" opacity="0.22">
          <rect id="사각형_1410-2" data-name="사각형 1410" width="216.939" height="0.726" fill="#fff"/>
        </g>
        <g id="그룹_5286-2" data-name="그룹 5286" transform="translate(453.941 132.788)" opacity="0.22">
          <rect id="사각형_1411-2" data-name="사각형 1411" width="285.707" height="0.726" fill="#fff"/>
        </g>
        <g id="그룹_5287-2" data-name="그룹 5287" transform="translate(388.859 199.001)" opacity="0.22">
          <rect id="사각형_1412-2" data-name="사각형 1412" width="350.789" height="0.726" fill="#fff"/>
        </g>
        <g id="그룹_5288-2" data-name="그룹 5288" transform="translate(323.052 265.214)" opacity="0.22">
          <rect id="사각형_1413-2" data-name="사각형 1413" width="416.596" height="0.726" fill="#fff"/>
        </g>
        <g id="그룹_5289-2" data-name="그룹 5289" transform="translate(141.403 370.822)">
          <path id="패스_4613-2" data-name="패스 4613" d="M6418.152,1225.526l1.024,1.025-10.787,10.787h-13.473v-1.45h12.873Z" transform="translate(-6394.917 -1225.526)" fill="#fff"/>
        </g>
        <g id="그룹_5290-2" data-name="그룹 5290" transform="translate(525.943)" opacity="0.22">
          <path id="패스_4614-2" data-name="패스 4614" d="M6695.606,944.742h18.55v1.45h-17.949l-9.094,9.093-1.025-1.025Z" transform="translate(-6686.087 -944.742)" fill="#fff"/>
        </g>
        <g id="그룹_5291-2" data-name="그룹 5291" transform="translate(749.976 63.031)" opacity="0.22">
          <path id="패스_4615-2" data-name="패스 4615" d="M6855.724,995.009v-2.54h4.188v2.54h-.714v6.377h.714v1.9l-2.015.635h-1.46v-8.916Z" transform="translate(-6855.724 -992.469)" fill="#fff"/>
        </g>
        <g id="그룹_5292-2" data-name="그룹 5292" transform="translate(746.987 129.746)" opacity="0.22">
          <path id="패스_4616-2" data-name="패스 4616" d="M6858.172,1051.9v2.538h-3.76l-.952-1.158v-4.775l.983-1.031h6.426v-4.49h2.761v6.108l-.857.921h-6.552v1.889Zm4.506,2.538h-3.713V1051.9h1.9v-.556h2.761v1.952Zm-2.6-11.455v2.54h-6.568v-2.54Z" transform="translate(-6853.46 -1042.985)" fill="#fff"/>
        </g>
        <g id="그룹_5293-2" data-name="그룹 5293" transform="translate(747.105 194.568)" opacity="0.22">
          <path id="패스_4617-2" data-name="패스 4617" d="M6862.69,1103.523h-3.682v-2.538h1.951v-1.237h2.682v2.617Zm-1.73-8.916h-1.951v-2.54h3.682l.951,1.19v2.776h-2.682Zm-2.745,6.378v2.538H6854.5l-.952-1.143v-3.617l.748-.7-.748-.666v-4.157l.952-1.174h3.713v2.54h-1.9v2.03h4.251v2.538h-4.251v1.809Z" transform="translate(-6853.549 -1092.068)" fill="#fff"/>
        </g>
        <g id="그룹_5294-2" data-name="그룹 5294" transform="translate(746.406 261.48)" opacity="0.33">
          <path id="패스_4618-2" data-name="패스 4618" d="M6858.686,1148.683v-2.538h5.584v3.077l-5.283,5h-3.854v-2.57h2.822l3.713-2.967Zm-3.554,2.174v-2.174h-2.111v-2.538h2.111v-3.411h2.76v8.123Z" transform="translate(-6853.021 -1142.733)" fill="#fff"/>
        </g>
      </g>
    </g>
  </g>
</svg>
