<svg xmlns="http://www.w3.org/2000/svg" width="25.316" height="25.007" viewBox="0 0 25.316 25.007">
  <g id="그룹_6249" data-name="그룹 6249" transform="translate(-3711.228 -6395.794)">
    <path id="패스_5246" data-name="패스 5246" d="M260.4-215.648H249.417a7.172,7.172,0,0,1-7.165-7.163V-233.49a7.172,7.172,0,0,1,7.165-7.165H260.4a7.172,7.172,0,0,1,7.165,7.165v10.679A7.172,7.172,0,0,1,260.4-215.648Zm-10.987-22.691a4.855,4.855,0,0,0-4.849,4.849v10.679a4.855,4.855,0,0,0,4.849,4.848H260.4a4.854,4.854,0,0,0,4.848-4.848V-233.49a4.854,4.854,0,0,0-4.848-4.849Z" transform="translate(3468.976 6636.449)" fill="#fff"/>
    <path id="패스_5247" data-name="패스 5247" d="M260.273-216.362a6.568,6.568,0,0,1-6.562-6.562,6.568,6.568,0,0,1,6.562-6.562,6.568,6.568,0,0,1,6.562,6.562A6.568,6.568,0,0,1,260.273-216.362Zm0-10.808a4.252,4.252,0,0,0-4.247,4.246,4.251,4.251,0,0,0,4.247,4.246,4.251,4.251,0,0,0,4.246-4.246A4.251,4.251,0,0,0,260.273-227.17Z" transform="translate(3463.612 6631.223)" fill="#fff"/>
    <path id="패스_5248" data-name="패스 5248" d="M279-231.084a1.544,1.544,0,0,1-1.545,1.544,1.543,1.543,0,0,1-1.543-1.544,1.544,1.544,0,0,1,1.543-1.543A1.544,1.544,0,0,1,279-231.084Z" transform="translate(3453.221 6632.693)" fill="#fff"/>
  </g>
</svg>
