<svg xmlns="http://www.w3.org/2000/svg" width="30.513" height="25.007" viewBox="0 0 30.513 25.007">
  <g id="kKjiUS.tif" transform="translate(1165.928 592.067)">
    <g id="그룹_6247" data-name="그룹 6247" transform="translate(-1165.928 -592.067)">
      <path id="패스_5250" data-name="패스 5250" d="M-1165.928-570.158v-.3a.657.657,0,0,1,.7-.316,11.712,11.712,0,0,0,5.076-.58,10.507,10.507,0,0,0,2.3-1.1.372.372,0,0,0-.066-.049c-.046-.017-.093-.032-.141-.045a6.514,6.514,0,0,1-2.556-1.351,6.54,6.54,0,0,1-1.963-2.93.48.48,0,0,1,.514-.662c.138,0,.275.026.477.046-.127-.094-.2-.148-.268-.2a6.487,6.487,0,0,1-2.878-5.279c-.029-.64.3-.843.883-.561.2.1.414.186.621.279a7,7,0,0,1-1.417-3.484,6.543,6.543,0,0,1,.829-3.983.479.479,0,0,1,.8-.1,2.188,2.188,0,0,1,.18.2,16.664,16.664,0,0,0,9.406,5.617c.625.134,1.262.209,1.916.314,0-.48-.026-.9,0-1.308a6.266,6.266,0,0,1,2.99-5.053,6.453,6.453,0,0,1,7.911.641.465.465,0,0,0,.479.106,12.2,12.2,0,0,0,3.1-1.259.5.5,0,0,1,.633.038.5.5,0,0,1,.1.6,6.845,6.845,0,0,1-.334.793c-.265.472-.56.926-.847,1.393a.791.791,0,0,0,.13-.026c.4-.146.8-.292,1.2-.444a.5.5,0,0,1,.6.112c.182.2.17.414-.028.7a12.487,12.487,0,0,1-2.636,2.814.57.57,0,0,0-.22.477,31.527,31.527,0,0,1-.306,3.432,17.832,17.832,0,0,1-4.838,9.379,16.613,16.613,0,0,1-10.771,5.069c-.542.049-1.087.078-1.63.116h-.358l-.646-.056c-.552-.047-1.108-.067-1.656-.147a17.6,17.6,0,0,1-6.913-2.535A2.644,2.644,0,0,1-1165.928-570.158Z" transform="translate(1165.928 592.067)" fill="#fff"/>
    </g>
  </g>
</svg>
