<?xml version="1.0" encoding="UTF-8"?><svg id="_레이어_1" xmlns="http://www.w3.org/2000/svg" viewBox="0 0 1250.79 670.95"><defs><style>.cls-1{fill:##03000A;opacity:.18;backdrop-filter:blur(5px);}.cls-2{fill:#bd1a2d;}</style></defs><g id="_그룹_6405"><path id="_패스_4758-2" class="cls-2" d="M1202.93,68c-7.31,0-13.24-5.93-13.24-13.24s5.93-13.24,13.24-13.24,13.24,5.93,13.24,13.24h0c-.01,7.31-5.93,13.23-13.24,13.24Zm0-25.53c-6.78,0-12.28,5.5-12.28,12.28,0,6.78,5.5,12.28,12.28,12.28,6.78,0,12.28-5.5,12.28-12.28h0c0-6.78-5.5-12.27-12.28-12.28h0Z"/><circle id="_타원_60-2" class="cls-2" cx="1202.93" cy="54.76" r="6.38"/><rect id="_사각형_1438-2" class="cls-2" x="1202.14" y="73.9" width="1.6" height="6.38"/><path id="_패스_4759-2" class="cls-2" d="M1171.02,151.27l-6.38,6.38v6.38l6.38-6.38v-6.38Z"/><rect id="_사각형_1439-2" class="cls-2" x="1151.08" y="158.54" width="1.6" height="25.53"/><g><path id="_패스_4764" class="cls-1" d="M1250.79,99.8V56.64l-15.75-14.93h-14.67l-29.34-27.81h-366.8l-14.67-13.91H441.23l-14.67,13.9H59.77l-29.34,27.81H15.75L0,56.64v43.16l29.34,27.81v415.74L0,571.16v43.16l15.75,14.93h14.67l29.34,27.81H426.56l14.67,13.91h368.32l14.67-13.91h366.8l29.34-27.81h14.67l15.75-14.93v-43.16l-29.35-27.81V127.62l29.35-27.82Z"/><path id="_패스_4755-2" class="cls-2" d="M20.59,78.67c-7.31,0-13.24-5.93-13.24-13.24,0-7.31,5.93-13.24,13.24-13.24,7.31,0,13.24,5.93,13.24,13.24,0,7.31-5.93,13.23-13.24,13.24Zm0-25.53c-6.78,0-12.28,5.5-12.28,12.28s5.5,12.28,12.28,12.28,12.28-5.5,12.28-12.28h0c0-6.78-5.5-12.27-12.28-12.28h0Z"/><circle id="_타원_59-2" class="cls-2" cx="20.59" cy="65.42" r="6.38"/><rect id="_사각형_1436-2" class="cls-2" x="19.8" y="84.57" width="1.6" height="6.38"/><path id="_패스_4756-2" class="cls-2" d="M52.5,161.94l6.38,6.38v6.38l-6.38-6.38v-6.38Z"/><rect id="_사각형_1437-2" class="cls-2" x="70.85" y="169.21" width="1.6" height="25.53"/><path id="_패스_4757-2" class="cls-2" d="M1168.5,644.64h-283.36l-14.87-14.01H380.23l-14.87,14.01H82l-30.29-28.54v-98.82l14.87-14.01v-27.46l-14.87-28.23,.1-224.59,14.78-27.84v-27.45l-14.88-14.02V54.87l30.29-28.54H365.36l14.87,14.01h490.04l14.87-14.01h283.36l30.29,28.54v98.81l-14.87,14.01v27.46l14.87,28.23-.1,224.59-14.78,27.84v27.46l14.87,14.01v98.81l-30.29,28.54Zm-282.59-1.75h281.82l29.2-27.51v-97.36l-14.87-14.01,.1-28.78,14.78-27.84V223.59l-14.87-28.23v-28.39l14.87-14.01V55.6l-29.2-27.51h-281.82l-14.87,14.01H379.46l-14.87-14.01H82.77l-29.2,27.51v97.36l14.87,14.01-.1,28.78-14.78,27.84v223.79l14.87,28.23v28.39l-14.87,14.01v97.36l29.2,27.51H364.59l14.87-14.01h491.58l14.87,14.01Z"/><path id="_패스_4760-2" class="cls-2" d="M20.59,618.79c-7.31,0-13.24-5.93-13.24-13.24,0-7.31,5.93-13.24,13.24-13.24s13.24,5.93,13.24,13.24c0,7.31-5.93,13.23-13.24,13.24Zm0-25.53c-6.78,0-12.28,5.5-12.28,12.28s5.5,12.28,12.28,12.28,12.28-5.5,12.28-12.28c0-6.78-5.5-12.27-12.28-12.28h0Z"/><circle id="_타원_61-2" class="cls-2" cx="20.59" cy="605.54" r="6.38"/><rect id="_사각형_1440-2" class="cls-2" x="19.8" y="580.02" width="1.6" height="6.38"/><path id="_패스_4761-2" class="cls-2" d="M52.5,509.03l6.38-6.38v-6.38l-6.38,6.38v6.38Z"/><rect id="_사각형_1441-2" class="cls-2" x="70.85" y="476.23" width="1.6" height="25.53"/></g><path id="_패스_4762-2" class="cls-2" d="M1202.93,608.12c-7.31,0-13.24-5.93-13.24-13.24s5.93-13.24,13.24-13.24c7.31,0,13.24,5.93,13.24,13.24h0c0,7.31-5.93,13.23-13.24,13.24Zm0-25.53c-6.78,0-12.28,5.5-12.28,12.28,0,6.78,5.5,12.28,12.28,12.28s12.28-5.5,12.28-12.28h0c0-6.78-5.5-12.27-12.28-12.28h0Z"/><circle id="_타원_62-2" class="cls-2" cx="1202.93" cy="594.88" r="6.38"/><rect id="_사각형_1442-2" class="cls-2" x="1202.14" y="569.35" width="1.6" height="6.38"/><path id="_패스_4763-2" class="cls-2" d="M1171.02,498.36l-6.38-6.38v-6.38l6.38,6.38v6.38Z"/><rect id="_사각형_1443-2" class="cls-2" x="1151.08" y="465.56" width="1.6" height="25.53"/></g></svg>