<svg xmlns="http://www.w3.org/2000/svg" width="31.39" height="31.385" viewBox="0 0 31.39 31.385">
  <g id="iuF8Ey.tif" transform="translate(-366.922 -1289.399)">
    <g id="그룹_6242" data-name="그룹 6242" transform="translate(365.244 1289.4)">
      <g id="그룹_6250" data-name="그룹 6250" transform="translate(1.678)">
        <path id="패스_5243" data-name="패스 5243" d="M379.958,1317.77c-.094-.019-.179-.041-.265-.054-.4-.06-.8-.113-1.195-.176-.237-.037-.473-.079-.706-.133-.218-.05-.433-.113-.647-.181a6.2,6.2,0,0,1-.656-.231c-.553-.246-1.1-.5-1.65-.762a4.108,4.108,0,0,1-.464-.257c-.221-.141-.437-.291-.649-.445-.33-.239-.673-.465-.98-.732a13.847,13.847,0,0,1-1.075-1.038c-.348-.375-.675-.771-.985-1.178a10.262,10.262,0,0,1-.76-1.127c-.234-.41-.419-.847-.619-1.276-.131-.282-.258-.566-.369-.856-.083-.216-.14-.443-.2-.667-.079-.286-.157-.573-.224-.862-.053-.229-.1-.461-.13-.694-.045-.307-.085-.614-.111-.923-.011-.133-.073-.15-.183-.149-.621,0-1.243.005-1.864,0a.956.956,0,0,1-.414-.067.934.934,0,0,1-.518-1.154.839.839,0,0,1,.88-.651q.954-.006,1.909,0c.117,0,.18-.018.191-.157.024-.3.062-.6.11-.893.043-.27.1-.537.162-.8s.119-.553.2-.825.167-.527.258-.788a4.814,4.814,0,0,1,.213-.537,15.721,15.721,0,0,1,1.01-1.912c.244-.36.513-.7.772-1.053a4.93,4.93,0,0,1,.371-.475c.365-.382.731-.763,1.117-1.123a7.082,7.082,0,0,1,.8-.635c.456-.317.918-.626,1.393-.913a9.421,9.421,0,0,1,1.122-.584c.4-.174.825-.307,1.242-.445.318-.105.639-.2.965-.281.387-.09.78-.158,1.172-.226.255-.044.514-.072.783-.108v-.194c0-.611,0-1.223,0-1.834a.92.92,0,0,1,.224-.62.969.969,0,0,1,1.594.156.984.984,0,0,1,.088.442c.009.621,0,1.243,0,1.864v.174c.117.022.222.044.329.06.393.059.789.1,1.178.178a11.291,11.291,0,0,1,1.141.282c.425.13.842.287,1.257.446a6.706,6.706,0,0,1,.8.355c.466.252.93.511,1.373.8.371.242.716.525,1.065.8.229.181.45.374.664.573.15.139.282.3.423.446.177.188.366.366.53.564.205.247.392.509.586.766a4.124,4.124,0,0,1,.3.414q.413.719.8,1.449c.127.235.247.474.351.72s.194.505.278.762c.1.309.2.621.278.935.06.227.1.459.14.69a5.126,5.126,0,0,0,.139.81,1.835,1.835,0,0,1,.071.534c.008.14.066.192.2.191.636,0,1.272,0,1.909,0a.849.849,0,0,1,.835.5.96.96,0,0,1-.3,1.213.911.911,0,0,1-.612.165q-.9,0-1.8,0c-.191,0-.206.028-.229.209-.036.294-.09.586-.137.879-.021.131-.039.262-.069.391-.095.408-.191.816-.294,1.222a7.347,7.347,0,0,1-.531,1.47c-.2.395-.385.793-.6,1.179a8.713,8.713,0,0,1-.58.931,14.523,14.523,0,0,1-.966,1.216,15.151,15.151,0,0,1-1.2,1.172,12.6,12.6,0,0,1-1.138.876,9.91,9.91,0,0,1-1.109.685c-.464.239-.95.436-1.43.645-.24.1-.484.2-.732.288s-.5.151-.757.216-.5.115-.758.168c-.12.025-.241.05-.363.063-.25.028-.5.049-.751.073-.04,0-.08,0-.119.007-.121.022-.193.064-.191.22q.015,1,0,2a.793.793,0,0,1-.4.688.979.979,0,0,1-1.122-.039.94.94,0,0,1-.379-.792c-.018-.611-.005-1.223-.005-1.834Zm1.065-1.859a10.886,10.886,0,0,0,10.326-7.9,9.61,9.61,0,0,0,.39-2.915,10.6,10.6,0,0,0-5-9.132,9.994,9.994,0,0,0-5.812-1.682,10.6,10.6,0,0,0-9.455,5.552,9.865,9.865,0,0,0-1.372,5.248,10.849,10.849,0,0,0,10.921,10.826Z" transform="translate(-365.244 -1289.399)" fill="#fff"/>
        <path id="패스_5244" data-name="패스 5244" d="M535.079,1453.039a6.29,6.29,0,0,1-6.28,6.283,5.9,5.9,0,0,1-3.468-1.021,6.25,6.25,0,0,1-2.839-5.24,5.882,5.882,0,0,1,1.224-3.739,6.183,6.183,0,0,1,5.056-2.571,6.007,6.007,0,0,1,4.151,1.557A6.182,6.182,0,0,1,535.079,1453.039Z" transform="translate(-513.104 -1437.359)" fill="#fff"/>
      </g>
    </g>
  </g>
</svg>
