<svg xmlns="http://www.w3.org/2000/svg" width="25.795" height="26" viewBox="0 0 25.795 26">
  <path id="패스_5240" data-name="패스 5240" d="M1637.148,440.2a1.924,1.924,0,0,0-2.518-.687c-.762.442-.441,2.146-1.393,2.432q.116-1.481.106-3.049c0-.342-.209-.439-.456-.442-5.513-.068-10.925-.068-16.438,0-.247,0-.455.1-.456.442q-.008,1.553.1,3.024c-.861-.351-.577-1.977-1.318-2.407a1.924,1.924,0,0,0-2.518.687c-1.224,2.117.29,7.246,1.441,9.1,1.29,2.082,2.679,2.074,4.88,2.852.458.162.258.727-.254.665-.2-.024-.174-.368-.317-.507-.524-.51-.95.129-.758.634a1.276,1.276,0,0,0,1.429.876,1.434,1.434,0,0,0,1.19-1.467,13.264,13.264,0,0,0,3.231,2.7,1.59,1.59,0,0,1-.575,1.067,1.287,1.287,0,0,0-.074,2.18c.669.558.814,1.109.3,1.684a2.864,2.864,0,0,1-1.385.842c-.344.114-.438.589-.346.941.04.153-.018.24-.124.272-1.29.4-2.5.931-2.7,2.328l6.209.023v0h.569v0l6.209-.023c-.2-1.4-1.407-1.93-2.7-2.328-.105-.032-.164-.119-.124-.272.092-.352,0-.828-.346-.941a2.865,2.865,0,0,1-1.385-.842c-.517-.575-.372-1.127.3-1.684a1.287,1.287,0,0,0-.074-2.18,1.594,1.594,0,0,1-.578-1.094,13.233,13.233,0,0,0,3.257-2.76,1.451,1.451,0,0,0,1.192,1.549,1.276,1.276,0,0,0,1.429-.876c.192-.5-.234-1.144-.758-.634-.142.139-.119.483-.317.507-.512.062-.711-.5-.253-.665,2.2-.777,3.589-.769,4.879-2.852C1636.858,447.45,1638.372,442.321,1637.148,440.2Zm-22.559,8.439c-.867-1.53-2.275-6.23-1.275-7.909.261-.438.8-.409,1.085.209.4.854.573,1.718,1.014,2.091a1.606,1.606,0,0,0,.837.375,17.688,17.688,0,0,0,2.668,7.7C1616.893,450.914,1615.628,450.476,1614.589,448.643Zm20.231,0c-1.052,1.856-2.336,2.281-4.406,2.478a17.675,17.675,0,0,0,2.672-7.7,1.6,1.6,0,0,0,.911-.383c.441-.373.614-1.237,1.014-2.091.29-.619.824-.648,1.085-.209C1637.094,442.413,1635.687,447.113,1634.82,448.643Z" transform="translate(-1611.807 -438.407)" fill="#fff" fill-rule="evenodd"/>
</svg>
