<svg xmlns="http://www.w3.org/2000/svg" width="1338.687" height="1001.516" viewBox="0 0 1338.687 1001.516">
  <g id="그룹_6445" data-name="그룹 6445" transform="translate(-1227 -3588.502)">
    <g id="그룹_5219" data-name="그룹 5219" transform="translate(1385 -646.834)">
      <g id="그룹_3116" data-name="그룹 3116" transform="translate(-110 963)">
        <g id="그룹_3115" data-name="그룹 3115" transform="translate(-30.07 3281)" opacity="0.3">
          <g id="그룹_3114" data-name="그룹 3114" opacity="0.51">
            <g id="그룹_3110" data-name="그룹 3110" transform="translate(330.031 497.174)">
              <path id="패스_2775" data-name="패스 2775" d="M535.707,1390.459H370.06V1224.811H535.707Zm-165.016-.631H535.076V1225.443H370.691Z" transform="translate(-370.06 -1224.811)" fill="#fff"/>
              <rect id="사각형_848" data-name="사각형 848" width="0.631" height="233.368" transform="translate(0.092 0.539) rotate(-45)" fill="#fff"/>
              <path id="패스_2776" data-name="패스 2776" d="M751.3,1390.459H585.657V1224.811H751.3Zm-165.016-.631H750.672V1225.443H586.288Z" transform="translate(-420.641 -1224.811)" fill="#fff"/>
              <rect id="사각형_849" data-name="사각형 849" width="233.367" height="0.631" transform="translate(165.108 165.108) rotate(-45)" fill="#fff"/>
              <path id="패스_2777" data-name="패스 2777" d="M966.9,1390.459H801.253V1224.811H966.9Zm-165.015-.631H966.269V1225.443H801.884Z" transform="translate(-471.222 -1224.811)" fill="#fff"/>
              <rect id="사각형_850" data-name="사각형 850" width="0.631" height="233.368" transform="translate(330.124 0.539) rotate(-45)" fill="#fff"/>
              <path id="패스_2778" data-name="패스 2778" d="M535.707,1606.054H370.06V1440.408H535.707Zm-165.016-.632H535.076V1441.04H370.691Z" transform="translate(-370.06 -1275.392)" fill="#fff"/>
              <rect id="사각형_851" data-name="사각형 851" width="233.367" height="0.631" transform="matrix(0.707, -0.707, 0.707, 0.707, 0.107, 330.138)" fill="#fff"/>
              <path id="패스_2779" data-name="패스 2779" d="M751.3,1606.054H585.657V1440.408H751.3Zm-165.016-.632H750.672V1441.04H586.288Z" transform="translate(-420.641 -1275.392)" fill="#fff"/>
              <rect id="사각형_852" data-name="사각형 852" width="0.631" height="233.367" transform="translate(165.108 165.555) rotate(-45)" fill="#fff"/>
              <rect id="사각형_853" data-name="사각형 853" width="233.367" height="0.631" transform="translate(165.109 330.124) rotate(-45)" fill="#fff"/>
              <path id="패스_2780" data-name="패스 2780" d="M966.9,1606.054H801.253V1440.408H966.9Zm-165.015-.632H966.269V1441.04H801.884Z" transform="translate(-471.222 -1275.392)" fill="#fff"/>
              <rect id="사각형_854" data-name="사각형 854" width="0.631" height="233.367" transform="translate(330.124 165.555) rotate(-45)" fill="#fff"/>
              <path id="패스_2781" data-name="패스 2781" d="M535.707,1821.651H370.06V1656H535.707Zm-165.016-.632H535.076V1656.635H370.691Z" transform="translate(-370.06 -1325.972)" fill="#fff"/>
              <rect id="사각형_855" data-name="사각형 855" width="0.631" height="233.368" transform="translate(0.092 330.57) rotate(-45)" fill="#fff"/>
              <rect id="사각형_856" data-name="사각형 856" width="233.368" height="0.631" transform="matrix(0.707, -0.707, 0.707, 0.707, 0.106, 495.154)" fill="#fff"/>
              <path id="패스_2782" data-name="패스 2782" d="M751.3,1821.651H585.657V1656H751.3Zm-165.016-.632H750.672V1656.635H586.288Z" transform="translate(-420.641 -1325.972)" fill="#fff"/>
              <rect id="사각형_857" data-name="사각형 857" width="0.631" height="233.367" transform="translate(165.108 330.57) rotate(-45)" fill="#fff"/>
              <path id="패스_2783" data-name="패스 2783" d="M966.9,1821.651H801.253V1656H966.9Zm-165.015-.632H966.269V1656.635H801.884Z" transform="translate(-471.222 -1325.972)" fill="#fff"/>
              <rect id="사각형_858" data-name="사각형 858" width="233.368" height="0.631" transform="translate(330.124 495.139) rotate(-45)" fill="#fff"/>
              <rect id="사각형_859" data-name="사각형 859" width="5.089" height="4.098" transform="translate(246.158 325.258) rotate(90)" fill="#fff"/>
              <rect id="사각형_860" data-name="사각형 860" width="5.089" height="4.098" transform="translate(254.355 325.258) rotate(90)" fill="#fff"/>
              <rect id="사각형_861" data-name="사각형 861" width="5.089" height="4.098" transform="translate(246.158 165.331) rotate(90)" fill="#fff"/>
              <rect id="사각형_862" data-name="사각형 862" width="5.089" height="4.098" transform="translate(254.355 165.331) rotate(90)" fill="#fff"/>
              <rect id="사각형_863" data-name="사각형 863" width="5.089" height="4.098" transform="translate(80.774 490.274) rotate(90)" fill="#fff"/>
              <rect id="사각형_864" data-name="사각형 864" width="5.089" height="4.098" transform="translate(88.971 490.274) rotate(90)" fill="#fff"/>
              <rect id="사각형_865" data-name="사각형 865" width="5.089" height="4.098" transform="translate(80.774 330.347) rotate(90)" fill="#fff"/>
              <rect id="사각형_866" data-name="사각형 866" width="5.089" height="4.098" transform="translate(88.971 330.347) rotate(90)" fill="#fff"/>
            </g>
            <g id="그룹_3111" data-name="그룹 3111" transform="translate(825.079 497.174)">
              <path id="패스_2784" data-name="패스 2784" d="M1182.5,1390.459H1016.85V1224.811H1182.5Zm-165.016-.631h164.385V1225.443H1017.481Z" transform="translate(-1016.85 -1224.811)" fill="#fff"/>
              <rect id="사각형_867" data-name="사각형 867" width="0.631" height="233.368" transform="translate(0.092 0.539) rotate(-45)" fill="#fff"/>
              <path id="패스_2785" data-name="패스 2785" d="M1398.094,1390.459H1232.447V1224.811h165.647Zm-165.016-.631h164.385V1225.443H1233.078Z" transform="translate(-1067.431 -1224.811)" fill="#fff"/>
              <rect id="사각형_868" data-name="사각형 868" width="233.368" height="0.631" transform="translate(165.109 165.109) rotate(-45)" fill="#fff"/>
              <path id="패스_2786" data-name="패스 2786" d="M1613.69,1390.459H1448.044V1224.811H1613.69Zm-165.015-.631h164.384V1225.443H1448.675Z" transform="translate(-1118.012 -1224.811)" fill="#fff"/>
              <rect id="사각형_869" data-name="사각형 869" width="0.631" height="233.367" transform="translate(330.125 0.539) rotate(-45)" fill="#fff"/>
              <path id="패스_2787" data-name="패스 2787" d="M1182.5,1606.054H1016.85V1440.408H1182.5Zm-165.016-.632h164.385V1441.04H1017.481Z" transform="translate(-1016.85 -1275.392)" fill="#fff"/>
              <rect id="사각형_870" data-name="사각형 870" width="233.367" height="0.631" transform="translate(0.093 330.124) rotate(-45)" fill="#fff"/>
              <path id="패스_2788" data-name="패스 2788" d="M1398.094,1606.054H1232.447V1440.408h165.647Zm-165.016-.632h164.385V1441.04H1233.078Z" transform="translate(-1067.431 -1275.392)" fill="#fff"/>
              <rect id="사각형_871" data-name="사각형 871" width="0.631" height="233.367" transform="translate(165.108 165.555) rotate(-45)" fill="#fff"/>
              <rect id="사각형_872" data-name="사각형 872" width="233.367" height="0.631" transform="translate(165.109 330.124) rotate(-45)" fill="#fff"/>
              <path id="패스_2789" data-name="패스 2789" d="M1613.69,1606.054H1448.044V1440.408H1613.69Zm-165.015-.632h164.384V1441.04H1448.675Z" transform="translate(-1118.012 -1275.392)" fill="#fff"/>
              <rect id="사각형_873" data-name="사각형 873" width="0.631" height="233.366" transform="translate(330.125 165.555) rotate(-45)" fill="#fff"/>
              <path id="패스_2790" data-name="패스 2790" d="M1182.5,1821.651H1016.85V1656H1182.5Zm-165.016-.632h164.385V1656.635H1017.481Z" transform="translate(-1016.85 -1325.972)" fill="#fff"/>
              <rect id="사각형_874" data-name="사각형 874" width="0.631" height="233.368" transform="translate(0.092 330.57) rotate(-45)" fill="#fff"/>
              <rect id="사각형_875" data-name="사각형 875" width="233.368" height="0.631" transform="translate(0.092 495.139) rotate(-45)" fill="#fff"/>
              <path id="패스_2791" data-name="패스 2791" d="M1398.094,1821.651H1232.447V1656h165.647Zm-165.016-.632h164.385V1656.635H1233.078Z" transform="translate(-1067.431 -1325.972)" fill="#fff"/>
              <rect id="사각형_876" data-name="사각형 876" width="0.631" height="233.368" transform="translate(165.108 330.57) rotate(-45)" fill="#fff"/>
              <path id="패스_2792" data-name="패스 2792" d="M1613.69,1821.651H1448.044V1656H1613.69Zm-165.015-.632h164.384V1656.635H1448.675Z" transform="translate(-1118.012 -1325.972)" fill="#fff"/>
              <rect id="사각형_877" data-name="사각형 877" width="233.367" height="0.631" transform="matrix(0.707, -0.707, 0.707, 0.707, 330.131, 495.146)" fill="#fff"/>
              <rect id="사각형_878" data-name="사각형 878" width="5.089" height="4.098" transform="translate(246.158 325.258) rotate(90)" fill="#fff"/>
              <rect id="사각형_879" data-name="사각형 879" width="5.089" height="4.099" transform="translate(254.355 325.258) rotate(90)" fill="#fff"/>
              <rect id="사각형_880" data-name="사각형 880" width="5.089" height="4.098" transform="translate(246.158 165.331) rotate(90)" fill="#fff"/>
              <rect id="사각형_881" data-name="사각형 881" width="5.089" height="4.099" transform="translate(254.355 165.331) rotate(90)" fill="#fff"/>
              <rect id="사각형_882" data-name="사각형 882" width="5.089" height="4.098" transform="translate(80.774 490.274) rotate(90)" fill="#fff"/>
              <rect id="사각형_883" data-name="사각형 883" width="5.089" height="4.098" transform="translate(88.971 490.274) rotate(90)" fill="#fff"/>
              <rect id="사각형_884" data-name="사각형 884" width="5.089" height="4.098" transform="translate(80.774 330.347) rotate(90)" fill="#fff"/>
              <rect id="사각형_885" data-name="사각형 885" width="5.089" height="4.098" transform="translate(88.971 330.347) rotate(90)" fill="#fff"/>
            </g>
            <g id="그룹_3112" data-name="그룹 3112" transform="translate(0 0)">
              <path id="패스_2793" data-name="패스 2793" d="M104.514,740.891H-61.133V575.243H104.514ZM-60.5,740.259H103.883V575.874H-60.5Z" transform="translate(61.133 -575.243)" fill="#fff"/>
              <rect id="사각형_886" data-name="사각형 886" width="233.368" height="0.631" transform="translate(0.092 165.109) rotate(-45)" fill="#fff"/>
              <path id="패스_2794" data-name="패스 2794" d="M320.11,740.891H154.464V575.243H320.11Zm-165.015-.631H319.479V575.874H155.095Z" transform="translate(10.552 -575.243)" fill="#fff"/>
              <rect id="사각형_887" data-name="사각형 887" width="0.631" height="233.368" transform="translate(165.108 0.539) rotate(-45)" fill="#fff"/>
              <path id="패스_2795" data-name="패스 2795" d="M104.514,956.488H-61.133V790.84H104.514ZM-60.5,955.856H103.883V791.471H-60.5Z" transform="translate(61.133 -625.824)" fill="#fff"/>
              <rect id="사각형_888" data-name="사각형 888" width="0.631" height="233.368" transform="translate(0.092 165.555) rotate(-45)" fill="#fff"/>
              <rect id="사각형_889" data-name="사각형 889" width="233.368" height="0.631" transform="matrix(0.707, -0.707, 0.707, 0.707, 0.085, 330.118)" fill="#fff"/>
              <path id="패스_2796" data-name="패스 2796" d="M320.11,956.488H154.464V790.84H320.11Zm-165.015-.631H319.479V791.471H155.095Z" transform="translate(10.552 -625.824)" fill="#fff"/>
              <rect id="사각형_890" data-name="사각형 890" width="0.631" height="233.368" transform="translate(165.108 165.555) rotate(-45)" fill="#fff"/>
              <path id="패스_2797" data-name="패스 2797" d="M104.514,1172.083H-61.133V1006.437H104.514Zm-165.016-.631H103.883V1007.069H-60.5Z" transform="translate(61.133 -676.405)" fill="#fff"/>
              <rect id="사각형_891" data-name="사각형 891" width="0.631" height="233.367" transform="matrix(0.707, -0.707, 0.707, 0.707, 0.092, 330.571)" fill="#fff"/>
              <path id="패스_2798" data-name="패스 2798" d="M320.11,1172.083H154.464V1006.437H320.11Zm-165.015-.631H319.479V1007.069H155.095Z" transform="translate(10.552 -676.405)" fill="#fff"/>
              <rect id="사각형_892" data-name="사각형 892" width="233.367" height="0.631" transform="translate(165.108 495.14) rotate(-45)" fill="#fff"/>
              <rect id="사각형_893" data-name="사각형 893" width="5.089" height="4.098" transform="translate(81.142 325.258) rotate(90)" fill="#fff"/>
              <rect id="사각형_894" data-name="사각형 894" width="5.089" height="4.098" transform="translate(89.339 325.258) rotate(90)" fill="#fff"/>
              <rect id="사각형_895" data-name="사각형 895" width="5.089" height="4.098" transform="translate(81.142 165.332) rotate(90)" fill="#fff"/>
              <rect id="사각형_896" data-name="사각형 896" width="5.089" height="4.098" transform="translate(89.339 165.332) rotate(90)" fill="#fff"/>
            </g>
            <g id="그룹_3113" data-name="그룹 3113" transform="translate(330.031 0)">
              <path id="패스_2799" data-name="패스 2799" d="M535.707,740.891H370.06V575.243H535.707Zm-165.016-.631H535.076V575.874H370.691Z" transform="translate(-370.06 -575.243)" fill="#fff"/>
              <rect id="사각형_897" data-name="사각형 897" width="0.631" height="233.368" transform="translate(0.092 0.539) rotate(-45)" fill="#fff"/>
              <path id="패스_2800" data-name="패스 2800" d="M751.3,740.891H585.657V575.243H751.3Zm-165.016-.631H750.672V575.874H586.288Z" transform="translate(-420.641 -575.243)" fill="#fff"/>
              <rect id="사각형_898" data-name="사각형 898" width="233.368" height="0.631" transform="translate(165.108 165.109) rotate(-45)" fill="#fff"/>
              <path id="패스_2801" data-name="패스 2801" d="M966.9,740.891H801.253V575.243H966.9Zm-165.015-.631H966.269V575.874H801.884Z" transform="translate(-471.222 -575.243)" fill="#fff"/>
              <rect id="사각형_899" data-name="사각형 899" width="0.631" height="233.368" transform="translate(330.124 0.539) rotate(-45)" fill="#fff"/>
              <path id="패스_2802" data-name="패스 2802" d="M535.707,956.488H370.06V790.84H535.707Zm-165.016-.631H535.076V791.471H370.691Z" transform="translate(-370.06 -625.824)" fill="#fff"/>
              <rect id="사각형_900" data-name="사각형 900" width="233.368" height="0.631" transform="matrix(0.707, -0.707, 0.707, 0.707, 0.099, 330.132)" fill="#fff"/>
              <path id="패스_2803" data-name="패스 2803" d="M751.3,956.488H585.657V790.84H751.3Zm-165.016-.631H750.672V791.471H586.288Z" transform="translate(-420.641 -625.824)" fill="#fff"/>
              <rect id="사각형_901" data-name="사각형 901" width="0.631" height="233.368" transform="translate(165.108 165.555) rotate(-45)" fill="#fff"/>
              <rect id="사각형_902" data-name="사각형 902" width="233.368" height="0.631" transform="matrix(0.707, -0.707, 0.707, 0.707, 165.101, 330.118)" fill="#fff"/>
              <path id="패스_2804" data-name="패스 2804" d="M966.9,956.488H801.253V790.84H966.9Zm-165.015-.631H966.269V791.471H801.884Z" transform="translate(-471.222 -625.824)" fill="#fff"/>
              <rect id="사각형_903" data-name="사각형 903" width="0.631" height="233.368" transform="translate(330.124 165.555) rotate(-45)" fill="#fff"/>
              <path id="패스_2805" data-name="패스 2805" d="M535.707,1172.083H370.06V1006.437H535.707Zm-165.016-.631H535.076V1007.069H370.691Z" transform="translate(-370.06 -676.405)" fill="#fff"/>
              <rect id="사각형_904" data-name="사각형 904" width="0.631" height="233.367" transform="translate(0.092 330.571) rotate(-45)" fill="#fff"/>
              <rect id="사각형_905" data-name="사각형 905" width="233.367" height="0.631" transform="matrix(0.707, -0.707, 0.707, 0.707, 0.107, 495.154)" fill="#fff"/>
              <path id="패스_2806" data-name="패스 2806" d="M751.3,1172.083H585.657V1006.437H751.3Zm-165.016-.631H750.672V1007.069H586.288Z" transform="translate(-420.641 -676.405)" fill="#fff"/>
              <rect id="사각형_906" data-name="사각형 906" width="0.631" height="233.367" transform="translate(165.108 330.571) rotate(-45)" fill="#fff"/>
              <path id="패스_2807" data-name="패스 2807" d="M966.9,1172.083H801.253V1006.437H966.9Zm-165.015-.631H966.269V1007.069H801.884Z" transform="translate(-471.222 -676.405)" fill="#fff"/>
              <rect id="사각형_907" data-name="사각형 907" width="233.367" height="0.631" transform="translate(330.124 495.14) rotate(-45)" fill="#fff"/>
              <rect id="사각형_908" data-name="사각형 908" width="5.089" height="4.098" transform="translate(246.158 325.258) rotate(90)" fill="#fff"/>
              <rect id="사각형_909" data-name="사각형 909" width="5.089" height="4.098" transform="translate(254.355 325.258) rotate(90)" fill="#fff"/>
              <rect id="사각형_910" data-name="사각형 910" width="5.089" height="4.098" transform="translate(246.158 165.332) rotate(90)" fill="#fff"/>
              <rect id="사각형_911" data-name="사각형 911" width="5.089" height="4.098" transform="translate(254.355 165.332) rotate(90)" fill="#fff"/>
              <rect id="사각형_912" data-name="사각형 912" width="5.089" height="4.098" transform="translate(80.774 490.274) rotate(90)" fill="#fff"/>
              <rect id="사각형_913" data-name="사각형 913" width="5.089" height="4.098" transform="translate(88.971 490.274) rotate(90)" fill="#fff"/>
              <rect id="사각형_914" data-name="사각형 914" width="5.089" height="4.098" transform="translate(80.774 330.348) rotate(90)" fill="#fff"/>
              <rect id="사각형_915" data-name="사각형 915" width="5.089" height="4.098" transform="translate(88.971 330.348) rotate(90)" fill="#fff"/>
            </g>
          </g>
        </g>
      </g>
      <g id="그룹_3174" data-name="그룹 3174" transform="translate(-731.413 3363.915)">
        <rect id="사각형_762" data-name="사각형 762" width="5.41" height="5.41" transform="translate(864.055 1101.751)" fill="#dc0012"/>
        <rect id="사각형_763" data-name="사각형 763" width="5.41" height="5.41" transform="translate(975.155 1101.751)" fill="#dc0012"/>
        <rect id="사각형_764" data-name="사각형 764" width="5.41" height="5.41" transform="translate(1086.256 1101.751)" fill="#dc0012"/>
        <rect id="사각형_765" data-name="사각형 765" width="5.41" height="5.41" transform="translate(1197.356 1101.751)" fill="#dc0012"/>
        <rect id="사각형_766" data-name="사각형 766" width="5.41" height="5.41" transform="translate(1308.457 1101.751)" fill="#dc0012"/>
        <rect id="사각형_767" data-name="사각형 767" width="5.41" height="5.41" transform="translate(1406.831 1101.751)" fill="#dc0012"/>
        <rect id="사각형_768" data-name="사각형 768" width="7.371" height="25.796" transform="translate(1486.222 1088.495)" fill="#dc0012"/>
        <rect id="사각형_769" data-name="사각형 769" width="5.41" height="5.41" transform="translate(1134.325 1158.47) rotate(180)" fill="#dc0012"/>
        <rect id="사각형_770" data-name="사각형 770" width="5.41" height="5.41" transform="translate(1023.225 1158.47) rotate(180)" fill="#dc0012"/>
        <rect id="사각형_771" data-name="사각형 771" width="5.41" height="5.41" transform="translate(912.124 1158.47) rotate(180)" fill="#dc0012"/>
        <rect id="사각형_772" data-name="사각형 772" width="5.41" height="5.41" transform="translate(801.024 1158.47) rotate(180)" fill="#dc0012"/>
        <rect id="사각형_773" data-name="사각형 773" width="5.41" height="5.41" transform="translate(710.525 1158.47) rotate(180)" fill="#dc0012"/>
        <rect id="사각형_774" data-name="사각형 774" width="5.41" height="5.41" transform="translate(578.823 1158.47) rotate(180)" fill="#dc0012"/>
      </g>
    </g>
    <g id="그룹_5223" data-name="그룹 5223" transform="translate(2551.719 4746.973) rotate(180)">
      <rect id="사각형_762-2" data-name="사각형 762" width="5.41" height="5.41" transform="translate(698.207 1101.751)" fill="#dc0012"/>
      <rect id="사각형_763-2" data-name="사각형 763" width="5.41" height="5.41" transform="translate(745.91 1101.751)" fill="#dc0012"/>
      <rect id="사각형_764-2" data-name="사각형 764" width="5.41" height="5.41" transform="translate(793.614 1101.751)" fill="#dc0012"/>
      <rect id="사각형_765-2" data-name="사각형 765" width="5.41" height="5.41" transform="translate(841.317 1101.751)" fill="#dc0012"/>
      <rect id="사각형_766-2" data-name="사각형 766" width="5.41" height="5.41" transform="translate(889.021 1101.751)" fill="#dc0012"/>
      <rect id="사각형_767-2" data-name="사각형 767" width="5.41" height="5.41" transform="translate(842.69 1101.751)" fill="#dc0012"/>
      <rect id="사각형_768-2" data-name="사각형 768" width="7.371" height="25.796" transform="translate(964.229 1088.495)" fill="#dc0012"/>
      <rect id="사각형_769-2" data-name="사각형 769" width="5.41" height="5.41" transform="translate(817.341 1158.47) rotate(180)" fill="#dc0012"/>
      <rect id="사각형_770-2" data-name="사각형 770" width="5.41" height="5.41" transform="translate(769.637 1158.47) rotate(180)" fill="#dc0012"/>
      <rect id="사각형_771-2" data-name="사각형 771" width="5.41" height="5.41" transform="translate(721.934 1158.47) rotate(180)" fill="#dc0012"/>
      <rect id="사각형_772-2" data-name="사각형 772" width="5.41" height="5.41" transform="translate(674.23 1158.47) rotate(180)" fill="#dc0012"/>
      <rect id="사각형_773-2" data-name="사각형 773" width="5.41" height="5.41" transform="translate(778.761 1158.47) rotate(180)" fill="#dc0012"/>
      <rect id="사각형_774-2" data-name="사각형 774" width="5.41" height="5.41" transform="translate(578.823 1158.47) rotate(180)" fill="#dc0012"/>
    </g>
  </g>
</svg>
