<svg xmlns="http://www.w3.org/2000/svg" xmlns:xlink="http://www.w3.org/1999/xlink" width="1386.053" height="2598.053" viewBox="0 0 1386.053 2598.053">
  <defs>
    <filter id="사각형_1414" x="0" y="29.168" width="1386.053" height="99.019" filterUnits="userSpaceOnUse">
      <feOffset input="SourceAlpha"/>
      <feGaussianBlur stdDeviation="10" result="blur"/>
      <feFlood flood-color="#c8102c" flood-opacity="0.8"/>
      <feComposite operator="in" in2="blur"/>
      <feComposite in="SourceGraphic"/>
    </filter>
    <filter id="패스_5021" x="0" y="29.168" width="521.926" height="87.512" filterUnits="userSpaceOnUse">
      <feOffset input="SourceAlpha"/>
      <feGaussianBlur stdDeviation="10" result="blur-2"/>
      <feFlood flood-color="#c8102c" flood-opacity="0.8"/>
      <feComposite operator="in" in2="blur-2"/>
      <feComposite in="SourceGraphic"/>
    </filter>
    <filter id="패스_5022" x="979.142" y="0" width="406.911" height="90.835" filterUnits="userSpaceOnUse">
      <feOffset input="SourceAlpha"/>
      <feGaussianBlur stdDeviation="10" result="blur-3"/>
      <feFlood flood-color="#c8102c" flood-opacity="0.8"/>
      <feComposite operator="in" in2="blur-3"/>
      <feComposite in="SourceGraphic"/>
    </filter>
    <filter id="패스_5023" x="0" y="0" width="406.911" height="90.835" filterUnits="userSpaceOnUse">
      <feOffset input="SourceAlpha"/>
      <feGaussianBlur stdDeviation="10" result="blur-4"/>
      <feFlood flood-color="#c8102c" flood-opacity="0.8"/>
      <feComposite operator="in" in2="blur-4"/>
      <feComposite in="SourceGraphic"/>
    </filter>
    <filter id="패스_5050" x="425.601" y="12.298" width="186.677" height="70.873" filterUnits="userSpaceOnUse">
      <feOffset input="SourceAlpha"/>
      <feGaussianBlur stdDeviation="10" result="blur-5"/>
      <feFlood flood-color="#c8102c" flood-opacity="0.8"/>
      <feComposite operator="in" in2="blur-5"/>
      <feComposite in="SourceGraphic"/>
    </filter>
    <filter id="패스_5051" x="667.994" y="12.298" width="79.295" height="66.153" filterUnits="userSpaceOnUse">
      <feOffset input="SourceAlpha"/>
      <feGaussianBlur stdDeviation="10" result="blur-6"/>
      <feFlood flood-color="#c8102c" flood-opacity="0.8"/>
      <feComposite operator="in" in2="blur-6"/>
      <feComposite in="SourceGraphic"/>
    </filter>
    <filter id="패스_5052" x="693.192" y="12.298" width="79.295" height="66.153" filterUnits="userSpaceOnUse">
      <feOffset input="SourceAlpha"/>
      <feGaussianBlur stdDeviation="10" result="blur-7"/>
      <feFlood flood-color="#c8102c" flood-opacity="0.8"/>
      <feComposite operator="in" in2="blur-7"/>
      <feComposite in="SourceGraphic"/>
    </filter>
    <filter id="패스_5053" x="718.389" y="12.298" width="79.295" height="66.153" filterUnits="userSpaceOnUse">
      <feOffset input="SourceAlpha"/>
      <feGaussianBlur stdDeviation="10" result="blur-8"/>
      <feFlood flood-color="#c8102c" flood-opacity="0.8"/>
      <feComposite operator="in" in2="blur-8"/>
      <feComposite in="SourceGraphic"/>
    </filter>
    <filter id="패스_5054" x="743.586" y="12.298" width="79.295" height="66.153" filterUnits="userSpaceOnUse">
      <feOffset input="SourceAlpha"/>
      <feGaussianBlur stdDeviation="10" result="blur-9"/>
      <feFlood flood-color="#c8102c" flood-opacity="0.8"/>
      <feComposite operator="in" in2="blur-9"/>
      <feComposite in="SourceGraphic"/>
    </filter>
    <filter id="패스_5055" x="768.784" y="12.298" width="79.295" height="66.153" filterUnits="userSpaceOnUse">
      <feOffset input="SourceAlpha"/>
      <feGaussianBlur stdDeviation="10" result="blur-10"/>
      <feFlood flood-color="#c8102c" flood-opacity="0.8"/>
      <feComposite operator="in" in2="blur-10"/>
      <feComposite in="SourceGraphic"/>
    </filter>
    <filter id="사각형_1414-2" x="0" y="2469.866" width="1386.053" height="99.019" filterUnits="userSpaceOnUse">
      <feOffset input="SourceAlpha"/>
      <feGaussianBlur stdDeviation="10" result="blur-11"/>
      <feFlood flood-color="#c8102c" flood-opacity="0.8"/>
      <feComposite operator="in" in2="blur-11"/>
      <feComposite in="SourceGraphic"/>
    </filter>
    <filter id="패스_5021-2" x="864.127" y="2481.373" width="521.926" height="87.513" filterUnits="userSpaceOnUse">
      <feOffset input="SourceAlpha"/>
      <feGaussianBlur stdDeviation="10" result="blur-12"/>
      <feFlood flood-color="#c8102c" flood-opacity="0.8"/>
      <feComposite operator="in" in2="blur-12"/>
      <feComposite in="SourceGraphic"/>
    </filter>
    <filter id="패스_5022-2" x="0" y="2507.219" width="406.911" height="90.835" filterUnits="userSpaceOnUse">
      <feOffset input="SourceAlpha"/>
      <feGaussianBlur stdDeviation="10" result="blur-13"/>
      <feFlood flood-color="#c8102c" flood-opacity="0.8"/>
      <feComposite operator="in" in2="blur-13"/>
      <feComposite in="SourceGraphic"/>
    </filter>
    <filter id="패스_5023-2" x="979.142" y="2507.219" width="406.911" height="90.835" filterUnits="userSpaceOnUse">
      <feOffset input="SourceAlpha"/>
      <feGaussianBlur stdDeviation="10" result="blur-14"/>
      <feFlood flood-color="#c8102c" flood-opacity="0.8"/>
      <feComposite operator="in" in2="blur-14"/>
      <feComposite in="SourceGraphic"/>
    </filter>
    <filter id="패스_5050-2" x="773.775" y="2514.882" width="186.677" height="70.873" filterUnits="userSpaceOnUse">
      <feOffset input="SourceAlpha"/>
      <feGaussianBlur stdDeviation="10" result="blur-15"/>
      <feFlood flood-color="#c8102c" flood-opacity="0.8"/>
      <feComposite operator="in" in2="blur-15"/>
      <feComposite in="SourceGraphic"/>
    </filter>
    <filter id="패스_5051-2" x="638.763" y="2519.602" width="79.295" height="66.152" filterUnits="userSpaceOnUse">
      <feOffset input="SourceAlpha"/>
      <feGaussianBlur stdDeviation="10" result="blur-16"/>
      <feFlood flood-color="#c8102c" flood-opacity="0.8"/>
      <feComposite operator="in" in2="blur-16"/>
      <feComposite in="SourceGraphic"/>
    </filter>
    <filter id="패스_5052-2" x="613.566" y="2519.602" width="79.295" height="66.152" filterUnits="userSpaceOnUse">
      <feOffset input="SourceAlpha"/>
      <feGaussianBlur stdDeviation="10" result="blur-17"/>
      <feFlood flood-color="#c8102c" flood-opacity="0.8"/>
      <feComposite operator="in" in2="blur-17"/>
      <feComposite in="SourceGraphic"/>
    </filter>
    <filter id="패스_5053-2" x="588.369" y="2519.602" width="79.295" height="66.152" filterUnits="userSpaceOnUse">
      <feOffset input="SourceAlpha"/>
      <feGaussianBlur stdDeviation="10" result="blur-18"/>
      <feFlood flood-color="#c8102c" flood-opacity="0.8"/>
      <feComposite operator="in" in2="blur-18"/>
      <feComposite in="SourceGraphic"/>
    </filter>
    <filter id="패스_5054-2" x="563.171" y="2519.602" width="79.295" height="66.152" filterUnits="userSpaceOnUse">
      <feOffset input="SourceAlpha"/>
      <feGaussianBlur stdDeviation="10" result="blur-19"/>
      <feFlood flood-color="#c8102c" flood-opacity="0.8"/>
      <feComposite operator="in" in2="blur-19"/>
      <feComposite in="SourceGraphic"/>
    </filter>
    <filter id="패스_5055-2" x="537.973" y="2519.602" width="79.295" height="66.152" filterUnits="userSpaceOnUse">
      <feOffset input="SourceAlpha"/>
      <feGaussianBlur stdDeviation="10" result="blur-20"/>
      <feFlood flood-color="#c8102c" flood-opacity="0.8"/>
      <feComposite operator="in" in2="blur-20"/>
      <feComposite in="SourceGraphic"/>
    </filter>
    <filter id="패스_5111" x="0" y="67.792" width="70" height="1060" filterUnits="userSpaceOnUse">
      <feOffset input="SourceAlpha"/>
      <feGaussianBlur stdDeviation="10" result="blur-21"/>
      <feFlood flood-color="#c8102c" flood-opacity="0.8"/>
      <feComposite operator="in" in2="blur-21"/>
      <feComposite in="SourceGraphic"/>
    </filter>
    <filter id="패스_5112" x="1316" y="67.792" width="70" height="1060" filterUnits="userSpaceOnUse">
      <feOffset input="SourceAlpha"/>
      <feGaussianBlur stdDeviation="10" result="blur-22"/>
      <feFlood flood-color="#c8102c" flood-opacity="0.8"/>
      <feComposite operator="in" in2="blur-22"/>
      <feComposite in="SourceGraphic"/>
    </filter>
    <filter id="패스_5113" x="1316" y="1470.237" width="70" height="1060" filterUnits="userSpaceOnUse">
      <feOffset input="SourceAlpha"/>
      <feGaussianBlur stdDeviation="10" result="blur-23"/>
      <feFlood flood-color="#c8102c" flood-opacity="0.8"/>
      <feComposite operator="in" in2="blur-23"/>
      <feComposite in="SourceGraphic"/>
    </filter>
    <filter id="패스_5114" x="0" y="1470.237" width="70" height="1060" filterUnits="userSpaceOnUse">
      <feOffset input="SourceAlpha"/>
      <feGaussianBlur stdDeviation="10" result="blur-24"/>
      <feFlood flood-color="#c8102c" flood-opacity="0.8"/>
      <feComposite operator="in" in2="blur-24"/>
      <feComposite in="SourceGraphic"/>
    </filter>
  </defs>
  <g id="그룹_6287" data-name="그룹 6287" transform="translate(-267 -3502.763)">
    <g id="그룹_5771" data-name="그룹 5771" transform="translate(297 3532.763)">
      <g transform="matrix(1, 0, 0, 1, -30, -30)" filter="url(#사각형_1414)">
        <rect id="사각형_1414-3" data-name="사각형 1414" width="1326.053" height="39.019" transform="translate(30 59.17)" fill="#c8102c"/>
      </g>
      <g transform="matrix(1, 0, 0, 1, -30, -30)" filter="url(#패스_5021)">
        <path id="패스_5021-3" data-name="패스 5021" d="M0,0V1.027H33.623l20.6,26.485H425.017l20.6-26.485h16.309V0Z" transform="translate(30 59.17)" fill="#c8102c"/>
      </g>
      <g transform="matrix(1, 0, 0, 1, -30, -30)" filter="url(#패스_5022)">
        <path id="패스_5022-3" data-name="패스 5022" d="M346.911,29.786,328.553,11.427H249.5L238.071,0H120.614L104.363,16.251H14.584L0,30.835Z" transform="translate(1009.14 30)" fill="#c8102c"/>
      </g>
      <g transform="matrix(1, 0, 0, 1, -30, -30)" filter="url(#패스_5023)">
        <path id="패스_5023-3" data-name="패스 5023" d="M0,29.786,18.358,11.427H97.412L108.84,0H226.3l16.251,16.251h89.779l14.584,14.584Z" transform="translate(30 30)" fill="#c8102c"/>
      </g>
      <g transform="matrix(1, 0, 0, 1, -30, -30)" filter="url(#패스_5050)">
        <path id="패스_5050-3" data-name="패스 5050" d="M126.677,0H76.135l-4.63,4.63H0l6.243,6.243h114l6.281-6.281Z" transform="translate(455.6 42.3)" fill="#c8102c"/>
      </g>
      <g transform="matrix(1, 0, 0, 1, -30, -30)" filter="url(#패스_5051)">
        <path id="패스_5051-3" data-name="패스 5051" d="M19.3,6.153,13.143,0H0C.139,0,6.089,6.087,6.089,6.087Z" transform="translate(697.99 42.3)" fill="#c8102c"/>
      </g>
      <g transform="matrix(1, 0, 0, 1, -30, -30)" filter="url(#패스_5052)">
        <path id="패스_5052-3" data-name="패스 5052" d="M19.3,6.153,13.143,0H0C.139,0,6.088,6.087,6.088,6.087Z" transform="translate(723.19 42.3)" fill="#c8102c"/>
      </g>
      <g transform="matrix(1, 0, 0, 1, -30, -30)" filter="url(#패스_5053)">
        <path id="패스_5053-3" data-name="패스 5053" d="M19.3,6.153,13.143,0H0C.139,0,6.088,6.087,6.088,6.087Z" transform="translate(748.39 42.3)" fill="#c8102c"/>
      </g>
      <g transform="matrix(1, 0, 0, 1, -30, -30)" filter="url(#패스_5054)">
        <path id="패스_5054-3" data-name="패스 5054" d="M19.3,6.153,13.143,0H0C.139,0,6.088,6.087,6.088,6.087Z" transform="translate(773.59 42.3)" fill="#c8102c"/>
      </g>
      <g transform="matrix(1, 0, 0, 1, -30, -30)" filter="url(#패스_5055)">
        <path id="패스_5055-3" data-name="패스 5055" d="M19.3,6.153,13.143,0H0C.139,0,6.089,6.087,6.089,6.087Z" transform="translate(798.78 42.3)" fill="#c8102c"/>
      </g>
    </g>
    <g id="그룹_5838" data-name="그룹 5838" transform="translate(1623.053 6070.816) rotate(180)">
      <g transform="matrix(-1, 0, 0, -1, 1356.05, 2568.05)" filter="url(#사각형_1414-2)">
        <rect id="사각형_1414-4" data-name="사각형 1414" width="1326.053" height="39.019" transform="translate(1356.05 2538.89) rotate(180)" fill="#c8102c"/>
      </g>
      <g transform="matrix(-1, 0, 0, -1, 1356.05, 2568.05)" filter="url(#패스_5021-2)">
        <path id="패스_5021-4" data-name="패스 5021" d="M0,0V1.027H33.623l20.6,26.485H425.017l20.6-26.485h16.309V0Z" transform="translate(1356.05 2538.89) rotate(180)" fill="#c8102c"/>
      </g>
      <g transform="matrix(-1, 0, 0, -1, 1356.05, 2568.05)" filter="url(#패스_5022-2)">
        <path id="패스_5022-4" data-name="패스 5022" d="M346.911,29.786,328.553,11.427H249.5L238.071,0H120.614L104.363,16.251H14.584L0,30.835Z" transform="translate(376.91 2568.05) rotate(180)" fill="#c8102c"/>
      </g>
      <g transform="matrix(-1, 0, 0, -1, 1356.05, 2568.05)" filter="url(#패스_5023-2)">
        <path id="패스_5023-4" data-name="패스 5023" d="M0,29.786,18.358,11.427H97.412L108.84,0H226.3l16.251,16.251h89.779l14.584,14.584Z" transform="translate(1356.05 2568.05) rotate(180)" fill="#c8102c"/>
      </g>
      <g transform="matrix(-1, 0, 0, -1, 1356.05, 2568.05)" filter="url(#패스_5050-2)">
        <path id="패스_5050-4" data-name="패스 5050" d="M126.677,0H76.135l-4.63,4.63H0l6.243,6.243h114l6.281-6.281Z" transform="translate(930.45 2555.75) rotate(180)" fill="#c8102c"/>
      </g>
      <g transform="matrix(-1, 0, 0, -1, 1356.05, 2568.05)" filter="url(#패스_5051-2)">
        <path id="패스_5051-4" data-name="패스 5051" d="M19.3,6.153,13.143,0H0C.139,0,6.089,6.087,6.089,6.087Z" transform="translate(688.06 2555.75) rotate(180)" fill="#c8102c"/>
      </g>
      <g transform="matrix(-1, 0, 0, -1, 1356.05, 2568.05)" filter="url(#패스_5052-2)">
        <path id="패스_5052-4" data-name="패스 5052" d="M19.3,6.153,13.143,0H0C.139,0,6.088,6.087,6.088,6.087Z" transform="translate(662.86 2555.75) rotate(180)" fill="#c8102c"/>
      </g>
      <g transform="matrix(-1, 0, 0, -1, 1356.05, 2568.05)" filter="url(#패스_5053-2)">
        <path id="패스_5053-4" data-name="패스 5053" d="M19.3,6.153,13.143,0H0C.139,0,6.088,6.087,6.088,6.087Z" transform="translate(637.66 2555.75) rotate(180)" fill="#c8102c"/>
      </g>
      <g transform="matrix(-1, 0, 0, -1, 1356.05, 2568.05)" filter="url(#패스_5054-2)">
        <path id="패스_5054-4" data-name="패스 5054" d="M19.3,6.153,13.143,0H0C.139,0,6.088,6.087,6.088,6.087Z" transform="translate(612.47 2555.75) rotate(180)" fill="#c8102c"/>
      </g>
      <g transform="matrix(-1, 0, 0, -1, 1356.05, 2568.05)" filter="url(#패스_5055-2)">
        <path id="패스_5055-4" data-name="패스 5055" d="M19.3,6.153,13.143,0H0C.139,0,6.089,6.087,6.089,6.087Z" transform="translate(587.27 2555.75) rotate(180)" fill="#c8102c"/>
      </g>
    </g>
    <g id="사각형_2493" data-name="사각형 2493" transform="translate(297 3600.555)" fill="rgba(255,255,255,0.05)" stroke="rgba(255,255,255,0.1)" stroke-width="1">
      <rect width="1326.053" height="2402.075" stroke="none"/>
      <rect x="0.5" y="0.5" width="1325.053" height="2401.075" fill="none"/>
    </g>
    <g transform="matrix(1, 0, 0, 1, 267, 3502.76)" filter="url(#패스_5111)">
      <path id="패스_5111-2" data-name="패스 5111" d="M0,0H10L0,1000H0Z" transform="translate(30 97.79)" fill="#c8102c"/>
    </g>
    <g transform="matrix(1, 0, 0, 1, 267, 3502.76)" filter="url(#패스_5112)">
      <path id="패스_5112-2" data-name="패스 5112" d="M10,0H0L10,1000h0Z" transform="translate(1346 97.79)" fill="#c8102c"/>
    </g>
    <g id="그룹_5837" data-name="그룹 5837" transform="translate(107 -108)">
      <g transform="matrix(1, 0, 0, 1, 160, 3610.76)" filter="url(#패스_5113)">
        <path id="패스_5113-2" data-name="패스 5113" d="M0,0H10L0,1000H0Z" transform="translate(1356 2500.24) rotate(180)" fill="#c8102c"/>
      </g>
      <g transform="matrix(1, 0, 0, 1, 160, 3610.76)" filter="url(#패스_5114)">
        <path id="패스_5114-2" data-name="패스 5114" d="M10,0H0L10,1000h0Z" transform="translate(40 2500.24) rotate(180)" fill="#c8102c"/>
      </g>
    </g>
  </g>
</svg>
