<svg xmlns="http://www.w3.org/2000/svg" xmlns:xlink="http://www.w3.org/1999/xlink" width="1920" height="1080" viewBox="0 0 1920 1080">
  <defs>
    <clipPath id="clip-path">
      <rect id="사각형_2804" data-name="사각형 2804" width="1920" height="1080" fill="#fff" stroke="#707070" stroke-width="1"/>
    </clipPath>
  </defs>
  <g id="마스크_그룹_41" data-name="마스크 그룹 41" clip-path="url(#clip-path)">
    <g id="_7dfRqE.tif" data-name="7dfRqE.tif" transform="translate(87.668 68)">
      <g id="그룹_6545" data-name="그룹 6545" transform="translate(0 0)">
        <path id="패스_5291" data-name="패스 5291" d="M2377.242-553.032a36.855,36.855,0,0,0,2.8-3.645c6.232-11.883,12.775-23.616,18.51-35.733,4.515-9.539,7.574-19.774,12.157-29.278a48.493,48.493,0,0,1,10.774-15.02c19.794-17.607,38.1-37.246,62.635-48.751,4.08-1.913,8.534-3.022,12.755-4.661,11.327-4.4,23.137-6.724,35.073-8.778,8.741-1.5,16.025,2.946,23.963,4.713,11.076,2.468,22.242,4.651,33.1,7.86,4.48,1.322,8.224,5.05,12.371,7.575,1.94,1.183,3.941,2.691,6.076,3.018,3.792.575,7.778-.062,11.548.591,4.815.84,9.488,3.65,13.666-1.778.793-1.032,4.392-1.1,5.812-.213,4.4,2.768,8.332,6.279,12.542,9.374,2.737,2.017,5.4,4.5,8.507,5.584a137.334,137.334,0,0,1,43.448,24.71c3.484,2.924,6.942,6.175,10.98,8.077,11.768,5.553,16.892,16.6,23.031,26.748,6.911,11.417,13.039,23.31,19.987,34.706,4.583,7.513,10.582,14.191,14.905,21.838,4,7.072,6.974,14.8,9.742,22.481a218.865,218.865,0,0,1,6.534,22.579c.757,3.137,1.486,7.113.233,9.757-4.906,10.333.715,19.769,1.529,29.583.234,2.805.674,5.714.208,8.441-1.9,11.173-4.458,22.242-6.128,33.446-1.571,10.566-9.379,17.192-14.885,25.244a82.53,82.53,0,0,1-10.913,12.64c-3.781,3.639-8.238,6.574-12.371,9.856-2.407,1.913-5.21,3.546-7.03,5.921-5.148,6.745-9.721,13.926-14.822,20.7-4.459,5.916-9.493,11.39-13.942,17.311a32.9,32.9,0,0,0-4.4,8.658c-2.774,7.756-5.438,15.564-7.715,23.481-.8,2.784-1.576,6.663-.291,8.8,14.6,24.258,23.954,51.436,41.954,73.849,8.643,10.759,15.954,22.631,23.362,34.323,10,15.772,21.936,29.516,37.847,39.621,27.552,17.5,44.791,43.681,59.913,71.6,5.024,9.27,10.344,17.918,19.018,24.809,6.932,5.516,11.282,14.164,17.328,20.925,16.408,18.354,32.595,36.946,49.808,54.522,29.973,30.61,51.271,66.835,70.921,104.413,13.381,25.576,24.436,52.048,34.971,78.853,2.98,7.58,9.192,14.092,14.662,20.454,23.071,26.846,32.948,59.431,40.565,92.893,3.437,15.092,1.233,30.511-1.2,45.568a376.41,376.41,0,0,1-9.348,42.934c-6.04,21.231-27.281,37.8-49.29,40.668-14.077,1.835-28,4.811-42.042,6.922-4.672.7-9.53.046-14.268.42-22.243,1.752-43.577-1.975-64.56-9.348-41.061-14.434-81.927-29.195-119.163-52.36-13.123-8.166-23.626-18.094-27.4-33.721a11.7,11.7,0,0,0-2.458-4.956c-8.788-9.674-18.878-17.182-32.71-18.934-.12,1.985-.274,3.608-.3,5.231-.575,35.608-1.255,71.216-1.591,106.824-.051,5.6-1.545,7.352-7.367,7.352q-465.605-.218-931.216-.13c-7.393,0-7.9-.6-6.33-7.124,10.084-41.819,19.633-83.773,30.429-125.406,7.471-28.837,16.684-57.223,25.057-85.821,9.767-33.369,19.4-66.778,29.263-100.115,2.031-6.859-2.63-10.012-6.683-13.309-9.96-8.1-20.164-15.9-30.32-23.756-52.94-40.907-106.011-81.642-158.8-122.741-30.056-23.409-59.535-47.564-89.591-70.973-4.889-3.811-11.266-6-17.25-8.083-31.5-10.95-55.677-31.73-75.575-57.508-9.918-12.847-17.784-27.333-26.007-41.409-7.933-13.573-15.989-27.183-22.423-41.482a329.815,329.815,0,0,1-17.1-46.517c-3.339-11.971-2.229-24.643,2.178-36.655,1-2.717,2.395-5.465,2.576-8.269.866-13.252,8.82-21.159,19.34-27.8,34.342-21.672,69.5-41.871,106.1-59.493,19.572-9.421,39.294-18.551,59-27.7,3.5-1.623,6.926-2.794,6.392-7.766-.114-1.094,1.115-3.2,2.049-3.412,9.1-2.048,13.231-10.234,19.525-15.652,4.376-3.769,8.462-6.04,14.522-4.744,2.271.492,5.428-1.053,7.58-2.536,4.941-3.4,9.177-7.455,16.243-5.719,2.183.534,5.423-2.3,7.881-4.013,7.394-5.179,8.731-5.19,16.384-.093a5.8,5.8,0,0,0,4.433.337c5.08-1.674,10.047-3.691,15.072-5.537.959-.352,2.131-.97,2.955-.7,11.08,3.609,19.774-3.069,28.639-7.264,15.332-7.263,30.189-15.564,45.055-23.771,14.3-7.891,28.992-6.818,43.887-2.7,13.344,3.686,26.566,7.844,39.974,11.3,2.965.767,6.558-.176,9.71-.959,23.1-5.719,46.588-10.287,69.126-17.716,35.536-11.717,70.366-25.56,105.626-38.133,9.462-3.37,19.333-5.692,29.132-7.974,9.841-2.292,19.79-4.179,29.765-5.776,8.125-1.3,16.41-1.607,24.539-2.9,13.019-2.074,25.939-4.77,38.952-6.9,27.7-4.532,55.361-9.338,83.172-13,8.73-1.151,17.98.415,26.835,1.763,8.809,1.343,14.075,8.409,19.162,14.916,3.987,5.1,8.342,8.9,14.885,10.286,9.463,2,16.239,7.829,21.127,16.062C2373.073-558.658,2374.951-556.3,2377.242-553.032ZM2135.068-158.581c13.356-4.718,24.959-10.022,37.138-12.821,15.045-3.458,29.821-7.534,44.644-11.811,21.262-6.144,40.87-14.507,57.165-29.729,1.286-1.2,3.158-2.68,3.236-4.111.3-5.729-.109-11.49-.047-17.239.119-11.546-.058-23.113.658-34.628,1.494-24.155-5.531-47.937-24.611-66.726-1.555-1.535-2.51-3.748-3.494-5.771-2.857-5.854-5.175-11.945-11.838-14.973-2.037-.928-3.3-3.541-4.936-5.371a62.326,62.326,0,0,0-5.143-5.625c-5.994-5.226-12.117-10.307-18.213-15.409-1.566-1.311-3.412-2.322-4.822-3.769-6.89-7.051-15.055-13.366-20.048-21.589-3.853-6.351-7.788-9.254-14.622-10.25-20.878-3.049-41.43-.565-61.432,4.868-34.446,9.348-67.187,23.491-99.6,38.253-12.091,5.506-25.186,9.8-33.83,21.06a10.939,10.939,0,0,1-3.064,2.079c-24.5,15.061-49.378,29.547-73.414,45.319-27.354,17.944-53.8,37.282-83.882,50.7-1.991.887-3.712,2.385-7,4.547,4.537,3.738,7.834,7.637,12.033,9.67a316.445,316.445,0,0,0,33.576,14.392c10.317,3.593,18.406,9.249,23.922,18.576a22.442,22.442,0,0,0,16.223,11.287c6.087,1.016,12.22,1.851,18.369,2.385,4.458.389,8.99-.1,13.453.239,6.689.524,13.942,0,19.9,2.468,13.206,5.459,28.423,3.676,38.806-5.952,20.3-18.826,42.981-33.68,70.056-41,17.539-4.739,34.82-5.532,50.934,4.547,9.664,6.045,17.773,13.755,20.6,25.363,1.358,5.583,1.7,11.406,2.742,17.073C2130.614-181.232,2132.865-169.967,2135.068-158.581Z" transform="translate(-1437.787 699.202)"/>
      </g>
    </g>
  </g>
</svg>
