<?xml version="1.0" encoding="UTF-8"?><svg id="_레이어_1" xmlns="http://www.w3.org/2000/svg" viewBox="0 0 1671.96 1165.21"><defs><style>.cls-1{fill:#040000;}</style></defs><g id="_그룹_6545"><path id="_패스_5291" class="cls-1" d="M939.45,146.17c1.01-1.16,1.94-2.37,2.8-3.65,6.23-11.88,12.77-23.62,18.51-35.73,4.51-9.54,7.57-19.77,12.16-29.28,2.59-5.65,6.25-10.75,10.77-15.02,19.79-17.61,38.1-37.25,62.64-48.75,4.08-1.91,8.53-3.02,12.75-4.66,11.33-4.4,23.14-6.72,35.07-8.78,8.74-1.5,16.02,2.95,23.96,4.71,11.08,2.47,22.24,4.65,33.1,7.86,4.48,1.32,8.22,5.05,12.37,7.58,1.94,1.18,3.94,2.69,6.08,3.02,3.79,.58,7.78-.06,11.55,.59,4.81,.84,9.49,3.65,13.67-1.78,.79-1.03,4.39-1.1,5.81-.21,4.4,2.77,8.33,6.28,12.54,9.37,2.74,2.02,5.4,4.5,8.51,5.58,15.87,5.51,30.6,13.89,43.45,24.71,3.48,2.92,6.94,6.17,10.98,8.08,11.77,5.55,16.89,16.6,23.03,26.75,6.91,11.42,13.04,23.31,19.99,34.71,4.58,7.51,10.58,14.19,14.91,21.84,4,7.07,6.97,14.8,9.74,22.48,2.58,7.4,4.76,14.94,6.53,22.58,.76,3.14,1.49,7.11,.23,9.76-4.91,10.33,.72,19.77,1.53,29.58,.23,2.8,.67,5.71,.21,8.44-1.9,11.17-4.46,22.24-6.13,33.45-1.57,10.57-9.38,17.19-14.89,25.24-3.2,4.57-6.86,8.81-10.91,12.64-3.78,3.64-8.24,6.57-12.37,9.86-2.41,1.91-5.21,3.55-7.03,5.92-5.15,6.74-9.72,13.93-14.82,20.7-4.46,5.92-9.49,11.39-13.94,17.31-1.89,2.65-3.37,5.57-4.4,8.66-2.77,7.76-5.44,15.56-7.72,23.48-.8,2.78-1.58,6.66-.29,8.8,14.6,24.26,23.95,51.44,41.95,73.85,8.64,10.76,15.95,22.63,23.36,34.32,10,15.77,21.94,29.52,37.85,39.62,27.55,17.5,44.79,43.68,59.91,71.6,5.02,9.27,10.34,17.92,19.02,24.81,6.93,5.52,11.28,14.16,17.33,20.92,16.41,18.35,32.59,36.95,49.81,54.52,29.97,30.61,51.27,66.83,70.92,104.41,13.38,25.58,24.44,52.05,34.97,78.85,2.98,7.58,9.19,14.09,14.66,20.45,23.07,26.85,32.95,59.43,40.56,92.89,3.44,15.09,1.23,30.51-1.2,45.57-2.28,14.48-5.4,28.82-9.35,42.93-6.04,21.23-27.28,37.8-49.29,40.67-14.08,1.83-28,4.81-42.04,6.92-4.67,.7-9.53,.05-14.27,.42-22.24,1.75-43.58-1.98-64.56-9.35-41.06-14.43-81.93-29.2-119.16-52.36-13.12-8.17-23.63-18.09-27.4-33.72-.41-1.82-1.25-3.52-2.46-4.96-8.79-9.67-18.88-17.18-32.71-18.93-.12,1.98-.27,3.61-.3,5.23-.57,35.61-1.25,71.22-1.59,106.82-.05,5.6-1.54,7.35-7.37,7.35-310.4-.15-620.81-.19-931.22-.13-7.39,0-7.9-.6-6.33-7.12,10.08-41.82,19.63-83.77,30.43-125.41,7.47-28.84,16.68-57.22,25.06-85.82,9.77-33.37,19.4-66.78,29.26-100.12,2.03-6.86-2.63-10.01-6.68-13.31-9.96-8.1-20.16-15.9-30.32-23.76-52.94-40.91-106.01-81.64-158.8-122.74-30.06-23.41-59.54-47.56-89.59-70.97-4.89-3.81-11.27-6-17.25-8.08-31.5-10.95-55.68-31.73-75.57-57.51-9.92-12.85-17.78-27.33-26.01-41.41-7.93-13.57-15.99-27.18-22.42-41.48-6.86-15.05-12.57-30.6-17.1-46.52-3.34-11.97-2.23-24.64,2.18-36.65,1-2.72,2.4-5.46,2.58-8.27,.87-13.25,8.82-21.16,19.34-27.8,34.34-21.67,69.5-41.87,106.1-59.49,19.57-9.42,39.29-18.55,59-27.7,3.5-1.62,6.93-2.79,6.39-7.77-.11-1.09,1.11-3.2,2.05-3.41,9.1-2.05,13.23-10.23,19.53-15.65,4.38-3.77,8.46-6.04,14.52-4.74,2.27,.49,5.43-1.05,7.58-2.54,4.94-3.4,9.18-7.45,16.24-5.72,2.18,.53,5.42-2.3,7.88-4.01,7.39-5.18,8.73-5.19,16.38-.09,1.37,.7,2.97,.82,4.43,.34,5.08-1.67,10.05-3.69,15.07-5.54,.96-.35,2.13-.97,2.95-.7,11.08,3.61,19.77-3.07,28.64-7.26,15.33-7.26,30.19-15.56,45.06-23.77,14.3-7.89,28.99-6.82,43.89-2.7,13.34,3.69,26.57,7.84,39.97,11.3,2.96,.77,6.56-.18,9.71-.96,23.1-5.72,46.59-10.29,69.13-17.72,35.54-11.72,70.37-25.56,105.63-38.13,9.46-3.37,19.33-5.69,29.13-7.97,9.84-2.29,19.79-4.18,29.76-5.78,8.12-1.3,16.41-1.61,24.54-2.9,13.02-2.07,25.94-4.77,38.95-6.9,27.7-4.53,55.36-9.34,83.17-13,8.73-1.15,17.98,.41,26.83,1.76,8.81,1.34,14.07,8.41,19.16,14.92,3.99,5.1,8.34,8.9,14.89,10.29,9.46,2,16.24,7.83,21.13,16.06,1.52,2.57,3.4,4.93,5.69,8.2Zm-242.17,394.45c13.36-4.72,24.96-10.02,37.14-12.82,15.04-3.46,29.82-7.53,44.64-11.81,21.26-6.14,40.87-14.51,57.17-29.73,1.29-1.2,3.16-2.68,3.24-4.11,.3-5.73-.11-11.49-.05-17.24,.12-11.55-.06-23.11,.66-34.63,1.49-24.15-5.53-47.94-24.61-66.73-1.55-1.54-2.51-3.75-3.49-5.77-2.86-5.85-5.18-11.95-11.84-14.97-2.04-.93-3.3-3.54-4.94-5.37-1.6-1.98-3.32-3.86-5.14-5.62-5.99-5.23-12.12-10.31-18.21-15.41-1.57-1.31-3.41-2.32-4.82-3.77-6.89-7.05-15.05-13.37-20.05-21.59-3.85-6.35-7.79-9.25-14.62-10.25-20.88-3.05-41.43-.57-61.43,4.87-34.45,9.35-67.19,23.49-99.6,38.25-12.09,5.51-25.19,9.8-33.83,21.06-.9,.86-1.93,1.57-3.06,2.08-24.5,15.06-49.38,29.55-73.41,45.32-27.35,17.94-53.8,37.28-83.88,50.7-1.99,.89-3.71,2.38-7,4.55,4.54,3.74,7.83,7.64,12.03,9.67,10.91,5.44,22.12,10.25,33.58,14.39,10.32,3.59,18.41,9.25,23.92,18.58,3.37,6.07,9.36,10.24,16.22,11.29,6.09,1.02,12.22,1.85,18.37,2.38,4.46,.39,8.99-.1,13.45,.24,6.69,.52,13.94,0,19.9,2.47,13.21,5.46,28.42,3.68,38.81-5.95,20.3-18.83,42.98-33.68,70.06-41,17.54-4.74,34.82-5.53,50.93,4.55,9.66,6.04,17.77,13.76,20.6,25.36,1.36,5.58,1.7,11.41,2.74,17.07,2.09,11.3,4.34,22.56,6.54,33.95Z"/></g></svg>