<svg xmlns="http://www.w3.org/2000/svg" viewBox="0 0 60.5 465.9">
    <defs>
        <clipPath id="clippath">
            <path fill="none" d="M9.3 118.2h42.1v50.3H9.3z" />
        </clipPath>
        <style>
            .cls-1 {
                fill: #ce131c
            }

            .rotate,
            .cls-3 {
                stroke: #ce131c;
                stroke-miterlimit: 10;
                stroke-width: 6.93px;
                fill: none
            }

            .cls-3 {
                stroke: #bf1a20
            }
        </style>
    </defs>
    <g id="rog">
        <g>
            <path class="cls-1"
                d="M29 206.2h1.9v1.9H29zM29 252.1h1.9v1.9H29zM29 298h1.9v1.9H29zM29 343.9h1.9v1.9H29zM29 389.8h1.9v1.9H29zM29 435.7h1.9v1.9H29zM25.5 463.3h8.9v2.6h-8.9z" />
        </g>
        <g>
            <g clip-path="url(#clippath)" id="_그룹_38">
                <g id="_그룹_37">
                    <g id="_그룹_36">
                        <path id="_선_181" class="cls-3" d="M58.1 228.6 2.5 172.8" />
                        <path id="_선_182" class="cls-3" d="M58.1 219 2.5 163.3" />
                        <path id="_선_183" class="cls-3" d="M58.1 209.4 2.5 153.7" />
                        <path id="_선_184" class="cls-3" d="M58.1 199.8 2.5 144.1" />
                        <path id="_선_185" class="cls-3" d="M58.1 190.2 2.5 134.5" />
                        <path id="_선_186" class="cls-3" d="M58.1 180.7 2.5 124.9" />
                        <path id="_선_187" class="cls-3" d="M58.1 171.1 2.5 115.4" />
                        <path id="_선_188" class="cls-3" d="M58.1 161.5 2.5 105.8" />
                        <path id="_선_189" class="cls-3" d="M58.1 151.9 2.5 96.2" />
                        <path id="_선_190" class="cls-3" d="M58.1 142.3 2.5 86.6" />
                        <path id="_선_191" class="cls-3" d="M58.1 132.7 2.5 77" />
                        <path id="_선_192" class="cls-3" d="M58.1 123.2 2.5 67.5" />
                        <path id="_선_193" class="cls-3" d="M58.1 113.6 2.5 57.9" />
                        <path id="_선_194" class="cls-3" d="M58.1 104 2.5 48.3" />
                        <path id="_선_195" class="cls-3" d="M58.1 94.4 2.5 38.7" />
                    </g>
                </g>
            </g>
            <g>
                <path class="rotate" d="m11.6 90.5-2.3 2.3" />
                <path class="rotate" d="m11.6 70.8-2.3-2.4" />
                <path class="rotate" d="m11.6 48.7-2.3-2.3" />
                <path class="rotate" d="m30.9 92.8-2.3-2.3" />
                <path class="rotate" d="m30.9 70.8-2.3-2.4" />
                <path class="rotate" d="m30.9 48.7-2.3-2.3" />
                <path class="rotate" d="m30.9 26.6-2.3-2.3" />
                <path class="rotate" d="m50.2 92.8-2.3-2.3" />
                <path class="rotate" d="m50.2 68.4-2.3 2.4" />
                <path class="rotate" d="m50.2 48.7-2.3-2.3" />
                <path class="rotate" d="m50.2 26.6-2.3-2.3" />
                <path class="rotate" d="m11.6 26.8-2.3-2.3" />
                <path class="rotate" d="M11.6 2.5 9.3 4.8" />
                <path class="rotate" d="m30.9 4.8-2.3-2.3" />
                <path class="rotate" d="m50.2 4.8-2.3-2.3" />
            </g>
        </g>
    </g>
</svg>