<svg xmlns="http://www.w3.org/2000/svg" width="955" height="73.447" viewBox="0 0 955 73.447">
  <g id="그룹_3085" data-name="그룹 3085" transform="translate(-573.413 -1088.495)">
    <rect id="사각형_762" data-name="사각형 762" width="4.741" height="4.741" transform="translate(875.33 1097.323)" fill="#dc0012"/>
    <rect id="사각형_763" data-name="사각형 763" width="4.741" height="4.741" transform="translate(990.74 1097.323)" fill="#dc0012"/>
    <rect id="사각형_764" data-name="사각형 764" width="4.741" height="4.741" transform="translate(1106.151 1097.323)" fill="#dc0012"/>
    <rect id="사각형_765" data-name="사각형 765" width="4.741" height="4.741" transform="translate(1221.562 1097.323)" fill="#dc0012"/>
    <rect id="사각형_766" data-name="사각형 766" width="4.741" height="4.741" transform="translate(1336.973 1097.323)" fill="#dc0012"/>
    <rect id="사각형_767" data-name="사각형 767" width="4.741" height="4.741" transform="translate(1452.383 1097.323)" fill="#dc0012"/>
    <rect id="사각형_768" data-name="사각형 768" width="6.459" height="22.605" transform="translate(1521.953 1088.495)" fill="#dc0012"/>
    <rect id="사각형_769" data-name="사각형 769" width="4.741" height="4.741" transform="translate(1155.207 1161.942) rotate(180)" fill="#dc0012"/>
    <rect id="사각형_770" data-name="사각형 770" width="4.741" height="4.741" transform="translate(1039.797 1161.942) rotate(180)" fill="#dc0012"/>
    <rect id="사각형_771" data-name="사각형 771" width="4.741" height="4.741" transform="translate(924.386 1161.942) rotate(180)" fill="#dc0012"/>
    <rect id="사각형_772" data-name="사각형 772" width="4.741" height="4.741" transform="translate(808.975 1161.942) rotate(180)" fill="#dc0012"/>
    <rect id="사각형_773" data-name="사각형 773" width="4.741" height="4.741" transform="translate(693.564 1161.942) rotate(180)" fill="#dc0012"/>
    <rect id="사각형_774" data-name="사각형 774" width="4.741" height="4.741" transform="translate(578.154 1161.942) rotate(180)" fill="#dc0012"/>
  </g>
</svg>
