<svg xmlns="http://www.w3.org/2000/svg" width="586.743" height="21.12" viewBox="0 0 586.743 21.12">
  <g id="그룹_2962" data-name="그룹 2962" transform="translate(0)">
    <g id="그룹_2960" data-name="그룹 2960" transform="translate(0 0)">
      <rect id="사각형_510" data-name="사각형 510" width="168.022" height="6.929" transform="translate(236.263 7.362)" fill="#c8102c"/>
      <g id="그룹_2959" data-name="그룹 2959" transform="translate(6.172 9.961)">
        <rect id="사각형_511" data-name="사각형 511" width="202.665" height="1.732" transform="translate(0)" fill="#c8102c"/>
      </g>
      <path id="패스_2476" data-name="패스 2476" d="M-30.893-3498.548a5.306,5.306,0,0,1-5.306,5.3,5.305,5.305,0,0,1-5.3-5.3,5.3,5.3,0,0,1,5.3-5.3A5.3,5.3,0,0,1-30.893-3498.548Z" transform="translate(41.503 3509.375)" fill="#c8102c"/>
      <path id="패스_2477" data-name="패스 2477" d="M108.926-3498.548a5.305,5.305,0,0,1-5.3,5.3,5.306,5.306,0,0,1-5.306-5.3,5.3,5.3,0,0,1,5.306-5.3A5.3,5.3,0,0,1,108.926-3498.548Z" transform="translate(105.216 3509.375)" fill="#c8102c"/>
      <path id="패스_2478" data-name="패스 2478" d="M120.8-3500.284l7.363-7.361H212.9l8.878,8.877s-84.229,3.825-85.383,3.392S120.8-3500.284,120.8-3500.284Z" transform="translate(115.462 3507.646)" fill="#c8102c"/>
      <path id="패스_2479" data-name="패스 2479" d="M239.749-3502.589l.339.341,8.34,8.338H291.1s5.5,5.079,5.079,5.079H236.537l-8.04-8.04Z" transform="translate(164.537 3509.951)" fill="#c8102c"/>
      <rect id="사각형_512" data-name="사각형 512" width="7.073" height="21.12" transform="translate(495.947)" fill="#c8102c"/>
      <rect id="사각형_514" data-name="사각형 514" width="7.073" height="21.12" transform="translate(537.808)" fill="#c8102c"/>
      <rect id="사각형_515" data-name="사각형 515" width="7.073" height="21.12" transform="translate(579.669)" fill="#c8102c"/>
    </g>
  </g>
</svg>
