<svg xmlns="http://www.w3.org/2000/svg" width="453.1" height="23.534" viewBox="0 0 453.1 23.534">
  <g id="그룹_2982" data-name="그룹 2982" transform="translate(0)">
    <path id="패스_2330" data-name="패스 2330" d="M2542.2,1410.755h13.914l-19.525,19.525-13.913.014Z" transform="translate(-2429.562 -1406.76)" fill="#c8102c"/>
    <path id="패스_2331" data-name="패스 2331" d="M2569.984,1410.755H2583.9l-19.525,19.525-13.913.014Z" transform="translate(-2433.458 -1406.76)" fill="#c8102c"/>
    <path id="패스_2332" data-name="패스 2332" d="M2597.771,1410.755h13.914l-19.525,19.525-13.913.014Z" transform="translate(-2437.353 -1406.76)" fill="#c8102c"/>
    <path id="패스_2333" data-name="패스 2333" d="M2515.634,1410.755h13.914l-19.525,19.525-13.913.014Z" transform="translate(-2425.838 -1406.76)" fill="#c8102c"/>
    <path id="패스_2334" data-name="패스 2334" d="M2461.753,1410.755h13.913l-19.525,19.525-13.913.014Z" transform="translate(-2418.284 -1406.76)" fill="#c8102c"/>
    <path id="패스_2335" data-name="패스 2335" d="M2488.512,1410.755h13.517L2482.5,1430.28l-13.913.014Z" transform="translate(-2421.98 -1406.76)" fill="#c8102c"/>
    <path id="패스_2336" data-name="패스 2336" d="M2434.3,1410.755h13.518l-19.525,19.525-13.913.014Z" transform="translate(-2414.38 -1406.76)" fill="#c8102c"/>
    <g id="그룹_2902" data-name="그룹 2902" transform="translate(176.772 0)">
      <path id="패스_2358" data-name="패스 2358" d="M2691.436,1423.959h-71.46v-2.732h70.329l15.119-15.119h186.134v2.732h-185Z" transform="translate(-2619.976 -1406.108)" fill="#c8102c"/>
    </g>
    <path id="패스_2359" data-name="패스 2359" d="M2710.761,1413.8h190.624l7.647-7.647-190.712.087Z" transform="translate(-2455.932 -1406.115)" fill="#c8102c"/>
    <g id="그룹_2903" data-name="그룹 2903" transform="translate(170.353 9.823)">
      <rect id="사각형_501" data-name="사각형 501" width="15.423" height="2.731" transform="translate(0 10.906) rotate(-44.999)" fill="#c8102c"/>
    </g>
  </g>
</svg>
