<svg xmlns="http://www.w3.org/2000/svg" width="1211.167" height="560.191" viewBox="0 0 1211.167 560.191">
  <g id="그룹_2974" data-name="그룹 2974" transform="translate(178.223 -653.356)" opacity="0.3">
    <g id="그룹_2955" data-name="그룹 2955" transform="translate(0 -360)">
      <g id="그룹_2950" data-name="그룹 2950" transform="translate(-728.154 650.356)">
        <g id="그룹_2949" data-name="그룹 2949" transform="translate(549.932 363)">
          <path id="패스_2448" data-name="패스 2448" d="M918.992,970.435H839.16l-29.682-29.681.945-192.278,251.73-251.73V435.935l23.238-23.237h311.942l46.194,46.193V624.3l94.837,94.838v70.595l-20.794,20.794h-86l-128.651-128.65h-95.372Zm-79.434-.963h79.035l288.554-288.554h96.169l128.65,128.651h85.2l20.23-20.23v-69.8L1442.564,624.7V459.29l-45.629-45.629H1085.79l-22.673,22.673v60.811L811.384,748.876l-.941,191.481Z" transform="translate(-809.478 -412.698)" fill="#f05"/>
          <path id="패스_2449" data-name="패스 2449" d="M1597.488,1180.661H1164.334l-20.9-20.9V1130.19l218.539-218.539H1429.7l186.8,186.8v63.189Zm-432.755-.962H1597.09l18.453-18.453v-62.392L1429.3,912.613h-66.929L1144.4,1130.588v28.778Z" transform="translate(-948.544 -620.47)" fill="#f05"/>
          <path id="패스_2450" data-name="패스 2450" d="M2478.208,973.967h-.2l-313.159-1.845L2134.731,942V711.85l36.8-36.8V525.34L2135.388,489.2V435.037l17.124-17.125h187.812l15.8,15.8V644.421l209.905,209.9v31.818Zm-312.96-2.807L2477.812,973l87.258-87.257v-31.02l-209.905-209.9V434.112l-15.239-15.237H2152.911l-16.561,16.561V488.8l36.146,36.145v150.5l-36.8,36.8V941.606Z" transform="translate(-1361.335 -414.869)" fill="#f05"/>
          <path id="패스_2451" data-name="패스 2451" d="M2745.467,749.273h-28.861l-131.66-131.661V436.079l18.167-18.167h54l11.437,11.436V537.615l91.427,91.428V734.761Zm-28.462-.962h28.063l13.948-13.948V629.441l-91.427-91.428V429.747l-10.873-10.872h-53.205l-17.6,17.6V617.213Z" transform="translate(-1548.812 -414.869)" fill="#f05"/>
        </g>
      </g>
    </g>
  </g>
</svg>
