<svg xmlns="http://www.w3.org/2000/svg" width="358.595" height="1054.554" viewBox="0 0 358.595 1054.554">
  <g id="그룹_3753" data-name="그룹 3753" transform="translate(-1419.067 -1823.481)">
    <g id="그룹_3752" data-name="그룹 3752" transform="translate(1419.427 1824.366)" opacity="0.1">
      <g id="그룹_3751" data-name="그룹 3751" transform="translate(0 0)">
        <rect id="사각형_1303" data-name="사각형 1303" width="357.874" height="1016.259" transform="translate(0 37.05)" fill="none" stroke="#fff" stroke-miterlimit="10" stroke-width="0.72"/>
        <path id="패스_3844" data-name="패스 3844" d="M187.186,1061.317h82.673c4.786,0,11.424-.586,15.847-.438,33.5-2.588,53.3-37.4,71.124-32.856,45.546,13.621,97.034,40.862,151.734,33.535,7.4-.1,14.882-.24,19.755-.24h15.317" transform="translate(-186.475 -14.067)" fill="none" stroke="#fff" stroke-miterlimit="10" stroke-width="1.269"/>
        <path id="패스_3845" data-name="패스 3845" d="M187.186,1051.027h82.673c35.483.379,59.247-34.429,79.049-26.862,49.507,16.646,104.955,37.834,161.263,27.048,7.326-.179,13.275-.186,18.148-.186h15.317" transform="translate(-186.475 -14.748)" fill="none" stroke="#fff" stroke-miterlimit="10" stroke-width="1.269"/>
        <path id="패스_3846" data-name="패스 3846" d="M187.186,1041.126h68.727a146.6,146.6,0,0,0,16.146-.866c29.324-1.4,51.107-31.672,68.929-22.592,51.487,22.7,108.915,40.861,165.613,24.913,8.759-.727,16.845-1.455,21.719-1.455h15.317" transform="translate(-186.475 -15.819)" fill="none" stroke="#fff" stroke-miterlimit="10" stroke-width="1.269"/>
        <path id="패스_3847" data-name="패스 3847" d="M187.186,1031.84h55.7c4.177,0,9.046-.232,13.1-.032,27.576-1.859,49.359-15.48,73.123-26.073,7.921-3.027,15.842,1.513,19.8,6.053,33.665,40.86,99.013,34.807,147.6,21.779a95.441,95.441,0,0,0,14.23-1.727h32.9" transform="translate(-186.475 -17.506)" fill="none" stroke="#fff" stroke-miterlimit="10" stroke-width="1.269"/>
        <path id="패스_3848" data-name="패스 3848" d="M187.186,1021.74h55.7c32.757,1.513,54.54-21.187,84.243-22.7,17.823-1.513,23.764,21.187,39.605,28.755,37.625,19.673,81.191,4.539,121.209-6.054h55.7" transform="translate(-186.475 -18.376)" fill="none" stroke="#fff" stroke-miterlimit="10" stroke-width="1.269"/>
        <path id="패스_3849" data-name="패스 3849" d="M187.186,1012.246h32.895c6.789,0,15.614-.383,23.865-.383,23.771.761,43.574-11.345,63.377-20.426,29.7-12.107,39.605,27.24,57.427,31.781,27.724,7.566,63.369,6.053,91.237-7.512a139.53,139.53,0,0,1,18.921-3.461h68.728" transform="translate(-186.475 -19.855)" fill="none" stroke="#fff" stroke-miterlimit="10" stroke-width="1.269"/>
        <path id="패스_3850" data-name="패스 3850" d="M187.186,1002.361h43.707c4.934-.2,9.566-.376,14.77-.912,26.014-2.871,51.758-25.571,65.619-18.005,49.507,27.24,95.054,30.267,149.68,18.917h82.673" transform="translate(-186.475 -20.942)" fill="none" stroke="#fff" stroke-miterlimit="10" stroke-width="1.269"/>
        <path id="패스_3851" data-name="패스 3851" d="M187.186,993.3h32.895c3.395,0,8.079-.329,12.533-.412,23.222-1.481,43.025-9.047,62.827-19.641,5.942-1.513,13.862-6.053,15.842-3.027,33.665,37.835,87.132,31.781,134.924,23.115,5.053-.036,9.968-.036,14.755-.036h82.673" transform="translate(-186.475 -22.853)" fill="none" stroke="#fff" stroke-miterlimit="10" stroke-width="1.269"/>
        <path id="패스_3852" data-name="패스 3852" d="M187.186,983.3h32.895c31.794,1.514,63.478-25.726,79.321-19.673,41.586,15.134,83.172,30.267,130.342,20.063,4.149.158,11.465-.39,16.49-.39h97.4" transform="translate(-186.475 -23.824)" fill="none" stroke="#fff" stroke-miterlimit="10" stroke-width="1.269"/>
        <path id="패스_3853" data-name="패스 3853" d="M187.186,974.587H202.5c4.873,0,11.864-.275,18.576-.274,28.817-.861,54.56-12.968,76.343-26.588,31.685,33.294,83.171,34.807,133.427,26.864q7.07.37,15.386,0h97.4" transform="translate(-186.475 -26.083)" fill="none" stroke="#fff" stroke-miterlimit="10" stroke-width="1.269"/>
        <path id="패스_3854" data-name="패스 3854" d="M187.186,964.572H202.5c4.873,0,12.508-.277,20.207-.643,29.165-.113,54.909-28.867,70.751-21.3,43.566,22.7,91.093,27.241,137.392,21.943H543.635" transform="translate(-186.475 -27.041)" fill="none" stroke="#fff" stroke-miterlimit="10" stroke-width="1.269"/>
        <path id="패스_3855" data-name="패스 3855" d="M187.186,955.809H202.5c35.511,2.648,65.214-15.512,92.938-29.132,23.764,31.78,75.251,34.807,118.681,29.541,5.51-.186,11.51-.41,16.732-.41H543.635" transform="translate(-186.475 -29.249)" fill="none" stroke="#fff" stroke-miterlimit="10" stroke-width="1.269"/>
        <path id="패스_3856" data-name="패스 3856" d="M187.186,946.618H202.5c35.511,1.513,67.2-12.107,90.958-31.781C319.2,946.618,368.711,952.672,413,947.581c6.322-.5,12.631-.963,17.853-.963H543.635" transform="translate(-186.475 -31.03)" fill="none" stroke="#fff" stroke-miterlimit="10" stroke-width="1.269"/>
        <path id="패스_3857" data-name="패스 3857" d="M187.186,937.031s6.43-.134,15.42-.017c35.407-1.117,67.092-11.711,90.855-31.385,25.744,21.188,61.388,37.835,101.559,32.5,6.163-.309,13.828-.594,19.929-1.1H543.635" transform="translate(-186.475 -32.415)" fill="none" stroke="#fff" stroke-miterlimit="10" stroke-width="1.269"/>
        <path id="패스_3858" data-name="패스 3858" d="M187.186,927.642s7.192-.121,15.658-.023c37.149,2.293,68.834-15.868,96.557-32.515,21.783,22.7,57.428,39.348,94.277,34.716,5.516-.3,13.822-.985,21.27-2.178H543.635" transform="translate(-186.475 -33.998)" fill="none" stroke="#fff" stroke-miterlimit="10" stroke-width="1.269"/>
        <path id="패스_3859" data-name="패스 3859" d="M187.186,917.286s8.4-.081,17.881-.081c36.907,1.216,66.611-23,96.316-26.025,31.683-3.027,57.427,33.294,97.272,26.105H543.635" transform="translate(-186.475 -34.615)" fill="none" stroke="#fff" stroke-miterlimit="10" stroke-width="1.269"/>
        <path id="패스_3860" data-name="패스 3860" d="M187.186,907.73s8.308.07,17.8.07c42.932,4.469,74.615-30.337,110.261-25.8,25.744,3.027,49.507,30.267,82.212,26.74,5.758-.253,11.5-.506,17.493-1.012H543.635" transform="translate(-186.475 -36.03)" fill="none" stroke="#fff" stroke-miterlimit="10" stroke-width="1.269"/>
        <path id="패스_3861" data-name="패스 3861" d="M187.186,898.3s7.318.066,15.687.008c45.042,3.4,82.667-23.844,120.292-26.871,21.783-1.513,45.546,25.728,75.482,26.86,5.352-.059,10.928,0,16.3,0H543.635" transform="translate(-186.475 -37.567)" fill="none" stroke="#fff" stroke-miterlimit="10" stroke-width="1.269"/>
        <path id="패스_3862" data-name="패스 3862" d="M187.186,888.314s7.33.094,16.913.094c47.775,5.2,89.361-23.551,128.967-23.551,21.783-1.514,49.508,22.7,81.883,23.457H543.635" transform="translate(-186.475 -38.558)" fill="none" stroke="#fff" stroke-miterlimit="10" stroke-width="1.269"/>
        <path id="패스_3863" data-name="패스 3863" d="M187.186,878.871s6.5.1,16.16.1c44.569,4.063,90.115-9.557,129.72-23.177,25.744-7.566,49.508,24.214,81.77,23.036,4.685-.246,10.8.044,16.017.044H543.635" transform="translate(-186.475 -40.086)" fill="none" stroke="#fff" stroke-miterlimit="10" stroke-width="1.269"/>
        <path id="패스_3864" data-name="패스 3864" d="M187.186,869.175H202.5c47.392,7.567,96.9-4.54,138.485-21.187,21.783-9.08,43.566,18.16,72.185,20.388,6.646.477,12.459.8,17.681.8H543.635" transform="translate(-186.475 -41.363)" fill="none" stroke="#fff" stroke-miterlimit="10" stroke-width="1.269"/>
        <path id="패스_3865" data-name="패스 3865" d="M187.186,859.391H202.5c4.873,0,13.506.252,23.039,1.186,44.156,3.732,85.741-3.834,125.347-20.482,23.763-9.08,49.507,18.16,79.806,19.213,4.219-.505,10.514.083,15.539.083h97.4" transform="translate(-186.475 -42.55)" fill="none" stroke="#fff" stroke-miterlimit="10" stroke-width="1.269"/>
        <path id="패스_3866" data-name="패스 3866" d="M187.186,849.957H202.5c4.873,0,12.359.528,19.817.812,45.4,6,96.885,10.539,130.549-19.728a46.729,46.729,0,0,1,15.842-3.027c25.744,6.054,47.527,22.7,77.313,21.829,5.012,0,10.151.114,14.938.114h82.673" transform="translate(-186.475 -44.089)" fill="none" stroke="#fff" stroke-miterlimit="10" stroke-width="1.269"/>
        <path id="패스_3867" data-name="패스 3867" d="M187.186,840.311H202.5c4.873,0,12.713,1.047,20.084,1.629,47.112,8.587,100.579,8.587,142.164-18.654,23.763-15.134,49.507,16.646,80.553,16.53,5.806.431,10.872.495,15.659.495h82.673" transform="translate(-186.475 -45.415)" fill="none" stroke="#fff" stroke-miterlimit="10" stroke-width="1.269"/>
        <path id="패스_3868" data-name="패스 3868" d="M187.186,830.9h32.895c3.395,0,7.088.04,11.207.221,34.449,4.319,68.113,13.4,101.778,4.319,21.783-4.54,31.685-31.78,57.428-25.727,23.763,6.054,45.546,19.673,70.334,21.11,4.269-.276,9.577.077,14.08.077h68.728" transform="translate(-186.475 -46.973)" fill="none" stroke="#fff" stroke-miterlimit="10" stroke-width="1.269"/>
        <path id="패스_3869" data-name="패스 3869" d="M187.186,821.579h32.895c6.789,0,16.175.858,23.007.109,52.353,13.89,103.84,7.837,147.406-22.431,9.9-6.053,23.763,9.08,37.625,13.62,15.842,4.541,29.7,10.594,46.788,8.7h68.728" transform="translate(-186.475 -48.626)" fill="none" stroke="#fff" stroke-miterlimit="10" stroke-width="1.269"/>
        <path id="패스_3870" data-name="패스 3870" d="M187.186,811.645h55.7a131.795,131.795,0,0,1,14.426.687c50.015,12.177,95.561,1.583,143.088-19.6,19.8-9.08,43.566,19.674,73.257,18.5,4.767.191,10.11.422,14.287.422h55.7" transform="translate(-186.475 -49.663)" fill="none" stroke="#fff" stroke-miterlimit="10" stroke-width="1.269"/>
        <path id="패스_3871" data-name="패스 3871" d="M187.186,802.237h55.7c4.177,0,9.278.414,14.073.686,54.328,8.017,101.855,1.964,151.362-20.737,17.822-9.08,47.527,22.7,79.623,20.052h55.7" transform="translate(-186.475 -51.228)" fill="none" stroke="#fff" stroke-miterlimit="10" stroke-width="1.269"/>
        <path id="패스_3872" data-name="패스 3872" d="M187.186,792.515h68.727a117.44,117.44,0,0,0,16.859,1.913c52.374,13.221,97.919-7.967,145.446-21.586C436.04,768.3,459.8,791,485.9,791.66a117.471,117.471,0,0,1,14.025.855h43.707" transform="translate(-186.475 -52.478)" fill="none" stroke="#fff" stroke-miterlimit="10" stroke-width="1.269"/>
        <path id="패스_3873" data-name="패스 3873" d="M187.186,783.051h68.727c4.536.064,9.222.127,14.063.248,51.209,7.7,100.716,3.157,150.223-19.544,15.842-7.567,39.605,15.134,63.7,17.566,6.142.955,11.089,1.314,16.032,1.73h43.707" transform="translate(-186.475 -53.985)" fill="none" stroke="#fff" stroke-miterlimit="10" stroke-width="1.269"/>
        <path id="패스_3874" data-name="패스 3874" d="M187.186,773.542h82.673c5.275.54,10.339.684,15.644.941,43.6,5.87,97.07,10.41,130.735-19.858,3.96-1.513,7.921-3.027,11.881-1.513,25.744,10.594,53.468,19.674,82.62,20.43h32.9" transform="translate(-186.475 -55.449)" fill="none" stroke="#fff" stroke-miterlimit="10" stroke-width="1.269"/>
        <path id="패스_3875" data-name="패스 3875" d="M187.186,763.349h97.4a89.117,89.117,0,0,0,21.226,2.72c41.114,4.469,80.72-3.1,118.345-16.719,25.744-9.08,53.467,15.135,85.166,13.708,6.684,0,14.121.291,18.994.291h15.317" transform="translate(-186.475 -56.228)" fill="none" stroke="#fff" stroke-miterlimit="10" stroke-width="1.269"/>
        <path id="패스_3876" data-name="패스 3876" d="M187.186,753.593H299.969c41.019,3.027,86.565,4.541,126.17-12.107,23.764-9.08,53.468,12.107,82.244,11.8,7.769.288,15.063.308,19.937.308h15.317" transform="translate(-186.475 -57.444)" fill="none" stroke="#fff" stroke-miterlimit="10" stroke-width="1.269"/>
        <path id="패스_3877" data-name="패스 3877" d="M187.186,743.576H299.969A448.524,448.524,0,0,0,436.04,733.36c19.8-3.027,45.547,9.08,71.352,9.835,8.2.208,16.054.381,20.927.381h15.317" transform="translate(-186.475 -58.399)" fill="none" stroke="#fff" stroke-miterlimit="10" stroke-width="1.269"/>
        <path id="패스_3878" data-name="패스 3878" d="M187.186,733.861H299.969c5.222,0,10.557.02,16.13.19,38.75,3.593,78.357-.947,117.962-8.514,23.763-4.54,47.527,7.567,73.934,8.03,9.082.29,15.451.295,20.324.295h15.317" transform="translate(-186.475 -59.655)" fill="none" stroke="#fff" stroke-miterlimit="10" stroke-width="1.269"/>
        <path id="패스_3879" data-name="패스 3879" d="M187.186,723.962H315.873A164.84,164.84,0,0,0,338,725.7c32.7.912,66.36-9.681,100.026-8.168,23.763,0,45.546,6.053,68.8,6.18,10.05.217,16.62.252,21.493.252h15.317" transform="translate(-186.475 -60.729)" fill="none" stroke="#fff" stroke-miterlimit="10" stroke-width="1.269"/>
        <path id="패스_3880" data-name="패스 3880" d="M187.186,714.437H315.873c5.647.344,12.863.6,17.432.664,33.425-.664,65.11-9.744,98.774-6.717s63.369,7.566,96.24,6.054h15.317" transform="translate(-186.475 -62.175)" fill="none" stroke="#fff" stroke-miterlimit="10" stroke-width="1.269"/>
        <path id="패스_3881" data-name="패스 3881" d="M187.186,704.991H315.873a132.549,132.549,0,0,0,23.5,1.528c63-20.822,124.387,1.878,188.942-1.528h15.317" transform="translate(-186.475 -63.702)" fill="none" stroke="#fff" stroke-miterlimit="10" stroke-width="1.269"/>
        <path id="패스_3882" data-name="패스 3882" d="M187.186,696.48H315.873a191.8,191.8,0,0,1,21.154-.757c21.783-3.027,41.586-18.16,61.388-13.62,35.645,6.054,73.271,15.134,110.417,14.656,7.341-.361,14.614-.28,19.487-.28h15.317" transform="translate(-186.475 -66.162)" fill="none" stroke="#fff" stroke-miterlimit="10" stroke-width="1.269"/>
        <path id="패스_3883" data-name="패스 3883" d="M187.186,687.06H299.969c5.222,0,12.753.017,18.878.382,30.061,2.266,53.825-20.435,79.568-15.894,35.645,7.566,71.29,18.16,108.661,16.518,8.313-.735,16.37-1.005,21.243-1.005h15.317" transform="translate(-186.475 -67.713)" fill="none" stroke="#fff" stroke-miterlimit="10" stroke-width="1.269"/>
        <path id="패스_3884" data-name="패스 3884" d="M187.186,678.065H299.969c5.222,0,12.022-.257,16.43-.148,28.55-1.364,52.313-24.065,72.114-19.525,39.606,9.08,79.211,24.214,120.778,19.99,6.679,0,14.155-.316,19.028-.316h15.317" transform="translate(-186.475 -69.692)" fill="none" stroke="#fff" stroke-miterlimit="10" stroke-width="1.269"/>
        <path id="패스_3885" data-name="패스 3885" d="M187.186,668.927H299.969c29.138,1.891,54.88-10.216,78.644-22.323,3.961-1.513,11.881-1.513,15.842,1.514,31.683,21.187,73.269,25.727,112.3,22.532,7.633-.682,16.689-1.723,21.562-1.723h15.317" transform="translate(-186.475 -71.524)" fill="none" stroke="#fff" stroke-miterlimit="10" stroke-width="1.269"/>
        <path id="패스_3886" data-name="패스 3886" d="M187.186,660.149h97.4c5.025,0,10.483-.145,15.382,0,27.155.757,48.938-14.377,68.741-28,1.98-1.514,7.921-1.514,9.9,0,33.664,30.267,85.151,30.267,132.127,28h32.9" transform="translate(-186.475 -73.719)" fill="none" stroke="#fff" stroke-miterlimit="10" stroke-width="1.269"/>
        <path id="패스_3887" data-name="패스 3887" d="M187.186,650.708h97.4a174.311,174.311,0,0,0,18.033-1.221c30.446-.671,46.288-33.966,60.15-27.912,47.527,21.188,95.053,36.322,147.969,29.133h32.9" transform="translate(-186.475 -75.25)" fill="none" stroke="#fff" stroke-miterlimit="10" stroke-width="1.269"/>
        <path id="패스_3888" data-name="패스 3888" d="M187.186,642.411h82.673c4.786,0,10.64-.434,14.8-.033,32.567-1.481,50.39-22.668,68.212-39.315,35.644,33.3,89.112,49.941,145.091,40.474a114.787,114.787,0,0,0,12.78-1.125h32.9" transform="translate(-186.475 -77.924)" fill="none" stroke="#fff" stroke-miterlimit="10" stroke-width="1.269"/>
        <path id="패스_3889" data-name="패스 3889" d="M187.186,633.021h82.673c33.5.378,57.266-20.809,73.108-40.483,37.625,28.754,87.132,52.968,144.284,40.672,5.9.75,16.7-.189,23.488-.189h32.9" transform="translate(-186.475 -79.507)" fill="none" stroke="#fff" stroke-miterlimit="10" stroke-width="1.269"/>
        <path id="패스_3890" data-name="패스 3890" d="M187.186,623.632h68.727c4.5,0,10.4-.525,15.511-.773,27.978-1.5,47.781-19.658,61.642-37.819,3.961-4.54,9.9-3.027,11.883-1.513,29.7,40.86,89.112,46.914,142.966,40.112,7.976.106,16.038-.008,22.825-.008h32.9" transform="translate(-186.475 -81.089)" fill="none" stroke="#fff" stroke-miterlimit="10" stroke-width="1.269"/>
        <path id="패스_3891" data-name="패스 3891" d="M187.186,614.045h55.7c4.177,0,8.766-.084,13.258-.084,37.32-.295,55.143-24.508,78.907-41.155,31.683,42.374,95.052,49.94,152.893,41.239h55.7" transform="translate(-186.475 -82.474)" fill="none" stroke="#fff" stroke-miterlimit="10" stroke-width="1.269"/>
        <path id="패스_3892" data-name="패스 3892" d="M187.186,604.26h55.7a107.887,107.887,0,0,0,14.925-.862c29.713-2.165,51.5-21.839,67.338-38.486,35.644,36.321,91.093,52.967,149.1,39.646,4.6-.128,9.515-.3,13.692-.3h55.7" transform="translate(-186.475 -83.661)" fill="none" stroke="#fff" stroke-miterlimit="10" stroke-width="1.269"/>
        <path id="패스_3893" data-name="패스 3893" d="M187.186,594.278h32.895c6.789,0,15.206-.253,23.495-.253,36.023.63,53.846-23.583,81.57-35.69,25.744,34.808,81.191,45.4,131.352,37.749,5.458-.3,11.618-.758,18.41-1.806h68.728" transform="translate(-186.475 -84.651)" fill="none" stroke="#fff" stroke-miterlimit="10" stroke-width="1.269"/>
        <path id="패스_3894" data-name="패스 3894" d="M187.186,583.65h43.707c4.82-.189,9.922-.679,14.637-.889,32.088.132,57.832-33.162,69.714-25.594C360.79,581.38,410.3,590.46,460.962,583.65h82.673" transform="translate(-186.475 -84.995)" fill="none" stroke="#fff" stroke-miterlimit="10" stroke-width="1.269"/>
        <path id="패스_3895" data-name="패스 3895" d="M187.186,573.626h32.895c3.395,0,7.719-.143,12.171-.217,33.485,1.352,61.209-28.916,77.051-22.862,47.527,19.674,97.033,34.808,150.308,24.338,5.1-.314,10.09-.629,15.3-1.258h68.728" transform="translate(-186.475 -85.943)" fill="none" stroke="#fff" stroke-miterlimit="10" stroke-width="1.269"/>
        <path id="패스_3896" data-name="패스 3896" d="M187.186,563.819h32.895c3.395,0,8.3-.414,13.447-.642,28.248-3.9,55.972-25.085,71.814-20.545,43.566,15.133,91.093,31.781,140.292,21.664,5.252-.183,10.541-.477,15.328-.477h82.673" transform="translate(-186.475 -87.108)" fill="none" stroke="#fff" stroke-miterlimit="10" stroke-width="1.269"/>
        <path id="패스_3897" data-name="패스 3897" d="M187.186,554.125h32.895c31.794.378,65.459-26.862,83.282-19.3,37.625,16.648,85.151,27.24,127.341,19.357,3.267.714,10.02.236,15.53-.061h97.4" transform="translate(-186.475 -88.386)" fill="none" stroke="#fff" stroke-miterlimit="10" stroke-width="1.269"/>
        <path id="패스_3898" data-name="패스 3898" d="M187.186,544.644H202.5c4.873,0,12.266-.265,18.952-.265,28.44-.491,52.2-12.6,75.967-20.166a10.666,10.666,0,0,1,9.9,1.514c27.724,30.267,83.171,22.7,123.53,18.916H543.635" transform="translate(-186.475 -89.877)" fill="none" stroke="#fff" stroke-miterlimit="10" stroke-width="1.269"/>
        <path id="패스_3899" data-name="패스 3899" d="M187.186,534.411H202.5c4.873,0,11.955.044,20.889-.541,30.464,1.676,56.207-24.052,79.971-11.945,31.685,15.134,73.269,15.134,109.009,13.291,5.321-.118,13.26-.805,18.481-.805H543.635" transform="translate(-186.475 -90.616)" fill="none" stroke="#fff" stroke-miterlimit="10" stroke-width="1.269"/>
        <path id="패스_3900" data-name="패스 3900" d="M187.186,524.459H202.5c4.873,0,11.566-.251,20.717-.519,26.676-1,50.439-17.642,72.221-10.075C333.066,524.459,374.652,529,414.3,524.988c5.688-.271,11.334-.529,16.556-.529H543.635" transform="translate(-186.475 -91.635)" fill="none" stroke="#fff" stroke-miterlimit="10" stroke-width="1.269"/>
        <path id="패스_3901" data-name="패스 3901" d="M187.186,514.571H202.5c35.511,4.919,73.136-19.295,108.78-5.675,29.7,13.621,67.33,10.594,102.789,6.338,5.814-.353,11.559-.663,16.781-.663H543.635" transform="translate(-186.475 -92.72)" fill="none" stroke="#fff" stroke-miterlimit="10" stroke-width="1.269"/>
        <path id="패스_3902" data-name="패스 3902" d="M187.186,504.892H202.5c31.55,2.27,61.255-14.377,88.978-6.81,31.685,7.567,67.329,12.107,101.008,9.535a178.5,178.5,0,0,0,22.459-2.724H543.635" transform="translate(-186.475 -94.012)" fill="none" stroke="#fff" stroke-miterlimit="10" stroke-width="1.269"/>
        <path id="패스_3903" data-name="패스 3903" d="M187.186,495.3s6.275-.125,15.373-.01c29.514,2.66,59.217-13.988,86.941-6.42,31.685,6.053,73.271,7.566,109.113,6.435,4.707.084,10.962,0,16.336,0H543.635" transform="translate(-186.475 -95.398)" fill="none" stroke="#fff" stroke-miterlimit="10" stroke-width="1.269"/>
        <path id="패스_3904" data-name="패스 3904" d="M187.186,485.841s6.885-.1,16.508-.1c10.556.1,22.438-1.417,32.339-1.417,17.822-3.027,37.624-10.594,55.447-6.053,31.685,9.08,71.29,9.08,106.2,8.483,5.7-.229,11.386-.459,17.265-.917H543.635" transform="translate(-186.475 -96.906)" fill="none" stroke="#fff" stroke-miterlimit="10" stroke-width="1.269"/>
        <path id="패스_3905" data-name="패스 3905" d="M187.186,476.268s7.487-.077,17.053-.077c27.834.456,53.578-8.625,79.321-8.625,37.625,3.027,77.23,9.08,115.095,8.7H543.635" transform="translate(-186.475 -98.303)" fill="none" stroke="#fff" stroke-miterlimit="10" stroke-width="1.269"/>
        <path id="패스_3906" data-name="패스 3906" d="M187.186,466.554s7.847-.064,17.378-.064c25.528.821,49.292-6.745,73.054-6.745,41.586-3.027,79.211,7.566,121.036,6.809H543.635" transform="translate(-186.475 -99.562)" fill="none" stroke="#fff" stroke-miterlimit="10" stroke-width="1.269"/>
        <path id="패스_3907" data-name="패스 3907" d="M187.186,456.96s7.326-.071,15.794-.022c35.033,2.67,68.7-9.437,104.343-6.41,29.7,1.514,59.407,9.08,89.861,7.443,5.823-.253,11.631-.506,17.765-1.011H543.635" transform="translate(-186.475 -100.94)" fill="none" stroke="#fff" stroke-miterlimit="10" stroke-width="1.269"/>
        <path id="패스_3908" data-name="패스 3908" d="M187.186,447.442s7.852-.038,17.382-.038c39.387,1.552,77.012-10.555,116.617-6.015,25.744,3.027,51.488,7.567,77.47,6.053H543.635" transform="translate(-186.475 -102.395)" fill="none" stroke="#fff" stroke-miterlimit="10" stroke-width="1.269"/>
        <path id="패스_3909" data-name="패스 3909" d="M187.186,437.856s7.85.016,17.382.016c39.387,1.875,77.012-10.232,116.617-5.691,25.744,3.027,49.507,9.08,74.881,7.1,6.087-.358,12.174-.714,18.883-1.429H543.635" transform="translate(-186.475 -103.78)" fill="none" stroke="#fff" stroke-miterlimit="10" stroke-width="1.269"/>
        <path id="패스_3910" data-name="패스 3910" d="M187.186,428.365h15.675a117.984,117.984,0,0,0,43.072-.757c53.468-10.594,100.994-6.053,152.72.757H543.635" transform="translate(-186.475 -105.26)" fill="none" stroke="#fff" stroke-miterlimit="10" stroke-width="1.269"/>
        <path id="패스_3911" data-name="패스 3911" d="M187.186,419.435s6.728.123,16.366.123c38.422-.5,74.067-5.041,109.712-11.094,29.7-4.541,55.447,13.62,85.39,10.971H543.635" transform="translate(-186.475 -107.303)" fill="none" stroke="#fff" stroke-miterlimit="10" stroke-width="1.269"/>
        <path id="패스_3912" data-name="패스 3912" d="M187.186,409.965s6.022.1,15.726.1c41.042,2.931,80.647-10.69,120.253-12.2,23.763-1.514,47.526,13.62,73.492,13.1,4.671-.4,12.013-.482,18.292-1H543.635" transform="translate(-186.475 -108.804)" fill="none" stroke="#fff" stroke-miterlimit="10" stroke-width="1.269"/>
        <path id="패스_3913" data-name="패스 3913" d="M187.186,400.759H202.5C247.915,407.191,289.5,386,333.066,386c19.8,0,39.606,13.621,63.562,14.412,6.076.224,12.947.343,18.32.343H543.635" transform="translate(-186.475 -110.571)" fill="none" stroke="#fff" stroke-miterlimit="10" stroke-width="1.269"/>
        <path id="패스_3914" data-name="패스 3914" d="M187.186,391.847H202.5c39.472,2.27,85.018-2.27,122.643-17.4,21.783-9.08,43.566,13.62,69.745,16.42,7.554.755,14.685.984,20.059.984H543.635" transform="translate(-186.475 -112.63)" fill="none" stroke="#fff" stroke-miterlimit="10" stroke-width="1.269"/>
        <path id="패스_3915" data-name="패스 3915" d="M187.186,382.388H202.5c4.873,0,12.031.709,23.126,1.66,42.089,5.528,77.734-18.686,115.359-21.713,23.763-1.513,45.546,19.674,73.594,19.949,5.353,0,11.05.1,16.271.1H543.635" transform="translate(-186.475 -114.143)" fill="none" stroke="#fff" stroke-miterlimit="10" stroke-width="1.269"/>
        <path id="패스_3916" data-name="패스 3916" d="M187.186,373.109H202.5c4.873,0,12.478.591,20.32.666,42.915,5.387,82.52-11.259,122.126-21.853,21.782-6.053,39.605,19.674,67.75,20.285,6.254.645,12.933.9,18.155.9H543.635" transform="translate(-186.475 -115.836)" fill="none" stroke="#fff" stroke-miterlimit="10" stroke-width="1.269"/>
        <path id="패스_3917" data-name="패스 3917" d="M187.186,363.215H202.5c4.873,0,12.931.381,19.83.632,47.366,8.827,88.951-15.387,132.517-19.927,21.783-1.513,47.527,18.16,75.981,19.283,4.835-.2,10.379.013,15.4.013h97.4" transform="translate(-186.475 -116.913)" fill="none" stroke="#fff" stroke-miterlimit="10" stroke-width="1.269"/>
        <path id="패스_3918" data-name="패스 3918" d="M187.186,354.693H202.5c4.873,0,12.557.753,19.785,1.17,45.43,5.64,98.9,2.614,132.562-27.654,1.981-1.513,7.922,0,9.9,0,21.783,9.08,39.605,21.187,63.512,25.425,6.006.4,12.947,1.058,17.972,1.058h97.4" transform="translate(-186.475 -119.365)" fill="none" stroke="#fff" stroke-miterlimit="10" stroke-width="1.269"/>
        <path id="패스_3919" data-name="패스 3919" d="M187.186,345.888h32.895c49.617,4.162,109.025,10.216,142.69-29.133,3.96-3.027,9.9-4.54,13.861-3.027,21.783,13.621,39.606,33.3,68.984,31.939,4.99,0,10.56.221,15.346.221h82.673" transform="translate(-186.475 -121.531)" fill="none" stroke="#fff" stroke-miterlimit="10" stroke-width="1.269"/>
        <path id="패스_3920" data-name="패스 3920" d="M187.186,336.05h43.707a81.29,81.29,0,0,0,17.845,2.618c52.644,9.489,94.229-20.78,137.795-32.887,15.842-3.027,39.605,33.3,74.429,30.268h82.673" transform="translate(-186.475 -122.664)" fill="none" stroke="#fff" stroke-miterlimit="10" stroke-width="1.269"/>
        <path id="패스_3921" data-name="패스 3921" d="M187.186,328.022h32.895c6.789,0,16.66.8,23.065.114,60.217,12.371,117.644-4.276,151.31-42.11,17.822,16.646,33.664,37.833,66.2,41.846,4.756-.106,9.747.15,14.25.15h68.728" transform="translate(-186.475 -125.608)" fill="none" stroke="#fff" stroke-miterlimit="10" stroke-width="1.269"/>
        <path id="패스_3922" data-name="패스 3922" d="M187.186,319.227h55.7c62.46,14.377,127.809-2.271,159.494-47.672,15.842,22.7,35.645,46.915,72.532,47.672,4.312-.1,8.855,0,13.032,0h55.7" transform="translate(-186.475 -127.785)" fill="none" stroke="#fff" stroke-miterlimit="10" stroke-width="1.269"/>
        <path id="패스_3923" data-name="패스 3923" d="M187.186,309.837h55.7c4.177,0,8.7.1,13.6.385,58.758,11.343,126.088-.764,147.87-49.191,19.8,22.7,43.566,49.941,83.584,48.806h55.7" transform="translate(-186.475 -129.368)" fill="none" stroke="#fff" stroke-miterlimit="10" stroke-width="1.269"/>
        <path id="패스_3924" data-name="패스 3924" d="M187.186,299.855h68.727c5.822.882,12.628,1.421,17.964,1.749,53.249,11.871,112.657-4.775,132.46-47.149,19.8,21.187,43.566,40.86,79.873,44.687,8.182,0,17.743.714,24.53.714h32.9" transform="translate(-186.475 -130.357)" fill="none" stroke="#fff" stroke-miterlimit="10" stroke-width="1.269"/>
        <path id="패스_3925" data-name="패스 3925" d="M187.186,289.675h68.727c4.522.051,9.193.1,14.009.194,51.263,12.29,118.592,3.21,136.415-40.677,25.743,19.673,53.466,39.347,92.589,40.274,4.266.086,8.42.209,11.814.209h32.9" transform="translate(-186.475 -131.149)" fill="none" stroke="#fff" stroke-miterlimit="10" stroke-width="1.269"/>
        <path id="패스_3926" data-name="패스 3926" d="M187.186,279.494h82.673c4.786,0,10.61.2,16.424.63,42.823,7.693,104.211,1.639,120.053-36.194,27.724,15.134,53.466,36.321,91.727,35.322,5.152.215,9.283.242,12.676.242h32.9" transform="translate(-186.475 -131.94)" fill="none" stroke="#fff" stroke-miterlimit="10" stroke-width="1.269"/>
        <path id="패스_3927" data-name="패스 3927" d="M187.186,269.116h82.673c4.786,0,9.739.021,14.943.137,46.284,10.078,97.772,1,125.5-29.27,27.724,18.16,63.368,30.267,100.442,29.133h32.9" transform="translate(-186.475 -132.534)" fill="none" stroke="#fff" stroke-miterlimit="10" stroke-width="1.269"/>
        <path id="패스_3928" data-name="패스 3928" d="M187.186,258.024h97.4a81.33,81.33,0,0,0,20.129,2.787c36.271,4.78,73.9-14.894,105.581-19.434,27.724-4.541,63.368,18.16,100.442,16.646h32.9" transform="translate(-186.475 -132.414)" fill="none" stroke="#fff" stroke-miterlimit="10" stroke-width="1.269"/>
        <path id="패스_3929" data-name="패스 3929" d="M187.186,247.974H299.969c39.038,4.918,74.683-14.755,110.329-13.242,31.683,0,65.348,13.621,100.442,13.242h32.9" transform="translate(-186.475 -133.336)" fill="none" stroke="#fff" stroke-miterlimit="10" stroke-width="1.269"/>
        <path id="패스_3930" data-name="패스 3930" d="M187.186,238.429H299.969c5.222,0,13.115.5,20.117.3,24.863-1.054,44.665-16.187,68.427-13.161,41.586,3.027,81.191,13.62,122.223,12.864h32.9" transform="translate(-186.475 -134.762)" fill="none" stroke="#fff" stroke-miterlimit="10" stroke-width="1.269"/>
        <path id="패스_3931" data-name="패스 3931" d="M187.186,229.741H299.969c9.334,1.135,17.255-.378,27.157-1.891,19.8-4.541,35.645-22.7,53.467-16.648,39.605,15.134,87.132,19.674,130.147,18.539h32.9" transform="translate(-186.475 -137.047)" fill="none" stroke="#fff" stroke-miterlimit="10" stroke-width="1.269"/>
        <path id="패스_3932" data-name="패스 3932" d="M187.186,222.962h97.4c5.025,0,11.613-.63,17.192-.869,29.307-.645,47.129-20.318,57.03-39.993,31.685,42.374,95.054,45.4,151.93,40.861h32.9" transform="translate(-186.475 -141.24)" fill="none" stroke="#fff" stroke-miterlimit="10" stroke-width="1.269"/>
        <path id="패스_3933" data-name="패스 3933" d="M187.186,215.947h82.673c4.786,0,9.961-.129,14.73,0,42.536-1.134,54.418-34.428,64.319-60.156,23.764,55.995,93.073,71.129,161.831,60.156h32.9" transform="translate(-186.475 -145.197)" fill="none" stroke="#fff" stroke-miterlimit="10" stroke-width="1.269"/>
        <path id="패스_3934" data-name="패스 3934" d="M187.186,205.965h82.673a143.476,143.476,0,0,0,17.132-1.278c28.253-11.586,44.1-34.286,57.958-55.474,25.743,40.861,77.23,72.643,138.939,58.123,5.789-.3,10.659-.644,16.04-1.371h43.707" transform="translate(-186.475 -146.186)" fill="none" stroke="#fff" stroke-miterlimit="10" stroke-width="1.269"/>
        <path id="패스_3935" data-name="패스 3935" d="M187.186,195.388h68.727c4.5,0,10.264-.541,14.125-.085,33.325-6.346,51.147-30.559,74.911-48.721,29.7,37.835,83.171,65.075,142.672,48.922,6.189.7,16.331-.116,23.119-.116h32.9" transform="translate(-186.475 -146.582)" fill="none" stroke="#fff" stroke-miterlimit="10" stroke-width="1.269"/>
        <path id="패스_3936" data-name="패스 3936" d="M187.186,183.912h68.727c37.548-3.027,67.253-39.347,87.055-33.294,43.566,16.648,91.093,43.888,144.972,33.294h55.7" transform="translate(-186.475 -146.077)" fill="none" stroke="#fff" stroke-miterlimit="10" stroke-width="1.269"/>
      </g>
    </g>
  </g>
</svg>
